<svg width="223" height="44" viewBox="0 0 223 44" fill="none" xmlns="http://www.w3.org/2000/svg">
<path d="M20.773 2.70874C21.6307 1.04524 23.3456 0 25.2172 0H215.232C218.869 0 221.29 3.75977 219.784 7.07041L204.771 40.0704C203.96 41.8546 202.18 43 200.22 43H8.20328C4.45928 43 2.04347 39.0365 3.75917 35.7087L20.773 2.70874Z" fill="#03304E"/>
<path d="M43.2285 24.4062C43.2285 24.0742 43.1764 23.7812 43.0723 23.5273C42.9746 23.2669 42.7988 23.0326 42.5449 22.8242C42.2975 22.6159 41.9525 22.4173 41.5098 22.2285C41.0736 22.0397 40.5202 21.8477 39.8496 21.6523C39.1465 21.444 38.5117 21.2129 37.9453 20.959C37.3789 20.6986 36.8939 20.4023 36.4902 20.0703C36.0866 19.7383 35.7773 19.3574 35.5625 18.9277C35.3477 18.498 35.2402 18.0065 35.2402 17.4531C35.2402 16.8997 35.3542 16.3887 35.582 15.9199C35.8099 15.4512 36.1354 15.0443 36.5586 14.6992C36.9883 14.3477 37.4993 14.0742 38.0918 13.8789C38.6842 13.6836 39.3451 13.5859 40.0742 13.5859C41.1419 13.5859 42.0469 13.791 42.7891 14.2012C43.5378 14.6048 44.1074 15.1354 44.498 15.793C44.8887 16.444 45.084 17.1406 45.084 17.8828H43.209C43.209 17.349 43.0951 16.877 42.8672 16.4668C42.6393 16.0501 42.2943 15.7246 41.832 15.4902C41.3698 15.2493 40.7839 15.1289 40.0742 15.1289C39.4036 15.1289 38.8503 15.2298 38.4141 15.4316C37.9779 15.6335 37.6523 15.9069 37.4375 16.252C37.2292 16.597 37.125 16.9909 37.125 17.4336C37.125 17.7331 37.1868 18.0065 37.3105 18.2539C37.4408 18.4948 37.6393 18.7194 37.9062 18.9277C38.1797 19.1361 38.5247 19.3281 38.9414 19.5039C39.3646 19.6797 39.8691 19.849 40.4551 20.0117C41.2624 20.2396 41.959 20.4935 42.5449 20.7734C43.1309 21.0534 43.6126 21.3691 43.9902 21.7207C44.3743 22.0658 44.6576 22.4596 44.8398 22.9023C45.0286 23.3385 45.123 23.8333 45.123 24.3867C45.123 24.9661 45.0059 25.4902 44.7715 25.959C44.5371 26.4277 44.2018 26.8281 43.7656 27.1602C43.3294 27.4922 42.8053 27.7493 42.1934 27.9316C41.5879 28.1074 40.9108 28.1953 40.1621 28.1953C39.5046 28.1953 38.8568 28.1042 38.2188 27.9219C37.5872 27.7396 37.0111 27.4661 36.4902 27.1016C35.9759 26.737 35.5625 26.2878 35.25 25.7539C34.944 25.2135 34.791 24.5885 34.791 23.8789H36.666C36.666 24.3672 36.7604 24.7871 36.9492 25.1387C37.138 25.4837 37.3952 25.7702 37.7207 25.998C38.0527 26.2259 38.4271 26.3952 38.8438 26.5059C39.2669 26.61 39.7064 26.6621 40.1621 26.6621C40.8197 26.6621 41.3763 26.571 41.832 26.3887C42.2878 26.2064 42.6328 25.946 42.8672 25.6074C43.1081 25.2689 43.2285 24.8685 43.2285 24.4062ZM49.2148 17.4336V28H47.3984V17.4336H49.2148ZM47.2617 14.6309C47.2617 14.3379 47.3496 14.0905 47.5254 13.8887C47.7077 13.6868 47.9746 13.5859 48.3262 13.5859C48.6712 13.5859 48.9349 13.6868 49.1172 13.8887C49.306 14.0905 49.4004 14.3379 49.4004 14.6309C49.4004 14.9108 49.306 15.1517 49.1172 15.3535C48.9349 15.5488 48.6712 15.6465 48.3262 15.6465C47.9746 15.6465 47.7077 15.5488 47.5254 15.3535C47.3496 15.1517 47.2617 14.9108 47.2617 14.6309ZM56.5391 17.4336V18.8203H50.8262V17.4336H56.5391ZM52.7598 14.8652H54.5664V25.3828C54.5664 25.7409 54.6217 26.0111 54.7324 26.1934C54.8431 26.3757 54.9863 26.4961 55.1621 26.5547C55.3379 26.6133 55.5267 26.6426 55.7285 26.6426C55.8783 26.6426 56.0345 26.6296 56.1973 26.6035C56.3665 26.571 56.4935 26.5449 56.5781 26.5254L56.5879 28C56.4447 28.0456 56.2559 28.0879 56.0215 28.127C55.7936 28.1725 55.5169 28.1953 55.1914 28.1953C54.7487 28.1953 54.3418 28.1074 53.9707 27.9316C53.5996 27.7559 53.3034 27.4629 53.082 27.0527C52.8672 26.6361 52.7598 26.0762 52.7598 25.373V14.8652ZM60.6211 17.4336V28H58.8047V17.4336H60.6211ZM58.668 14.6309C58.668 14.3379 58.7559 14.0905 58.9316 13.8887C59.1139 13.6868 59.3809 13.5859 59.7324 13.5859C60.0775 13.5859 60.3411 13.6868 60.5234 13.8887C60.7122 14.0905 60.8066 14.3379 60.8066 14.6309C60.8066 14.9108 60.7122 15.1517 60.5234 15.3535C60.3411 15.5488 60.0775 15.6465 59.7324 15.6465C59.3809 15.6465 59.1139 15.5488 58.9316 15.3535C58.7559 15.1517 58.668 14.9108 58.668 14.6309ZM63.043 22.834V22.6094C63.043 21.8477 63.1536 21.1413 63.375 20.4902C63.5964 19.8327 63.9154 19.263 64.332 18.7812C64.7487 18.293 65.2533 17.9154 65.8457 17.6484C66.4382 17.375 67.1022 17.2383 67.8379 17.2383C68.5801 17.2383 69.2474 17.375 69.8398 17.6484C70.4388 17.9154 70.9466 18.293 71.3633 18.7812C71.7865 19.263 72.1087 19.8327 72.3301 20.4902C72.5514 21.1413 72.6621 21.8477 72.6621 22.6094V22.834C72.6621 23.5957 72.5514 24.3021 72.3301 24.9531C72.1087 25.6042 71.7865 26.1738 71.3633 26.6621C70.9466 27.1439 70.4421 27.5215 69.8496 27.7949C69.2637 28.0618 68.5996 28.1953 67.8574 28.1953C67.1152 28.1953 66.4479 28.0618 65.8555 27.7949C65.263 27.5215 64.7552 27.1439 64.332 26.6621C63.9154 26.1738 63.5964 25.6042 63.375 24.9531C63.1536 24.3021 63.043 23.5957 63.043 22.834ZM64.8496 22.6094V22.834C64.8496 23.3613 64.9115 23.8594 65.0352 24.3281C65.1589 24.7904 65.3444 25.2005 65.5918 25.5586C65.8457 25.9167 66.1615 26.1999 66.5391 26.4082C66.9167 26.61 67.3561 26.7109 67.8574 26.7109C68.3522 26.7109 68.7852 26.61 69.1562 26.4082C69.5339 26.1999 69.8464 25.9167 70.0938 25.5586C70.3411 25.2005 70.5267 24.7904 70.6504 24.3281C70.7806 23.8594 70.8457 23.3613 70.8457 22.834V22.6094C70.8457 22.0885 70.7806 21.597 70.6504 21.1348C70.5267 20.666 70.3379 20.2526 70.084 19.8945C69.8366 19.5299 69.5241 19.2435 69.1465 19.0352C68.7754 18.8268 68.3392 18.7227 67.8379 18.7227C67.3431 18.7227 66.9069 18.8268 66.5293 19.0352C66.1582 19.2435 65.8457 19.5299 65.5918 19.8945C65.3444 20.2526 65.1589 20.666 65.0352 21.1348C64.9115 21.597 64.8496 22.0885 64.8496 22.6094ZM81.0801 25.1973C81.0801 24.9368 81.0215 24.696 80.9043 24.4746C80.7936 24.2467 80.5625 24.0417 80.2109 23.8594C79.8659 23.6706 79.3451 23.5078 78.6484 23.3711C78.0625 23.2474 77.5319 23.1009 77.0566 22.9316C76.5879 22.7624 76.1875 22.5573 75.8555 22.3164C75.5299 22.0755 75.2793 21.7923 75.1035 21.4668C74.9277 21.1413 74.8398 20.7604 74.8398 20.3242C74.8398 19.9076 74.931 19.5137 75.1133 19.1426C75.3021 18.7715 75.5658 18.4427 75.9043 18.1562C76.2493 17.8698 76.6628 17.6452 77.1445 17.4824C77.6263 17.3197 78.1634 17.2383 78.7559 17.2383C79.6022 17.2383 80.3249 17.388 80.9238 17.6875C81.5228 17.987 81.9818 18.3874 82.3008 18.8887C82.6198 19.3835 82.7793 19.9336 82.7793 20.5391H80.9727C80.9727 20.2461 80.8848 19.9629 80.709 19.6895C80.5397 19.4095 80.2891 19.1784 79.957 18.9961C79.6315 18.8138 79.2311 18.7227 78.7559 18.7227C78.2546 18.7227 77.8477 18.8008 77.5352 18.957C77.2292 19.1068 77.0046 19.2988 76.8613 19.5332C76.7246 19.7676 76.6562 20.015 76.6562 20.2754C76.6562 20.4707 76.6888 20.6465 76.7539 20.8027C76.8255 20.9525 76.9492 21.0924 77.125 21.2227C77.3008 21.3464 77.5482 21.4635 77.8672 21.5742C78.1862 21.6849 78.5931 21.7956 79.0879 21.9062C79.9538 22.1016 80.6667 22.3359 81.2266 22.6094C81.7865 22.8828 82.2031 23.2181 82.4766 23.6152C82.75 24.0124 82.8867 24.4941 82.8867 25.0605C82.8867 25.5228 82.7891 25.946 82.5938 26.3301C82.4049 26.7142 82.1283 27.0462 81.7637 27.3262C81.4056 27.5996 80.9759 27.8145 80.4746 27.9707C79.9798 28.1204 79.4232 28.1953 78.8047 28.1953C77.8737 28.1953 77.0859 28.0293 76.4414 27.6973C75.7969 27.3652 75.3086 26.9355 74.9766 26.4082C74.6445 25.8809 74.4785 25.3242 74.4785 24.7383H76.2949C76.321 25.2331 76.4642 25.627 76.7246 25.9199C76.985 26.2064 77.304 26.4115 77.6816 26.5352C78.0592 26.6523 78.4336 26.7109 78.8047 26.7109C79.2995 26.7109 79.7129 26.6458 80.0449 26.5156C80.3835 26.3854 80.6406 26.2064 80.8164 25.9785C80.9922 25.7507 81.0801 25.4902 81.0801 25.1973ZM101.842 25.9492V13H103.658V28H101.998L101.842 25.9492ZM94.7324 22.834V22.6289C94.7324 21.8216 94.8301 21.0892 95.0254 20.4316C95.2272 19.7676 95.5104 19.1979 95.875 18.7227C96.2461 18.2474 96.6855 17.8828 97.1934 17.6289C97.7077 17.3685 98.2806 17.2383 98.9121 17.2383C99.5762 17.2383 100.156 17.3555 100.65 17.5898C101.152 17.8177 101.575 18.153 101.92 18.5957C102.271 19.0319 102.548 19.5592 102.75 20.1777C102.952 20.7962 103.092 21.4961 103.17 22.2773V23.1758C103.098 23.9505 102.958 24.6471 102.75 25.2656C102.548 25.8841 102.271 26.4115 101.92 26.8477C101.575 27.2839 101.152 27.6191 100.65 27.8535C100.149 28.0814 99.5632 28.1953 98.8926 28.1953C98.2741 28.1953 97.7077 28.0618 97.1934 27.7949C96.6855 27.528 96.2461 27.1536 95.875 26.6719C95.5104 26.1901 95.2272 25.6237 95.0254 24.9727C94.8301 24.3151 94.7324 23.6022 94.7324 22.834ZM96.5488 22.6289V22.834C96.5488 23.3613 96.6009 23.8561 96.7051 24.3184C96.8158 24.7806 96.985 25.1875 97.2129 25.5391C97.4408 25.8906 97.7305 26.1673 98.082 26.3691C98.4336 26.5645 98.8535 26.6621 99.3418 26.6621C99.9408 26.6621 100.432 26.5352 100.816 26.2812C101.207 26.0273 101.52 25.6921 101.754 25.2754C101.988 24.8587 102.171 24.4062 102.301 23.918V21.5645C102.223 21.2064 102.109 20.8613 101.959 20.5293C101.816 20.1908 101.627 19.8913 101.393 19.6309C101.165 19.3639 100.882 19.1523 100.543 18.9961C100.211 18.8398 99.8171 18.7617 99.3613 18.7617C98.8665 18.7617 98.4401 18.8659 98.082 19.0742C97.7305 19.276 97.4408 19.556 97.2129 19.9141C96.985 20.2656 96.8158 20.6758 96.7051 21.1445C96.6009 21.6068 96.5488 22.1016 96.5488 22.6289ZM110.855 28.1953C110.12 28.1953 109.452 28.0716 108.854 27.8242C108.261 27.5703 107.75 27.2155 107.32 26.7598C106.897 26.304 106.572 25.7637 106.344 25.1387C106.116 24.5137 106.002 23.8301 106.002 23.0879V22.6777C106.002 21.8184 106.129 21.0534 106.383 20.3828C106.637 19.7057 106.982 19.1328 107.418 18.6641C107.854 18.1953 108.349 17.8405 108.902 17.5996C109.456 17.3587 110.029 17.2383 110.621 17.2383C111.376 17.2383 112.027 17.3685 112.574 17.6289C113.128 17.8893 113.58 18.2539 113.932 18.7227C114.283 19.1849 114.544 19.7318 114.713 20.3633C114.882 20.9883 114.967 21.6719 114.967 22.4141V23.2246H107.076V21.75H113.16V21.6133C113.134 21.1445 113.036 20.6888 112.867 20.2461C112.704 19.8034 112.444 19.4388 112.086 19.1523C111.728 18.8659 111.24 18.7227 110.621 18.7227C110.211 18.7227 109.833 18.8105 109.488 18.9863C109.143 19.1556 108.847 19.4095 108.6 19.748C108.352 20.0866 108.16 20.5 108.023 20.9883C107.887 21.4766 107.818 22.0397 107.818 22.6777V23.0879C107.818 23.5892 107.887 24.0612 108.023 24.5039C108.167 24.9401 108.372 25.3242 108.639 25.6562C108.912 25.9883 109.241 26.2487 109.625 26.4375C110.016 26.6263 110.458 26.7207 110.953 26.7207C111.591 26.7207 112.132 26.5905 112.574 26.3301C113.017 26.0697 113.404 25.7214 113.736 25.2852L114.83 26.1543C114.602 26.4993 114.312 26.8281 113.961 27.1406C113.609 27.4531 113.176 27.707 112.662 27.9023C112.154 28.0977 111.552 28.1953 110.855 28.1953ZM124 17.4336V28H122.184V17.4336H124ZM122.047 14.6309C122.047 14.3379 122.135 14.0905 122.311 13.8887C122.493 13.6868 122.76 13.5859 123.111 13.5859C123.456 13.5859 123.72 13.6868 123.902 13.8887C124.091 14.0905 124.186 14.3379 124.186 14.6309C124.186 14.9108 124.091 15.1517 123.902 15.3535C123.72 15.5488 123.456 15.6465 123.111 15.6465C122.76 15.6465 122.493 15.5488 122.311 15.3535C122.135 15.1517 122.047 14.9108 122.047 14.6309ZM128.707 19.6895V28H126.9V17.4336H128.609L128.707 19.6895ZM128.277 22.3164L127.525 22.2871C127.532 21.5645 127.639 20.8971 127.848 20.2852C128.056 19.6667 128.349 19.1296 128.727 18.6738C129.104 18.2181 129.553 17.8665 130.074 17.6191C130.602 17.3652 131.184 17.2383 131.822 17.2383C132.343 17.2383 132.812 17.3099 133.229 17.4531C133.645 17.5898 134 17.8112 134.293 18.1172C134.592 18.4232 134.82 18.8203 134.977 19.3086C135.133 19.7904 135.211 20.3796 135.211 21.0762V28H133.395V21.0566C133.395 20.5033 133.313 20.0605 133.15 19.7285C132.988 19.39 132.75 19.1458 132.438 18.9961C132.125 18.8398 131.741 18.7617 131.285 18.7617C130.836 18.7617 130.426 18.8561 130.055 19.0449C129.69 19.2337 129.374 19.4941 129.107 19.8262C128.847 20.1582 128.642 20.5391 128.492 20.9688C128.349 21.3919 128.277 21.8411 128.277 22.3164ZM142.379 17.4336V18.8203H136.666V17.4336H142.379ZM138.6 14.8652H140.406V25.3828C140.406 25.7409 140.462 26.0111 140.572 26.1934C140.683 26.3757 140.826 26.4961 141.002 26.5547C141.178 26.6133 141.367 26.6426 141.568 26.6426C141.718 26.6426 141.874 26.6296 142.037 26.6035C142.206 26.571 142.333 26.5449 142.418 26.5254L142.428 28C142.285 28.0456 142.096 28.0879 141.861 28.127C141.633 28.1725 141.357 28.1953 141.031 28.1953C140.589 28.1953 140.182 28.1074 139.811 27.9316C139.439 27.7559 139.143 27.4629 138.922 27.0527C138.707 26.6361 138.6 26.0762 138.6 25.373V14.8652ZM148.883 28.1953C148.147 28.1953 147.48 28.0716 146.881 27.8242C146.288 27.5703 145.777 27.2155 145.348 26.7598C144.924 26.304 144.599 25.7637 144.371 25.1387C144.143 24.5137 144.029 23.8301 144.029 23.0879V22.6777C144.029 21.8184 144.156 21.0534 144.41 20.3828C144.664 19.7057 145.009 19.1328 145.445 18.6641C145.882 18.1953 146.376 17.8405 146.93 17.5996C147.483 17.3587 148.056 17.2383 148.648 17.2383C149.404 17.2383 150.055 17.3685 150.602 17.6289C151.155 17.8893 151.607 18.2539 151.959 18.7227C152.311 19.1849 152.571 19.7318 152.74 20.3633C152.91 20.9883 152.994 21.6719 152.994 22.4141V23.2246H145.104V21.75H151.188V21.6133C151.161 21.1445 151.064 20.6888 150.895 20.2461C150.732 19.8034 150.471 19.4388 150.113 19.1523C149.755 18.8659 149.267 18.7227 148.648 18.7227C148.238 18.7227 147.861 18.8105 147.516 18.9863C147.171 19.1556 146.874 19.4095 146.627 19.748C146.38 20.0866 146.188 20.5 146.051 20.9883C145.914 21.4766 145.846 22.0397 145.846 22.6777V23.0879C145.846 23.5892 145.914 24.0612 146.051 24.5039C146.194 24.9401 146.399 25.3242 146.666 25.6562C146.939 25.9883 147.268 26.2487 147.652 26.4375C148.043 26.6263 148.486 26.7207 148.98 26.7207C149.618 26.7207 150.159 26.5905 150.602 26.3301C151.044 26.0697 151.432 25.7214 151.764 25.2852L152.857 26.1543C152.63 26.4993 152.34 26.8281 151.988 27.1406C151.637 27.4531 151.204 27.707 150.689 27.9023C150.182 28.0977 149.579 28.1953 148.883 28.1953ZM156.91 19.0938V28H155.104V17.4336H156.861L156.91 19.0938ZM160.211 17.375L160.201 19.0547C160.051 19.0221 159.908 19.0026 159.771 18.9961C159.641 18.9831 159.492 18.9766 159.322 18.9766C158.906 18.9766 158.538 19.0417 158.219 19.1719C157.9 19.3021 157.63 19.4844 157.408 19.7188C157.187 19.9531 157.011 20.2331 156.881 20.5586C156.757 20.8776 156.676 21.2292 156.637 21.6133L156.129 21.9062C156.129 21.2682 156.191 20.6693 156.314 20.1094C156.445 19.5495 156.643 19.0547 156.91 18.625C157.177 18.1888 157.516 17.8503 157.926 17.6094C158.342 17.362 158.837 17.2383 159.41 17.2383C159.54 17.2383 159.69 17.2546 159.859 17.2871C160.029 17.3132 160.146 17.3424 160.211 17.375ZM166.07 28.1953C165.335 28.1953 164.667 28.0716 164.068 27.8242C163.476 27.5703 162.965 27.2155 162.535 26.7598C162.112 26.304 161.786 25.7637 161.559 25.1387C161.331 24.5137 161.217 23.8301 161.217 23.0879V22.6777C161.217 21.8184 161.344 21.0534 161.598 20.3828C161.852 19.7057 162.197 19.1328 162.633 18.6641C163.069 18.1953 163.564 17.8405 164.117 17.5996C164.671 17.3587 165.243 17.2383 165.836 17.2383C166.591 17.2383 167.242 17.3685 167.789 17.6289C168.342 17.8893 168.795 18.2539 169.146 18.7227C169.498 19.1849 169.758 19.7318 169.928 20.3633C170.097 20.9883 170.182 21.6719 170.182 22.4141V23.2246H162.291V21.75H168.375V21.6133C168.349 21.1445 168.251 20.6888 168.082 20.2461C167.919 19.8034 167.659 19.4388 167.301 19.1523C166.943 18.8659 166.454 18.7227 165.836 18.7227C165.426 18.7227 165.048 18.8105 164.703 18.9863C164.358 19.1556 164.062 19.4095 163.814 19.748C163.567 20.0866 163.375 20.5 163.238 20.9883C163.102 21.4766 163.033 22.0397 163.033 22.6777V23.0879C163.033 23.5892 163.102 24.0612 163.238 24.5039C163.382 24.9401 163.587 25.3242 163.854 25.6562C164.127 25.9883 164.456 26.2487 164.84 26.4375C165.23 26.6263 165.673 26.7207 166.168 26.7207C166.806 26.7207 167.346 26.5905 167.789 26.3301C168.232 26.0697 168.619 25.7214 168.951 25.2852L170.045 26.1543C169.817 26.4993 169.527 26.8281 169.176 27.1406C168.824 27.4531 168.391 27.707 167.877 27.9023C167.369 28.0977 166.767 28.1953 166.07 28.1953ZM178.443 25.1973C178.443 24.9368 178.385 24.696 178.268 24.4746C178.157 24.2467 177.926 24.0417 177.574 23.8594C177.229 23.6706 176.708 23.5078 176.012 23.3711C175.426 23.2474 174.895 23.1009 174.42 22.9316C173.951 22.7624 173.551 22.5573 173.219 22.3164C172.893 22.0755 172.643 21.7923 172.467 21.4668C172.291 21.1413 172.203 20.7604 172.203 20.3242C172.203 19.9076 172.294 19.5137 172.477 19.1426C172.665 18.7715 172.929 18.4427 173.268 18.1562C173.613 17.8698 174.026 17.6452 174.508 17.4824C174.99 17.3197 175.527 17.2383 176.119 17.2383C176.965 17.2383 177.688 17.388 178.287 17.6875C178.886 17.987 179.345 18.3874 179.664 18.8887C179.983 19.3835 180.143 19.9336 180.143 20.5391H178.336C178.336 20.2461 178.248 19.9629 178.072 19.6895C177.903 19.4095 177.652 19.1784 177.32 18.9961C176.995 18.8138 176.594 18.7227 176.119 18.7227C175.618 18.7227 175.211 18.8008 174.898 18.957C174.592 19.1068 174.368 19.2988 174.225 19.5332C174.088 19.7676 174.02 20.015 174.02 20.2754C174.02 20.4707 174.052 20.6465 174.117 20.8027C174.189 20.9525 174.312 21.0924 174.488 21.2227C174.664 21.3464 174.911 21.4635 175.23 21.5742C175.549 21.6849 175.956 21.7956 176.451 21.9062C177.317 22.1016 178.03 22.3359 178.59 22.6094C179.15 22.8828 179.566 23.2181 179.84 23.6152C180.113 24.0124 180.25 24.4941 180.25 25.0605C180.25 25.5228 180.152 25.946 179.957 26.3301C179.768 26.7142 179.492 27.0462 179.127 27.3262C178.769 27.5996 178.339 27.8145 177.838 27.9707C177.343 28.1204 176.786 28.1953 176.168 28.1953C175.237 28.1953 174.449 28.0293 173.805 27.6973C173.16 27.3652 172.672 26.9355 172.34 26.4082C172.008 25.8809 171.842 25.3242 171.842 24.7383H173.658C173.684 25.2331 173.827 25.627 174.088 25.9199C174.348 26.2064 174.667 26.4115 175.045 26.5352C175.423 26.6523 175.797 26.7109 176.168 26.7109C176.663 26.7109 177.076 26.6458 177.408 26.5156C177.747 26.3854 178.004 26.2064 178.18 25.9785C178.355 25.7507 178.443 25.4902 178.443 25.1973Z" fill="white"/>
</svg>
