<?xml version="1.0" standalone="no"?>
<!DOCTYPE svg PUBLIC "-//W3C//DTD SVG 1.1//EN" "http://www.w3.org/Graphics/SVG/1.1/DTD/svg11.dtd" >
<svg xmlns="http://www.w3.org/2000/svg">
<metadata></metadata>
<defs>
<font id="lailasemibold" horiz-adv-x="1132" >
<font-face units-per-em="2048" ascent="1638" descent="-410" />
<missing-glyph horiz-adv-x="567" />
<glyph unicode="&#xfb01;" horiz-adv-x="1292" d="M39 -379q115 0 157 49t42 164v1057q-178 14 -179 96q0 51 37 80q78 -8 137 -8h5v106q0 213 136 317.5t331.5 104.5t309 -64.5t113.5 -158.5q0 -66 -67 -102q-39 -23 -79 -23t-77 10q-59 158 -198 158q-205 0 -205 -229v-119h473q86 0 120.5 -49.5t34.5 -155.5v-676 q0 -88 60 -119q-59 -80 -156 -79q-168 0 -168 204v705l-364 -2v-1100q0 -162 -70 -242t-180 -80q-160 0 -213 156z" />
<glyph unicode="&#xfb02;" horiz-adv-x="1374" d="M39 -379q115 0 157 49t42 164v975q-178 10 -179 96q0 51 37 78q78 -4 137 -4h5v252q0 174 115.5 265t324.5 91t330.5 -68.5t121.5 -172.5v-1168q0 -88 60 -119q-59 -80 -156 -79q-168 0 -168 204v1200q-72 33 -162 33t-146 -49t-56 -139v-250h207q12 -14 12 -41 q0 -49 -55.5 -89t-163.5 -42v-1020q0 -162 -70 -242t-180 -80q-160 0 -213 156z" />
<glyph horiz-adv-x="0" />
<glyph horiz-adv-x="682" />
<glyph horiz-adv-x="0" />
<glyph horiz-adv-x="0" />
<glyph unicode="&#xd;" horiz-adv-x="681" />
<glyph unicode=" "  horiz-adv-x="567" />
<glyph unicode="&#x09;" horiz-adv-x="567" />
<glyph unicode="&#xa0;" horiz-adv-x="567" />
<glyph unicode="!" horiz-adv-x="792" d="M164 1364q0 90 43 157.5t126 67.5t134 -78q35 -53 35 -109t-6 -93l-74 -609q-12 -80 -12 -140t10 -103q-35 -31 -70 -31q-98 0 -121 168l-61 715q-4 29 -4 55zM190 115.5q0 64.5 56.5 120t120 55.5t99.5 -37t36 -100.5t-55.5 -120t-120 -56.5t-100.5 37t-36 101.5z" />
<glyph unicode="&#x22;" horiz-adv-x="899" d="M123 1657q0 227 130 227t130 -203q0 -145 -43 -304.5t-86 -159.5t-87 160.5t-44 279.5zM516 1659q0 225 130 225t130 -203q0 -147 -42 -305.5t-87 -158.5q-41 0 -86 161.5t-45 280.5z" />
<glyph unicode="#" horiz-adv-x="1753" d="M125 426q0 51 58.5 83t172.5 32h35l123 407h-197q-14 37 -14 62q0 119 232 118h34l56 181q31 106 80 154t138 48t128 -79q-70 -27 -101 -117l-57 -187h346l53 181q35 106 83 154t137.5 48t128.5 -79q-70 -27 -101 -117l-57 -187h211q16 -33 16 -61q0 -53 -58 -86 t-175 -33h-47l-123 -407h211q14 -33 14 -62q0 -51 -58.5 -84t-172.5 -33h-50l-53 -178q-61 -205 -229 -204q-47 0 -69.5 18t-45.5 61q66 29 98 119l56 184h-346l-54 -178q-61 -205 -229 -204q-47 0 -69.5 18t-45.5 61q70 29 97 119l55 184h-195q-16 33 -16 64zM637 541h344 l123 407h-344z" />
<glyph unicode="$" horiz-adv-x="1370" d="M152 319q0 78 51 125.5t129 47.5t139 -58q-49 -49 -49 -116.5t79 -116.5t215 -49t223 61t87 151.5t-87 157t-210 118.5t-247 109.5t-211 148.5t-87 210q0 158 118 263.5t300 133.5v99q0 88 -63 118q66 80 157 80q170 0 170 -205v-90q176 -25 279.5 -104.5t103.5 -185.5 q0 -68 -41 -109t-111.5 -41t-129.5 39q14 35 14 74q0 63 -67.5 113t-189.5 50t-198.5 -48t-76.5 -128t87 -144.5t209.5 -117.5t246.5 -113.5t211 -155.5t87 -216q0 -174 -139 -293t-348 -143v-93q0 -90 59 -118q-59 -80 -157 -80q-166 0 -166 205v98q-174 31 -280.5 118 t-106.5 205z" />
<glyph unicode="%" horiz-adv-x="1863" d="M139 1069q0 170 100.5 306t255 136t241.5 -113.5t87 -283.5t-106.5 -305t-259 -135t-235.5 112.5t-83 282.5zM315 45q39 23 93 100l890 1262q78 104 146.5 104t107.5 -63q-27 -10 -92 -100l-895 -1260q-78 -111 -145.5 -111t-104.5 68zM346 1099.5q0 -102.5 36 -178 t92 -75.5t94 65.5t38 170t-34.5 180t-93 75.5t-95.5 -67.5t-37 -170zM1040 375q0 170 100.5 307t255 137t241.5 -114.5t87 -283.5t-106.5 -305t-259 -136t-235.5 112.5t-83 282.5zM1247 405.5q0 -102.5 36 -177t92.5 -74.5t94 64.5t37.5 169t-34.5 179t-93 74.5t-95.5 -66.5 t-37 -169z" />
<glyph unicode="&#x26;" horiz-adv-x="1556" d="M133 416q0 219 225 346q-88 39 -135 122t-47 191q0 188 132 313t282.5 125t244 -61t93.5 -144t-72 -126q-41 -25 -85 -25t-85 12q-6 195 -147 195q-66 0 -110 -50t-44 -144.5t77 -158t208 -63.5q27 -33 26.5 -70.5t-15.5 -67.5t-60.5 -53.5t-108.5 -23.5h-25 q-115 -90 -114.5 -225t105 -212t265 -77t272 80t111.5 209q0 98 -51 152.5t-149 54.5q-23 33 -23 61.5t12 50.5q29 55 132 56q156 0 202 57q35 41 35 88t-6 80q66 27 118 27t93 -25q82 -51 82 -154.5t-83 -164t-251 -60.5h-8q55 -106 55 -223q0 -221 -167 -374.5 t-419 -153.5t-408.5 120.5t-156.5 315.5z" />
<glyph unicode="'" horiz-adv-x="505" d="M121 1628.5q0 112.5 34.5 167.5t96.5 55q133 1 133 -202q0 -137 -44 -284.5t-87 -147.5t-88 149.5t-45 262z" />
<glyph unicode="(" horiz-adv-x="1024" d="M209 638q0 241 72.5 477.5t177 398t213 262t185.5 100.5t99 -49q-469 -504 -469 -1186t469 -1186q-25 -51 -100.5 -51t-184 99.5t-212 259t-177 397t-73.5 478.5z" />
<glyph unicode=")" horiz-adv-x="1024" d="M100 -545q182 199 314 455q158 309 157.5 731t-157.5 731q-131 256 -314 455q23 49 101 49t186.5 -100.5t211.5 -262t176 -398t73 -477.5t-74 -478.5t-177 -397t-210.5 -259t-184.5 -99.5t-102 51z" />
<glyph unicode="*" horiz-adv-x="1257" d="M172 1549.5q0 64.5 40 98t92 33.5t126 -43t133 -100q-63 139 -63 218t32.5 122t95 43t97.5 -43t35 -124t-72 -224q166 152 270 151q53 0 90 -34.5t37 -100t-73 -104.5q-123 -68 -279 -29q90 -47 159 -115.5t69 -125t-42 -95.5t-92 -39q-80 0 -131 93.5t-69 211.5 q-18 -121 -69.5 -214t-133.5 -93q-51 0 -89 43t-38 97.5t68.5 122t156.5 114.5q-162 -31 -276 33q-74 39 -74 103.5z" />
<glyph unicode="+" horiz-adv-x="1452" d="M121 793q0 160 221 159q90 0 279 -6q-10 209 -11 277q0 215 164 215q18 0 62 -13l-9 -479l492 6q10 -27 10 -51q0 -170 -225 -170q-25 0 -277 8q8 -184 9 -278q0 -225 -170 -225q-35 0 -50 10l9 493l-492 -8q-12 25 -12 62z" />
<glyph unicode="," horiz-adv-x="661" d="M162 145q16 61 64 104.5t125 43.5t134.5 -77t57.5 -198q0 -170 -101.5 -304t-205.5 -134q-55 0 -70 58q137 104 137 270t-141 237z" />
<glyph unicode="-" horiz-adv-x="1138" d="M123 659q0 164 244 164h639q10 -20 10 -53q0 -172 -244 -172h-635q-14 29 -14 61z" />
<glyph unicode="." horiz-adv-x="780" d="M219 136.5q0 70.5 61.5 131t132 60.5t110.5 -41t40 -111t-61.5 -131t-132 -61t-110.5 41t-40 111.5z" />
<glyph unicode="/" horiz-adv-x="1239" d="M45 -256q33 29 68 131l712 2046q56 158 154 158q59 0 104 -37q-33 -25 -67 -127l-713 -2050q-53 -160 -156 -160q-57 0 -102 39z" />
<glyph unicode="0" horiz-adv-x="1382" d="M106 748.5q0 338.5 153 550.5t431.5 212t432 -212t153.5 -549.5t-154.5 -553.5t-431 -216t-430.5 215t-154 553.5zM379 807q0 -309 100 -492q88 -156 238.5 -155.5t224.5 168.5q61 141 62 356q-1 316 -101 492q-88 158 -238.5 157.5t-222.5 -168.5q-63 -143 -63 -358z " />
<glyph unicode="1" horiz-adv-x="774" d="M55 1317q0 66 90.5 130t197 64t156.5 -55t50 -151v-1127q0 -90 61 -119q-63 -80 -157 -79q-168 0 -168 204v1053q0 68 -61.5 68t-129.5 -48q-39 16 -39 60z" />
<glyph unicode="2" horiz-adv-x="1189" d="M71.5 140q0.5 42 8.5 75q154 111 261.5 200t211.5 199q215 225 215 453q0 135 -59.5 207t-145.5 72t-135 -46.5t-49 -111.5q0 -94 96 -133q-57 -92 -182 -92q-82 0 -143.5 53t-61.5 143q0 150 144.5 251t352.5 101t340 -127t132 -332.5t-184.5 -427t-534.5 -411.5l493 27 q172 8 244 63q51 -55 51 -125q0 -178 -288 -178h-582q-102 0 -152 57q-33 41 -32.5 83z" />
<glyph unicode="3" horiz-adv-x="1165" d="M82 272q0 80 52 123t99 47q45 -131 147.5 -203.5t217.5 -72.5t181.5 61.5t66.5 151.5q0 129 -112.5 224t-289.5 95q-53 0 -100 -10q-27 20 -27 61.5t66 85.5t145.5 77.5t145 97t65.5 139.5t-60.5 121t-150.5 45q-156 0 -292 -107q-53 14 -53.5 85t128.5 144.5t295 73.5 t277.5 -87t111.5 -232q0 -106 -76.5 -192.5t-195.5 -122.5q143 -27 239.5 -140.5t96.5 -275.5q0 -209 -166 -345t-385 -136q-160 0 -293 79.5t-133 212.5z" />
<glyph unicode="4" horiz-adv-x="1288" d="M102 487q0 147 132.5 393t315.5 438.5t306 192.5q137 0 137 -200v-766h74q102 0 145 37q31 -35 31 -92.5t-55.5 -96.5t-145.5 -39h-49v-176q0 -88 60 -119q-59 -80 -156 -79q-168 0 -168 204v170h-463q-164 0 -164 133zM307 592q0 -27 15.5 -37t54.5 -10h352v633 q0 37 -24 36q-39 0 -135.5 -120.5t-179.5 -273t-83 -228.5z" />
<glyph unicode="5" horiz-adv-x="1169" d="M117 264q0 80 56 125t114 45q41 -115 129 -177t197.5 -62t179 64.5t69.5 166.5q0 145 -113.5 229t-251 84t-239.5 -41q-39 0 -65.5 28t-26.5 74t98 519q37 174 287 174h233q106 0 158 41q39 -43 39 -104q0 -176 -279 -177h-274l-78 -360q132 68 275 68q182 0 312 -128 t130 -332t-156.5 -362.5t-388.5 -158.5q-160 0 -282.5 78.5t-122.5 205.5z" />
<glyph unicode="6" horiz-adv-x="1280" d="M125 645q0 221 95 420t267 322.5t375 123.5q49 0 87 -23.5t38 -66.5q0 -14 -2 -18q-258 -27 -422 -223.5t-164 -501.5q0 -250 93.5 -391.5t234.5 -141.5q90 0 151.5 62.5t61.5 167.5q0 143 -108.5 248.5t-294.5 107.5q2 82 63.5 134.5t151.5 52.5q190 0 307 -134.5 t117 -302.5q0 -229 -143.5 -365t-356.5 -136q-258 0 -404.5 190t-146.5 475z" />
<glyph unicode="7" horiz-adv-x="1042" d="M41 1309q0 184 268 184h654q18 -23 18 -74t-49 -144t-118 -207t-138.5 -238.5t-118.5 -271t-49 -279t106 -173.5q-6 -49 -57 -87.5t-108 -38.5q-96 0 -153.5 69.5t-57.5 174t61 253t132 264t178.5 284.5t148.5 239q-53 -12 -144 -13h-372q-102 0 -158 -49q-43 39 -43 107 z" />
<glyph unicode="8" horiz-adv-x="1275" d="M123 412q0 123 64.5 217t160.5 151q-188 141 -188 332q0 160 131 279.5t338 119.5q113 0 221 -46t186 -143t78 -222q0 -219 -201 -346q240 -158 240 -353.5t-153.5 -308t-347 -112.5t-361.5 117.5t-168 314.5zM365 460q0 -136 88 -233.5t237 -97.5q86 0 154.5 52 t68.5 141q0 111 -102 186q-96 70 -200.5 123t-145.5 76q-100 -111 -100 -247zM387 1178q0 -143 213 -256q123 -66 197 -103q76 106 75.5 231.5t-80 222.5t-202.5 97q-82 0 -142.5 -52t-60.5 -140z" />
<glyph unicode="9" horiz-adv-x="1245" d="M86 1018q0 225 140.5 359t351.5 134q260 0 409.5 -190t149.5 -477q0 -215 -90.5 -413t-258 -324.5t-368.5 -126.5q-51 0 -89 23.5t-38 66.5q0 14 2 20q254 27 412.5 222.5t158.5 488.5q0 248 -95 396.5t-241 148.5q-88 0 -149.5 -59.5t-61.5 -160.5q0 -150 115 -257 t299 -107q-2 -84 -62.5 -135.5t-150.5 -51.5q-197 0 -315.5 138.5t-118.5 304.5z" />
<glyph unicode=":" horiz-adv-x="751" d="M207 140.5q0 68.5 61.5 130t132 61.5t110.5 -41t40 -110.5t-60.5 -131t-131 -61.5t-111.5 42t-41 110.5zM207 901q0 70 61.5 131.5t132 61.5t110.5 -41t40 -112t-60.5 -131t-131 -60t-111.5 40.5t-41 110.5z" />
<glyph unicode=";" horiz-adv-x="751" d="M184 176q16 61 64.5 105.5t113.5 44.5q96 0 146.5 -76t50.5 -184q0 -162 -97 -324t-204 -162q-55 0 -70 58q138 104 138 292q0 82 -36 147.5t-106 98.5zM207 901q0 70 61.5 131.5t132 61.5t110.5 -41t40 -112t-60.5 -131t-131 -60t-111.5 40.5t-41 110.5z" />
<glyph unicode="&#x3c;" horiz-adv-x="1490" d="M115 838q0 86 227 228t474 246.5t305.5 104.5t96 -26.5t37.5 -79.5q-203 -74 -514 -217.5t-311 -196.5q0 -45 307 -187.5t523 -209.5q0 -96 -49.5 -151.5t-133.5 -55.5t-316.5 98t-439 232.5t-206.5 214.5z" />
<glyph unicode="=" horiz-adv-x="1525" d="M150 516q-1 164 241 164h975q8 -16 8 -51q0 -174 -241 -174h-971q-12 43 -12 61zM150 1059q-1 166 241 166h975q8 -16 8 -54q0 -174 -241 -174h-971q-12 43 -12 62z" />
<glyph unicode="&#x3e;" horiz-adv-x="1445" d="M182 500q215 68 522.5 210t307.5 187q0 53 -312.5 196.5t-515.5 217.5q0 53 39 79.5t97.5 26.5t304 -104.5t473 -246.5t227.5 -228q0 -80 -207 -214.5t-439.5 -232.5t-315 -98t-132 55t-49.5 152z" />
<glyph unicode="?" horiz-adv-x="1159" d="M127 1264q0 141 137 232t324.5 91t313.5 -93t126 -237q0 -158 -125 -290q-51 -53 -103 -101.5t-89 -102.5t-37 -101.5t28.5 -80t77.5 -42.5q-4 -49 -45 -82t-110.5 -33t-127 55.5t-57.5 135t33 143t79 114t93 103.5q113 123 113 274q0 84 -55.5 142.5t-139.5 58.5 t-128 -37t-44 -96.5t33 -102.5t84 -61q-2 -29 -54.5 -67.5t-132 -38.5t-137 61t-57.5 156zM434 117.5q0 62.5 61.5 117t131 54.5t109.5 -36t40 -99.5t-60.5 -118.5t-131 -55t-110.5 37.5t-40 100z" />
<glyph unicode="@" horiz-adv-x="1894" d="M123 494q0 387 261 644t660 257q319 0 511 -189.5t192 -459t-143.5 -426t-337.5 -156.5q-166 0 -199 125q-117 -123 -301 -123q-125 0 -193.5 54t-68.5 145q0 143 153.5 223t423.5 86l9 139v16q0 131 -121 132q-57 0 -92 -27t-38 -66t23 -71q-61 -47 -137 -47 t-111.5 31.5t-35.5 80.5q0 98 123.5 157.5t286.5 59.5t252 -68.5t89 -199.5v-25l-22 -409v-12q0 -70 61 -70q92 0 172 108q84 117 84 324q0 252 -158.5 404.5t-429.5 152.5q-367 0 -578.5 -222t-211.5 -568q0 -281 156.5 -422.5t420.5 -141.5q221 0 418 84q14 -16 14 -32 q0 -37 -73 -78q-150 -84 -394 -84q-285 0 -475 174t-190 500zM768 399q0 -88 107.5 -88t189.5 86l10 178q-307 -16 -307 -176z" />
<glyph unicode="A" horiz-adv-x="1439" d="M63 70q53 23 97 133l442 1132q-29 70 -67 101q55 76 147 76h1q93 0 133 -46.5t81 -160.5l385 -1076q45 -121 119 -157q-47 -92 -176 -92q-72 0 -115 34.5t-78 124.5l-61 170h-510l-66 -174q-55 -155 -171 -155h-1q-53 0 -98 25.5t-62 64.5zM522 479h385l-180 600z" />
<glyph unicode="B" horiz-adv-x="1540" d="M162 1419q264 92 556 92t440.5 -115.5t148.5 -295.5q0 -117 -73 -197t-202 -110q156 -33 264.5 -129.5t108.5 -253.5q0 -190 -176 -310t-468 -120t-423 79.5t-131 253.5l2 922q0 113 -47 184zM473 297q0 -131 285 -131q176 0 273 68.5t97 183t-97 184.5t-273 70h-283z M475 850h258h8q135 0 213 65.5t78 172t-81 172t-225 65.5t-251 -29v-446z" />
<glyph unicode="C" horiz-adv-x="1464" d="M129 729q0 352 196.5 567t516.5 215q199 0 339 -81.5t140 -198.5q0 -76 -52 -114t-128 -38t-129 31q4 27 4 51q0 76 -46 132.5t-161 56.5q-162 0 -280.5 -156t-118.5 -434.5t119.5 -410.5t328.5 -132q123 0 232.5 55.5t175.5 130.5q27 -6 43 -38.5t16 -65.5 q0 -106 -158.5 -212.5t-378.5 -106.5q-303 0 -481 198.5t-178 550.5z" />
<glyph unicode="D" horiz-adv-x="1581" d="M162 1419q264 92 526 92q342 0 564.5 -199.5t222.5 -568.5q0 -246 -107 -421q-209 -342 -680 -342q-260 0 -370.5 77.5t-110.5 247.5l2 930q0 113 -47 184zM473 291q0 -66 43 -96.5t172 -30.5q227 0 368.5 154.5t141.5 426t-141.5 427t-368.5 155.5q-102 0 -213 -35z" />
<glyph unicode="E" horiz-adv-x="1406" d="M172 1409q68 84 178 84h670q264 0 264 -145q0 -74 -63 -115q-84 43 -226 43h-495v-381h340q145 0 204.5 -27.5t59.5 -100.5t-60 -114q-66 27 -225 27h-319v-322q0 -76 31.5 -109.5t101.5 -33.5h362q135 0 226 84q63 -43 63 -124t-61.5 -128t-186.5 -47h-438 q-186 0 -274 78t-88 252v960q0 88 -64 119z" />
<glyph unicode="F" horiz-adv-x="1323" d="M172 1409q67 84 178 84h686q248 0 248 -129q0 -74 -63 -115q-84 43 -226 43h-495v-418h340q145 0 204.5 -24t59.5 -86t-60 -100q-65 22 -212 22h-13h-319v-508q0 -90 59 -119q-58 -79 -154 -79h-2q-168 0 -167 204v1106q0 88 -64 119z" />
<glyph unicode="G" horiz-adv-x="1560" d="M129 684q0 367 213 597t584 230q211 0 351 -85t140 -203q0 -63 -55 -105.5t-127 -42.5t-127 33q2 16 2 33q0 86 -59.5 147.5t-180.5 61.5q-209 0 -332.5 -167t-123.5 -435.5t111.5 -414t310.5 -145.5q252 0 307 230v176h-86q-104 0 -215 -6q-31 45 -31 103.5t71.5 83 t242.5 24.5t226.5 -45t55.5 -156l-2 -612q0 -88 61 -119q-63 -80 -157 -80q-168 0 -168 205v155q-128 -167 -372 -167h-3q-244 0 -434 174q-90 84 -146.5 222t-56.5 308z" />
<glyph unicode="H" horiz-adv-x="1662" d="M154 1432q58 79 153 79h2q170 0 170 -202v-465h705v471q0 90 -62 117q58 79 154 79h2h2q168 0 168 -202v-1131q0 -88 59 -119q-58 -79 -153 -79h-2q-168 0 -168 204v482h-705v-488q0 -90 62 -119q-62 -79 -156 -79h-2q-168 0 -168 204v1131q0 90 -61 117z" />
<glyph unicode="I" horiz-adv-x="696" d="M154 1432q58 79 153 79h2h2q168 0 168 -202v-1131q0 -90 62 -119q-62 -79 -156 -79h-2q-168 0 -168 204v1131q0 90 -61 117z" />
<glyph unicode="J" horiz-adv-x="903" d="M45 167q0 73 41 114q106 -88 233 -88q80 0 126.5 40.5t46.5 120.5v961q0 90 -62 117q62 79 156 79h2h2q166 0 166 -202v-944q0 -188 -106.5 -286.5t-267.5 -98.5t-249 57t-88 130z" />
<glyph unicode="K" horiz-adv-x="1476" d="M154 1432q58 79 153 79h2q170 0 170 -202v-459l449 500q82 92 137 126.5t127 34.5t121 -50t57 -124q-78 0 -158 -73l-507 -484l495 -518q90 -96 186 -98q-6 -80 -59 -132t-122.5 -52t-130 44t-163.5 156l-432 463v-465q0 -90 62 -119q-62 -79 -156 -79h-2 q-168 0 -168 204v1131q0 90 -61 117z" />
<glyph unicode="L" horiz-adv-x="1196" d="M158 1432q58 79 155 79h2q170 0 170 -202v-967q0 -76 32 -109.5t101 -33.5h261q133 0 198 82q53 -27 53 -102t-61 -127t-180 -52h-322q-188 0 -268 69.5t-80 243.5v1002q0 90 -61 117z" />
<glyph unicode="M" horiz-adv-x="1976" d="M98 45q49 45 56 143l84 1104v25q0 80 -37 129q114 66 243 66h2q130 0 190 -66t103 -215l254 -752l256 744q49 168 125 228t190.5 60t200.5 -41q-32 -50 -32 -130v-31l71 -1114q4 -126 37 -177q-65 -33 -137 -33q0 1 -2 1q-74 0 -116 40t-50 142l-66 1069l-397 -1151 q-27 -78 -110 -78q-47 0 -68 19.5t-33 60.5l-403 1151l-66 -1065q-6 -100 -38.5 -147t-111.5 -47t-145 65z" />
<glyph unicode="N" horiz-adv-x="1685" d="M162 1432q62 79 177 79h3q154 0 256 -163l616 -1004v971q0 90 -61 117q58 79 156 79h2q170 0 170 -202v-1131q0 -92 41 -139q-53 -59 -152.5 -59t-176.5 60t-165 202l-539 870v-934q0 -88 60 -119q-62 -79 -154 -79h-2h-2q-168 0 -168 204v1131q0 90 -61 117z" />
<glyph unicode="O" horiz-adv-x="1605" d="M139 746.5q0 343.5 172 554t497 210.5t491.5 -208.5t166.5 -555t-168 -557t-492.5 -210.5t-495.5 211.5t-171 555zM410 821q0 -328 131 -510q112 -157 300.5 -157t280.5 168q76 139 76 348q0 328 -133 512q-111 158 -299 158h-2q-190 0 -279 -169q-75 -137 -75 -345v-5z " />
<glyph unicode="P" horiz-adv-x="1284" d="M117 1409q67 84 180 84h362h9q238 0 402.5 -124t164.5 -350t-165 -350t-411 -124h-215v-367q0 -90 62 -119q-62 -79 -156 -79h-2q-168 0 -168 204v1106q0 88 -63 119zM444 711h174q152 0 234 84t82 223t-82 223t-234 84h-174v-614z" />
<glyph unicode="Q" horiz-adv-x="1675" d="M156 758q0 322 198.5 537.5t495.5 215.5t479 -181t182 -494.5t-184 -540.5t-510 -313q180 -150 447 -150q133 0 231 74q43 -47 43 -113q0 -74 -43 -125q-86 -102 -248 -102t-313.5 77.5t-238.5 178t-87 176.5q0 31 28 52.5t114 55.5q231 92 357 268.5t126 417t-123 391 t-302 150.5t-280.5 -135t-101.5 -351t95 -330t253 -124q-20 -72 -73.5 -122t-129.5 -50q-162 0 -288.5 153.5t-126.5 383.5z" />
<glyph unicode="R" horiz-adv-x="1349" d="M117 1409q68 84 180 84h334q244 0 409.5 -121t165.5 -336q0 -156 -90 -262t-242 -156l275 -389q68 -94 158 -125q-62 -124 -179 -124q-82 0 -137 36.5t-125 143.5l-276 422h-146v-404q0 -90 62 -119q-62 -79 -156 -79h-2q-168 0 -168 204v1106q0 88 -63 119zM444 774h174 q154 0 235 68.5t81 193.5t-81 193.5t-235 68.5h-174v-524z" />
<glyph unicode="S" horiz-adv-x="1392" d="M152 319q0 78 51 125.5t129 47.5t139 -58q-49 -49 -49 -116.5t79 -116.5t215 -49t223 61t87 151.5t-87 157t-210 118.5t-247 109.5t-211 148.5t-87 210q0 184 159 296t388.5 112t373.5 -85t144 -214q0 -68 -41 -109t-111.5 -41t-129.5 39q14 35 14 74q0 63 -67.5 113 t-189.5 50t-198.5 -48t-76.5 -128t87 -144.5t209.5 -117.5t246.5 -113.5t211 -155.5t87 -216q0 -193 -169 -316.5t-407.5 -123.5t-400 95t-161.5 244z" />
<glyph unicode="T" horiz-adv-x="1251" d="M41 1423q0 53 45 103q70 -33 201 -33h757q166 0 166 -133q0 -51 -43 -103q-72 35 -202 35h-207v-1114q0 -90 61 -119q-62 -79 -155 -79h-2q-168 0 -168 204v1108h-287q-166 0 -166 131z" />
<glyph unicode="U" horiz-adv-x="1509" d="M135 1432q62 79 154 79h2q172 0 172 -202v-811q0 -154 85 -234t238.5 -80t238.5 79t85 235v817q0 90 -63 117q62 79 155 79h2q170 0 170 -202v-774q0 -260 -144.5 -407.5t-442.5 -147.5t-443 147.5t-145 407.5v780q0 90 -64 117z" />
<glyph unicode="V" horiz-adv-x="1427" d="M12 1425q80 86 178 86q68 0 114 -42t83 -148l358 -1067l355 985q31 94 31 146.5t-35 87.5q69 41 143 41h1q74 0 116.5 -40t42.5 -105.5t-29 -131.5l-424 -1051q-51 -125 -93 -165.5t-132 -40.5t-127 40.5t-82 165.5l-403 1108q-35 100 -97 131z" />
<glyph unicode="W" horiz-adv-x="2088" d="M25 1430q68 82 156 82h1q90 0 138.5 -46.5t70.5 -162.5l223 -1045l291 1094q25 88 70 123.5t121 35.5q154 0 192 -159l266 -1102l232 1026q8 39 8 72q0 78 -45 114q63 49 143 49q156 0 156 -157q0 -45 -12 -94l-279 -1067q-47 -213 -218 -213t-216 213l-246 933 l-252 -933q-27 -117 -80 -165t-143 -48t-140 47t-75 166l-270 1083q-33 121 -92 154z" />
<glyph unicode="X" horiz-adv-x="1345" d="M31 1354q16 74 65 115.5t116 41.5t114 -30.5t96 -106.5l293 -452l260 364q43 57 43 103.5t-45 80.5q76 43 155.5 43t123.5 -39.5t44 -114.5t-73 -167l-371 -481l293 -455q78 -117 172 -121q-19 -72 -67 -113.5t-114.5 -41.5t-112.5 29.5t-97 107.5l-258 397l-285 -405 q-92 -129 -203 -129q-63 0 -106 45q-41 43 -41 118v7q78 0 129 71l370 506l-329 508q-78 119 -172 119z" />
<glyph unicode="Y" horiz-adv-x="1296" d="M20 1372q43 139 177 139q66 0 114.5 -42t96.5 -121l266 -453l268 377q47 57 47 107.5t-41 93.5q81 39 153 39h2q73 -1 118 -37.5t45 -102t-60 -147.5l-422 -570l-2 -487q0 -93 37 -150q-65 -33 -138 -33q-1 0 -3 1q-74 0 -116 52t-42 157l2 456l-377 637q-51 78 -125 84z " />
<glyph unicode="Z" horiz-adv-x="1335" d="M78 220.5q0 101.5 119 217.5l792 846q-293 -47 -590 -47t-297 170q0 63 45 115q86 -29 250 -29h582q113 0 187.5 -59.5t74.5 -159.5t-121 -221l-790 -848l633 37q152 10 235 57q47 -53 47 -127q0 -172 -305 -172h-600q-115 0 -188.5 59.5t-73.5 161z" />
<glyph unicode="[" horiz-adv-x="878" d="M111 -123v2116h477q190 0 190 -133q0 -31 -10 -45h-393v-2020h213q190 0 190 -131q0 -31 -10 -47h-406q-174 0 -225 113q-27 57 -26 147z" />
<glyph unicode="\" horiz-adv-x="1239" d="M143 2052q46 37 105 37q100 0 153 -160q135 -377 377 -1077t336 -967q35 -102 68 -131q-45 -39 -103 -39q-102 0 -155 160q-80 223 -277.5 798.5t-435.5 1251.5q-35 102 -68 127z" />
<glyph unicode="]" horiz-adv-x="878" d="M115 -252q0 6 8 47h395v2020h-213q-190 0 -190 131q0 6 8 47h407q127 0 187 -56q25 -25 45 -78t20 -126v-2116h-477q-190 0 -190 131z" />
<glyph unicode="^" horiz-adv-x="1376" d="M156 633q0 72 51 160l315 563q68 117 152 117q43 0 72.5 -29t60.5 -94l414 -844q-54 -45 -109 -45q-96 0 -178 172l-258 536l-359 -686q-63 0 -112 39t-49 111z" />
<glyph unicode="_" horiz-adv-x="1234" d="M-2 -315q0 165 244 165h985q8 -25 8 -53q0 -172 -242 -172h-981q-14 29 -14 60z" />
<glyph unicode="`" horiz-adv-x="532" d="M25 1210l137 220q53 88 101 125.5t120 37.5t109 -63q16 -33 16 -69t-16 -75q-20 6 -55.5 6.5t-86.5 -40.5l-176 -152q-37 -35 -78 -35q-49 0 -71 45z" />
<glyph unicode="a" d="M92 244q0 154 160 248t455 98v168q0 178 -142 178q-63 0 -100 -33t-37 -81t31 -81q-63 -59 -147.5 -59t-127.5 41t-43 106q0 106 129 178t306.5 72t286 -87t108.5 -265v-496q0 -121 106 -147q-68 -104 -192 -104q-145 0 -172 145q-123 -145 -318 -145q-135 0 -219 69.5 t-84 194.5zM379 272q0 -116 131 -116h2q111 0 195 102v217q-172 -10 -250 -65.5t-78 -137.5z" />
<glyph unicode="b" horiz-adv-x="1220" d="M104 1509q63 78 160 78q168 0 168 -205v-446q109 143 293 143t310 -136t126 -392t-158.5 -413.5t-404.5 -157.5q-432 0 -432 344l2 1065q0 88 -64 120zM430 324q0 -184 180 -185q129 0 207 108.5t78 281.5t-71.5 267.5t-172.5 94.5q-147 0 -221 -154v-413z" />
<glyph unicode="c" horiz-adv-x="1046" d="M100 491.5q0 241.5 155 414.5t388 173q135 0 228.5 -62.5t93.5 -162.5q0 -66 -41 -102.5t-103.5 -36.5t-111.5 35q6 25 6 65.5t-29 73.5t-84 33q-98 0 -172 -111t-74 -285t79 -264t200 -90q172 0 285 121q39 -18 38 -76q0 -90 -109.5 -163.5t-258.5 -73.5 q-223 0 -356.5 135t-133.5 376.5z" />
<glyph unicode="d" horiz-adv-x="1208" d="M76 504q0 246 145.5 410.5t376.5 164.5q102 0 186 -30v340q0 88 -63 120q63 78 158 78q170 0 170 -205v-1204q0 -88 61 -119q-62 -79 -156 -79h-2q-133 0 -159 124q-96 -125 -274 -125l-1 1q-180 0 -311 139t-131 385zM350 525.5q0 -185.5 65.5 -277.5t178.5 -92 q137 0 190 129v571q-63 68 -170.5 68t-185.5 -106.5t-78 -292z" />
<glyph unicode="e" horiz-adv-x="1058" d="M100 491.5q0 245.5 148.5 416.5t363.5 171q166 0 273.5 -109.5t107.5 -250.5q0 -106 -53 -154.5t-178 -50.5l-395 -12q8 -332 282 -332q168 0 283 121q39 -20 39 -74q0 -86 -109.5 -161.5t-259.5 -75.5q-231 0 -366.5 133t-135.5 378.5zM373 633l276 26q41 5 59.5 25.5 t18.5 81.5t-39 112.5t-109.5 51.5t-129 -77t-76.5 -220z" />
<glyph unicode="f" horiz-adv-x="790" d="M39 -379q115 0 157 49t42 164v975q-178 10 -179 96q0 51 37 78q78 -4 137 -4h5v262q0 164 95 255t231 91t208 -55t72 -124t-51 -81q-72 80 -158 80q-133 0 -133 -166v-262h278q12 -14 13 -41q0 -53 -61.5 -92t-196.5 -39h-33v-1020q0 -162 -70 -242t-180 -80 q-160 0 -213 156z" />
<glyph unicode="g" horiz-adv-x="1150" d="M47 -274q0 72 49 112.5t119 44.5q4 -111 84 -165t251 -54t258 40t87 105.5t-96 65.5h-301q-154 0 -259.5 61.5t-105.5 191.5t156 206q-168 121 -168 320.5t128 312t308 112.5q135 0 244 -65q8 117 67.5 184.5t135 67.5t117.5 -43t42 -117t-57 -107q-45 35 -94 35 q-94 0 -121 -96q100 -111 100 -285t-128 -286.5t-306 -112.5q-82 0 -151 25q-64 -23 -64 -74q0 -49 41 -67q41 -17 135 -17h262q152 0 227.5 -69.5t75.5 -194.5q0 -170 -158.5 -279.5t-403.5 -109.5t-359.5 76.5t-114.5 181.5zM389 721q0 -25 2 -53q8 -148 57.5 -219.5 t122 -71.5t111.5 66.5t39 179.5q0 178 -53.5 256.5t-127 78.5t-112.5 -65.5t-39 -171.5z" />
<glyph unicode="h" horiz-adv-x="1269" d="M109 1509q59 78 155 78q170 0 170 -205v-530q53 106 151.5 166.5t228.5 60.5t213 -92t83 -270v-539q0 -88 61 -119q-62 -79 -155 -79h-2q-168 0 -168 204v500q0 180 -156 180q-80 0 -153.5 -69.5t-102.5 -194.5v-422q0 -88 62 -119q-62 -79 -156 -79h-2q-168 0 -168 204 v1205q0 86 -61 120z" />
<glyph unicode="i" horiz-adv-x="595" d="M109 1001q59 78 155 78q170 0 170 -205v-696q0 -88 62 -119q-62 -79 -156 -79h-2q-168 0 -168 204v697q0 90 -61 120zM117 1388.5q0 71.5 63.5 124t133 52.5t114.5 -42t45 -111t-58.5 -125t-132 -56t-119.5 43t-46 114.5z" />
<glyph unicode="j" horiz-adv-x="591" d="M-29 -379q115 0 157 49t42 164v1047q0 90 -61 120q59 78 155 78q170 0 170 -205v-1087q0 -162 -69.5 -242t-178.5 -80q-162 0 -215 156zM117 1388.5q0 71.5 63.5 124t133 52.5t114.5 -42t45 -111t-58.5 -125t-132 -56t-119.5 43t-46 114.5z" />
<glyph unicode="k" horiz-adv-x="1226" d="M109 1509q59 78 155 78q170 0 170 -205v-735q408 186 408 432q111 0 178 -47t67 -125q0 -109 -117.5 -191.5t-342.5 -154.5q266 -291 385 -336q55 -18 133 -18q0 -104 -50.5 -165.5t-147.5 -61.5t-207.5 108.5t-305.5 400.5v-311q0 -88 62 -119q-62 -79 -156 -79h-2 q-168 0 -168 204v1205q0 86 -61 120z" />
<glyph unicode="l" horiz-adv-x="604" d="M109 1509q59 78 155 78q170 0 170 -205v-1204q0 -88 62 -119q-62 -79 -156 -79h-2q-168 0 -168 204v1205q0 86 -61 120z" />
<glyph unicode="m" horiz-adv-x="1947" d="M109 1001q59 78 155 78q170 0 170 -205v-22q53 106 151.5 166.5t217.5 60.5q248 0 297 -250q51 117 152.5 183.5t234.5 66.5t216 -92t83 -270v-539q0 -90 61 -119q-58 -79 -155 -79h-2q-168 0 -168 204v500q0 180 -156 180q-80 0 -153.5 -69.5t-102.5 -194.5v-422 q0 -88 61 -119q-62 -79 -155 -79h-2q-168 0 -168 204v500q0 180 -156 180q-80 0 -153.5 -69.5t-102.5 -194.5v-422q0 -88 62 -119q-62 -79 -156 -79h-2q-168 0 -168 204v697q0 90 -61 120z" />
<glyph unicode="n" horiz-adv-x="1269" d="M109 1001q59 78 155 78q170 0 170 -205v-22q53 106 151.5 166.5t228.5 60.5t213 -92t83 -270v-539q0 -88 61 -119q-62 -79 -155 -79h-2q-168 0 -168 204v500q0 180 -156 180q-80 0 -153.5 -69.5t-102.5 -194.5v-422q0 -88 62 -119q-62 -79 -156 -79h-2q-168 0 -168 204 v697q0 90 -61 120z" />
<glyph unicode="o" horiz-adv-x="1222" d="M100 530.5q0 264.5 143.5 406.5t368 142t367.5 -143t143 -406.5t-143 -406.5t-366.5 -143t-368 143t-144.5 407.5zM367 596q0 -31 2 -66q23 -411 265 -411h1q219 0 219 340q0 33 -2 71q-22 410 -262 410q-223 0 -223 -344z" />
<glyph unicode="p" horiz-adv-x="1230" d="M109 1001q59 78 155 78q145 0 166 -145q111 145 295 145t310 -143t126 -403.5t-144.5 -406.5t-332.5 -146q-141 0 -250 90v-404q0 -88 62 -119q-63 -82 -158 -82q-168 0 -168 207v1209q0 90 -61 120zM434 260q82 -113 217 -113q98 0 171 105.5t73 276.5t-71.5 266.5 t-172.5 95.5q-143 0 -217 -148v-483z" />
<glyph unicode="q" horiz-adv-x="1177" d="M76 501.5q0 239.5 141 408.5t371 169q129 0 225 -86q45 86 170 86h66v-1413q0 -88 61 -119q-63 -82 -158 -82q-168 0 -168 207v410q-106 -102 -271 -102t-301 141t-136 380.5zM350 526.5q0 -184.5 66.5 -278.5t181.5 -94t186 110v469q0 90 -52 140.5t-124 50.5 q-111 0 -184.5 -106.5t-73.5 -291z" />
<glyph unicode="r" horiz-adv-x="954" d="M109 1001q59 78 155 78q170 0 170 -202q84 202 275 202h2q96 0 155.5 -53t59.5 -138t-43 -132t-123 -47q-14 0 -51 4q6 31 6 65.5t-29 63t-79 28.5t-100 -50t-73 -156v-486q0 -88 62 -119q-62 -79 -156 -79h-2h-2q-166 0 -166 204v697q0 90 -61 120z" />
<glyph unicode="s" horiz-adv-x="1058" d="M86 236q0 63 45 103t122 40t118 -55q-33 -33 -33 -83.5t48 -81t135 -30.5t139.5 36t52.5 90t-59.5 98t-144.5 81t-171 79t-145.5 107.5t-59.5 147.5q0 129 121 220t290 91t283.5 -62.5t114.5 -160.5q0 -57 -38 -91t-99.5 -34t-114.5 41q9 28 9 58v6q-1 34 -38.5 65 t-108.5 31t-113 -31t-42 -81t60.5 -94t145.5 -81t170 -79t145.5 -109.5t60.5 -151.5q0 -139 -131 -232t-320.5 -93t-314.5 69q-127 74 -127 187z" />
<glyph unicode="t" horiz-adv-x="860" d="M23 995q0 45 36 72q61 -8 107 -8h12v100q0 90 -63 121q63 78 155 78q172 0 172 -205v-94h322q12 -18 12 -39q0 -55 -70.5 -94t-242.5 -39h-21v-588q0 -70 26 -101.5t85 -31.5q121 0 217 102q23 -2 39 -22.5t16 -52.5q0 -80 -97 -146.5t-240.5 -66.5t-226.5 72.5 t-83 219.5v615q-80 2 -117.5 32.5t-37.5 75.5z" />
<glyph unicode="u" horiz-adv-x="1269" d="M109 1001q59 78 155 78q170 0 170 -205v-507q0 -180 180 -181q164 0 232 179v516q0 90 -62 120q63 78 156 78q170 0 170 -205v-696q0 -88 61 -119q-62 -79 -155 -79h-2q-158 0 -166 172q-109 -172 -309 -172q-174 0 -271.5 91t-97.5 271v539q0 90 -61 120z" />
<glyph unicode="v" horiz-adv-x="1134" d="M41 971q16 49 63.5 78.5t102.5 29.5q154 0 190 -176l178 -745l232 684q20 59 20 110.5t-26 91.5q59 35 131 35t113.5 -36.5t41.5 -93t-30 -134.5l-246 -622q-43 -115 -93 -161t-146.5 -46t-147.5 44t-88 163l-209 661q-31 92 -86 117z" />
<glyph unicode="w" horiz-adv-x="1748" d="M41 971q53 108 174 108h2q147 0 184 -196l144 -701l176 717q25 100 74 140t137 40t139 -40t72 -140l157 -715l150 690q10 53 10 100.5t-20 76.5q56 29 131 29h3q77 0 112 -68q18 -37 18 -79t-12 -87l-185 -651q-35 -119 -84 -167t-147 -48t-150.5 51t-76.5 164l-131 542 l-134 -542q-31 -117 -84 -166t-156.5 -49t-155.5 47t-83 168l-172 641q-27 111 -92 135z" />
<glyph unicode="x" horiz-adv-x="1097" d="M43 100q59 14 111 88l233 334l-246 348q-57 80 -98 88q8 55 51 88t103 33q113 0 198 -123l166 -235l162 250q67 108 182 108h2q55 0 99.5 -33.5t54.5 -84.5q-66 -18 -115 -91l-246 -350l240 -342q47 -68 102 -82q-12 -53 -57 -84.5t-106 -31.5q-109 0 -201 129l-150 213 l-143 -228q-73 -114 -188 -114h-2q-55 0 -98.5 33.5t-53.5 86.5z" />
<glyph unicode="y" horiz-adv-x="1200" d="M57 1006q70 74 152 74h1q83 -1 127 -47t73 -146l223 -750l254 733q20 51 20 96.5t-24 80.5q52 33 129 33h2q78 -1 125 -72q23 -34 23 -81q0 -49 -25 -112l-404 -1077q-102 -272 -305 -273q-86 0 -139 45.5t-53 110t34 109.5q47 -43 107 -43q98 0 141 120l60 173h-11 q-63 0 -118.5 49t-81.5 137l-230 696q-33 109 -80 144z" />
<glyph unicode="z" horiz-adv-x="1030" d="M102 184q0 82 93 168l522 518q-192 -31 -336 -31q-3 1 -5 1q-146 0 -201.5 42t-55.5 99t35 98q86 -20 200 -20h369q106 0 163.5 -51.5t57.5 -131t-92 -169.5l-522 -521l368 17q133 6 201 55q37 -39 37 -117q0 -141 -242 -141h-368q-106 0 -165 51t-59 133z" />
<glyph unicode="{" horiz-adv-x="1046" d="M205 800.5q0 20.5 25.5 44t55 45t55.5 78t26 138.5t-26 276.5t-26 286.5q0 199 93.5 299t218.5 100q45 0 96 -18t74 -51q-102 -18 -164 -93t-62 -194q0 -68 25 -291t25 -302t-30 -146.5t-71 -102.5q-72 -63 -117 -69q39 -4 119 -72q41 -33 70 -100.5t29 -146.5t-25 -306 t-25 -297q0 -117 61.5 -191.5t164.5 -95.5q-23 -31 -74 -50t-96 -19q-125 0 -218.5 102.5t-93.5 296.5q0 96 26 294t26 278.5t-26 138t-55.5 80t-55 45t-25.5 43z" />
<glyph unicode="|" horiz-adv-x="696" d="M154 1868q59 78 155 78q170 0 170 -203v-1966q0 -92 62 -121q-63 -78 -158 -78q-168 0 -168 205v1966q0 88 -61 119z" />
<glyph unicode="}" horiz-adv-x="1046" d="M205 -408q102 20 162.5 94t60.5 193q0 70 -23.5 297t-23.5 306t28.5 146.5t69.5 100.5q80 68 119 72q-45 6 -102 55q-115 100 -115 270q0 72 23.5 295.5t23.5 290.5q0 119 -60.5 193.5t-162.5 93.5q23 33 74 51t96 18q125 0 217 -100t92 -299q0 -92 -24.5 -286.5 t-24.5 -276.5t25.5 -138.5t55 -78t55.5 -45t26 -44t-26 -43t-55.5 -45t-55 -80t-25.5 -138t24.5 -278.5t24.5 -294q0 -197 -92 -298t-217 -101q-45 0 -96.5 19.5t-73.5 49.5z" />
<glyph unicode="~" horiz-adv-x="1419" d="M172 764q0 96 71.5 158.5t170 62.5t311.5 -66.5t283 -66.5q137 0 145 115q74 -33 74 -124t-71 -152.5t-177.5 -61.5t-317 64.5t-284.5 64.5q-121 0 -131 -113q-74 23 -74 119z" />
<glyph unicode="&#xa1;" horiz-adv-x="698" d="M176 -307q0 29 4 57l64 713q18 168 118 168q43 0 70 -31q-8 -47 -8 -106.5t10 -135.5l74 -608q6 -39 6 -95t-35 -110q-49 -76 -133 -75.5t-127 68t-43 155.5zM203 905.5q0 63.5 55 118.5t120.5 55t101.5 -36.5t36 -101t-56.5 -120t-120 -55.5t-100 38t-36.5 101.5z" />
<glyph unicode="&#xa2;" horiz-adv-x="1046" d="M100 492.5q0 191.5 103.5 347t271.5 213.5v114q0 90 -63 121q70 80 157 80q170 0 170 -207v-92q100 -18 163 -76.5t63 -131.5t-41 -109.5t-103.5 -36.5t-111.5 35q6 25 6 65.5t-29 73.5t-84 33q-98 0 -172 -111t-74 -285t79 -264t200 -90q172 0 285 121q39 -18 38.5 -84 t-79 -132.5t-195.5 -88.5v-97q0 -88 59 -118q-63 -80 -155 -80q-170 0 -170 205v106q-147 47 -232.5 172t-85.5 316.5z" />
<glyph unicode="&#xa3;" horiz-adv-x="1318" d="M80 733q0 113 166 113h110q-4 94 -4 176q0 219 148.5 354t347.5 135q156 0 238.5 -64.5t82.5 -144t-52 -127t-134 -53.5q-20 90 -72.5 153.5t-124.5 63.5q-145 0 -145 -247q0 -123 10 -246h350q8 -8 9 -35q0 -117 -168 -117h-187v-100q0 -88 -25.5 -178t-88.5 -131 q53 -6 216 -39t265 -33q147 0 231 74q25 -39 25 -92q0 -84 -72.5 -149.5t-196.5 -65.5t-326 37.5t-286 37.5q-160 0 -247 -73q-27 43 -27 101t50 115.5t136 77.5q57 70 57.5 218.5t-4.5 199.5h-274q-8 12 -8 39z" />
<glyph unicode="&#xa4;" horiz-adv-x="1404" d="M123 346l180 176q-61 104 -61 242.5t57 241.5l-176 172q23 86 106 92q14 4 31 4l137 -70l52 -51q111 61 255 61t254 -61l50 51q66 70 135 70q16 0 33 -4q84 -6 106 -92l-176 -172q57 -103 57 -240t-59 -244l178 -176q-23 -86 -106 -90q-16 -4 -35 -4q-66 0 -133 67 l-58 58q-102 -57 -245.5 -57.5t-249.5 57.5l-58 -58q-68 -68 -133 -67q-18 0 -35 4q-84 4 -106 90zM463 813q0 -23 2 -47q23 -311 260 -311q217 0 217 250q0 373 -262 372q-217 0 -217 -264z" />
<glyph unicode="&#xa5;" horiz-adv-x="1368" d="M20 1372q43 139 177 139q66 0 114.5 -42t96.5 -121l266 -453l268 377q47 57 47 107.5t-41 93.5q82 39 155 38.5t118 -37t45 -102t-60 -147.5l-309 -418h279q10 -14 10 -35q0 -117 -172 -117h-230v-157h392q10 -10 10 -35q0 -117 -172 -117h-232v-178q0 -92 37 -150 q-66 -33 -140.5 -32.5t-116.5 52.5t-42 157v151h-368q-8 12 -9 39q0 113 172 113h207v153l-2 4h-368q-8 12 -9 39q0 113 172 113h115l-285 481q-51 78 -125 84z" />
<glyph unicode="&#xa6;" horiz-adv-x="696" d="M156 596q59 80 155 80q170 0 170 -203v-500q0 -92 60 -120q-63 -78 -156 -78q-168 0 -168 205v499q0 90 -61 117zM156 1720q59 78 155 78q170 0 170 -203v-497q0 -90 60 -121q-63 -80 -156 -80q-168 0 -168 205v500q0 88 -61 118z" />
<glyph unicode="&#xa7;" horiz-adv-x="1392" d="M205 -520q0 82 53 128t134 46t128 -60q-41 -51 -41 -117.5t64.5 -115.5t184.5 -49t194.5 62.5t74.5 143.5t-78.5 142t-190.5 113.5t-223.5 114t-190 159.5t-78.5 232.5t79.5 220.5t190.5 86q55 0 108 -25q-141 -72 -141 -211q0 -160 268 -289q113 -53 225.5 -110 t191.5 -151.5t79 -219.5q0 -190 -153.5 -315t-369.5 -125t-362.5 95t-146.5 245zM236 1106q0 182 143 293.5t351 111.5t339 -85t131 -212q0 -70 -38 -110.5t-93 -40.5q-94 0 -143 41q12 45 12 72q0 63 -62.5 113t-170.5 50q-231 0 -232 -170q0 -66 79 -126t190.5 -115.5 t224 -117.5t191.5 -162.5t79 -232.5t-88 -217t-195 -85q-59 0 -108 24q152 70 151 221q0 88 -78.5 159t-190.5 123t-223.5 108.5t-190 147.5t-78.5 210z" />
<glyph unicode="&#xa8;" horiz-adv-x="720" d="M25 1339.5q0 59.5 53 111.5t112.5 52t94 -34.5t34.5 -95t-52 -113t-113.5 -52.5t-95 36t-33.5 95.5zM401 1339.5q0 59.5 53.5 111.5t114 52t94 -34.5t33.5 -95t-52 -113t-112.5 -52.5t-95.5 36t-35 95.5z" />
<glyph unicode="&#xa9;" horiz-adv-x="1779" d="M147 743.5q0 335.5 211 552.5t531.5 217t531.5 -217t211 -552.5t-211 -549.5t-531.5 -214t-531.5 214t-211 549.5zM260 744.5q0 -287.5 171 -479t457 -191.5t458 191.5t172 479t-171 481t-457 193.5t-458 -193.5t-172 -481zM463 722q0 210 136 367.5t341 157.5 q121 0 208 -58.5t87 -150.5q0 -57 -36 -90t-91 -33t-100 33q6 37 6 41q0 49 -29 83t-82 34q-92 0 -152.5 -102.5t-60.5 -255t70.5 -233.5t181.5 -81q152 0 256 121q35 -16 35 -68q0 -82 -100.5 -152.5t-237.5 -70.5q-199 0 -315.5 124t-116.5 334z" />
<glyph unicode="&#xaa;" d="M92 244q0 154 160 248t455 98v168q0 178 -142 178q-63 0 -100 -33t-37 -81t31 -81q-63 -59 -147.5 -59t-127.5 41t-43 106q0 106 129 178t306.5 72t286 -87t108.5 -265v-496q0 -121 106 -147q-68 -104 -192 -104q-145 0 -172 145q-123 -145 -318 -145q-135 0 -219 69.5 t-84 194.5zM379 272q0 -117 133 -116q111 0 195 102v217q-172 -10 -250 -65.5t-78 -137.5z" />
<glyph unicode="&#xab;" horiz-adv-x="1220" d="M106 827q0 74 90.5 199t202 220t164.5 95t72 -43q-150 -188 -207 -287.5t-57 -183.5t58 -184t206 -285q-18 -43 -66 -43q-92 0 -277.5 201t-185.5 311zM586 827q0 74 90 199t201.5 220t165 95t71.5 -43q-149 -190 -206.5 -288.5t-57.5 -181.5t58.5 -183t205.5 -287 q-18 -43 -65 -43q-92 0 -277.5 201t-185.5 311z" />
<glyph unicode="&#xac;" horiz-adv-x="1644" d="M106 872q0 133 195 134h944q117 0 165 -42.5t48 -138.5v-198q0 -90 62 -121q-59 -80 -158 -80q-166 0 -166 203v129q0 31 -15.5 42t-50.5 11h-1009q-14 29 -15 61z" />
<glyph unicode="&#xad;" horiz-adv-x="1138" d="M123 659q0 164 244 164h639q10 -20 10 -53q0 -172 -244 -172h-635q-14 29 -14 61z" />
<glyph unicode="&#xae;" horiz-adv-x="1388" d="M131 1114q0 252 159 409.5t404.5 157.5t404 -157.5t158.5 -409.5t-158.5 -408.5t-404 -156.5t-404.5 156.5t-159 408.5zM223 1114q0 -205 129 -345t342 -140t342 140t129 346t-128 345t-341 139t-343 -140t-130 -345zM442 1432q33 37 80 36h170q113 0 191 -56t78 -141 t-45.5 -135.5t-118.5 -68.5l127 -178q27 -39 69 -58q-26 -55 -96 -55t-123 82l-127 195h-41v-185q0 -39 29 -55q-33 -37 -82 -37q-84 0 -84 94v506q0 37 -27 56zM608 1145h66q139 0 139 114.5t-139 114.5h-66v-229z" />
<glyph unicode="&#xaf;" horiz-adv-x="815" d="M25 1305q0 36 37 63t100 27h614q14 -14 14.5 -52t-37.5 -65t-100 -27h-614q-14 18 -14 54z" />
<glyph unicode="&#xb0;" horiz-adv-x="1648" d="M147 1451q0 151 99.5 244t253 93t252 -93t98.5 -242.5t-98.5 -245t-252 -95.5t-253 94t-99.5 245zM338 1454q0 -76 44 -125t117.5 -49t118 48t44.5 124t-44.5 124t-118 48t-117.5 -47t-44 -123z" />
<glyph unicode="&#xb1;" horiz-adv-x="1478" d="M115 162q-1 164 241 164h998q10 -20 10 -54q0 -170 -242 -170h-993q-14 43 -14 60zM135 930q0 162 221 162l281 -9q-6 139 -10 220q0 215 164 215q29 0 61 -15l-8 -420l489 9q12 -25 13 -54q0 -168 -226 -168q-88 1 -276 7l8 -222q0 -225 -170 -225q-35 0 -49 10l8 437 l-491 -7q-14 25 -15 60z" />
<glyph unicode="&#xb2;" horiz-adv-x="843" d="M76 722q0 26 6 44q213 143 324.5 257t111.5 239q0 150 -129 149q-51 0 -78.5 -24.5t-27.5 -68.5t65 -71q-35 -55 -107.5 -55t-114.5 31.5t-42 85.5q0 86 94 146.5t228.5 60.5t221.5 -74t87 -185q0 -254 -461 -485q154 18 307 19q197 0 197 -103q0 -33 -31 -67 q-60 16 -166 16h-362q-68 0 -95.5 29.5t-27.5 55.5z" />
<glyph unicode="&#xb3;" horiz-adv-x="790" d="M74 799q0 47 33.5 81.5t60.5 37.5q59 -139 229 -140q66 0 107 31t41 89t-61.5 102t-178.5 44q-39 0 -67 -6q-16 10 -16.5 36t39.5 50.5t88 42t88 48t40 71.5t-40 66.5t-109.5 25.5t-145.5 -51q-37 10 -37 58.5t78 87t191.5 38.5t186.5 -50t73 -122.5t-53.5 -123 t-133.5 -70.5q98 -20 165 -86t67 -164t-116 -182t-238.5 -84t-206.5 48t-84 122z" />
<glyph unicode="&#xb4;" horiz-adv-x="542" d="M25 1446q0 35 16 65q35 68 106.5 68t119.5 -35t104 -121l149 -213q-23 -45 -66.5 -45t-84.5 33l-185 143q-49 37 -83.5 37t-57.5 -8q-18 41 -18 76z" />
<glyph unicode="&#xb5;" horiz-adv-x="1273" d="M109 1001q59 78 155 78q170 0 170 -205v-507q0 -180 180 -181q164 0 232 179v516q0 90 -62 120q63 78 156 78q170 0 170 -205v-696q0 -88 61 -119q-63 -80 -157 -79q-158 0 -166 172q-109 -172 -289 -172q-68 0 -125 26v-186q0 -90 62 -121q-66 -80 -158 -80 q-168 0 -168 205v1057q0 90 -61 120z" />
<glyph unicode="&#xb6;" horiz-adv-x="1425" d="M106 1029q0 204 109.5 334t302.5 130h647q-29 -104 -28 -270v-1223q-35 -10 -74 -10t-72 31.5t-33 101.5v1042q0 57 13 164h-113q-84 0 -84 -90v-1239q-31 -10 -70.5 -10t-72.5 31.5t-33 101.5v442h-80q-193 0 -302.5 130t-109.5 334z" />
<glyph unicode="&#xb7;" horiz-adv-x="829" d="M246 776.5q0 69.5 62.5 131t133 61.5t110.5 -41t40 -112t-61.5 -131t-132 -60t-111.5 41t-41 110.5z" />
<glyph unicode="&#xb8;" horiz-adv-x="747" d="M29 -354q0 45 39 69q86 -119 247.5 -118.5t161.5 94.5q0 88 -129 88h-39q-51 0 -51 37q0 16 10 39l68 180h174l-61 -166h12q111 0 178.5 -45t67.5 -136t-99.5 -154.5t-247 -63.5t-239.5 53t-92 123z" />
<glyph unicode="&#xb9;" horiz-adv-x="458" d="M41 1404q0 34 58.5 70.5t127.5 36.5q135 1 135 -118v-654q0 -55 39 -69q-41 -47 -102 -47q-109 0 -109 120v611q0 39 -38.5 39t-85.5 -29q-25 6 -25 40z" />
<glyph unicode="&#xba;" horiz-adv-x="829" d="M82 1193q0 153 94 235.5t239.5 82.5t237.5 -82.5t92 -235.5t-93 -236t-237.5 -83t-238.5 83t-94 236zM276 1233q0 -20 3 -41q16 -215 151 -215q123 0 123 172q0 20 -2 43q-17 219 -152 219q-123 0 -123 -178z" />
<glyph unicode="&#xbb;" horiz-adv-x="1220" d="M106 358q147 182 205 283.5t58 185.5t-57.5 184.5t-205.5 286.5q4 14 22.5 28.5t43.5 14.5q59 0 171 -95t202 -220t90 -199q0 -111 -185.5 -311.5t-277.5 -200.5q-25 0 -43 15.5t-23 27.5zM586 358q147 182 204.5 283.5t57.5 185.5t-57.5 184.5t-204.5 286.5 q4 14 22.5 28.5t42.5 14.5q59 0 171 -95t202 -220t90 -199q0 -111 -185.5 -311.5t-277.5 -200.5q-25 0 -43 15.5t-22 27.5z" />
<glyph unicode="&#xbc;" horiz-adv-x="1390" d="M65.5 1405q0.5 33 56.5 69.5t128 36.5q135 0 135 -118v-656q0 -53 41 -71q-41 -45 -102 -45q-113 -1 -113 118v613q0 39 -39 39t-80 -29q-27 10 -26.5 43zM154 25q16 14 47 65l827 1354q45 68 83 67.5t65 -38.5q-14 -6 -28.5 -34t-19.5 -34l-827 -1350q-2 -4 -7 -11 t-7 -11t-6.5 -10.5t-7.5 -9.5t-7 -8t-7 -7t-8 -6t-9 -4q-12 -4 -21 -4q-43 0 -67 41zM666 295q0 119 169 353.5t283 234.5q100 0 101 -117v-447h38q66 0 91 21q23 -23 22.5 -54.5t-32.5 -55t-85 -23.5h-34v-103q0 -55 41 -69q-43 -47 -105 -47q-115 0 -115 118v101h-256 q-119 0 -118 88zM813 346q0 -27 45 -27h182v345q0 20 -14 20q-33 0 -123 -136t-90 -202z" />
<glyph unicode="&#xbd;" horiz-adv-x="1544" d="M61 1405q0 33 56.5 69.5t128.5 36.5q135 0 135 -118v-656q0 -53 39 -71q-41 -45 -103 -45q-112 -1 -112 118v613q0 39 -39 39t-80 -29q-25 10 -25 43zM141 25q16 14 47 65l828 1354q37 68 79 67.5t68 -38.5q-14 -8 -47 -68l-827 -1350q-2 -4 -7.5 -11t-7.5 -11t-6 -10.5 t-7 -9.5t-7 -8t-7 -7t-8.5 -6t-9.5 -4q-12 -4 -20 -4q-43 0 -68 41zM801 84q0 25 6 45q215 145 325.5 258t110.5 236q0 76 -34.5 114.5t-90 38.5t-83 -25.5t-27.5 -69.5t65 -71q-39 -55 -109.5 -55t-112.5 31.5t-42 85.5q0 84 94 145.5t228.5 61.5t221.5 -74t87 -184 q0 -258 -463 -486q154 18 303 19q203 0 203 -103q0 -33 -31 -67q-72 16 -168 16h-360q-68 0 -95.5 29.5t-27.5 54.5z" />
<glyph unicode="&#xbe;" horiz-adv-x="1517" d="M74 799q0 47 33.5 81.5t60.5 37.5q61 -141 229 -142q66 0 107 32t41 90t-61.5 102t-178.5 44q-39 0 -67 -6q-16 10 -16.5 34t39.5 48.5t88 41t88 49t40 75.5t-40 68.5t-109.5 25.5t-145.5 -51q-37 10 -37 57.5t78 86t191.5 38.5t186.5 -50t73 -122.5t-53.5 -123 t-133.5 -70.5q99 -21 165.5 -86.5t66.5 -163.5t-116 -182t-238.5 -84t-206.5 48t-84 122zM276 29q27 10 64 61l879 1352q47 70 93 69.5t68 -45.5q-29 -8 -61 -61l-881 -1350q-45 -72 -92 -71.5t-70 45.5zM801 295q0 70 77.5 210t187.5 259t183 119q102 0 103 -117v-447h39 q66 0 90 21q23 -23 22.5 -54.5t-32.5 -55t-85 -23.5h-34v-103q0 -55 41 -69q-43 -47 -103 -47q-117 0 -116 118v101h-256q-117 0 -117 88zM946 346q0 -27 45 -27h183v345q0 20 -17 20q-33 0 -122 -136t-89 -202z" />
<glyph unicode="&#xbf;" horiz-adv-x="1134" d="M156 -203q0 86 37.5 162t92 129t109 102.5t92 103.5t37.5 102t-28.5 80t-77.5 40q4 51 45 84t110.5 33t127 -56.5t57.5 -136.5t-34 -142t-83 -112.5t-98 -103.5q-117 -123 -117 -275q0 -84 54.5 -142t137.5 -58q166 0 166 137q0 53 -33.5 96t-84.5 64q2 27 55 66.5 t133 39.5t137.5 -62.5t57.5 -156.5q0 -141 -134.5 -231t-321.5 -90t-312 92t-125 235zM406 903.5q0 63.5 59 118.5t129 55t110.5 -38t40.5 -100t-61 -116.5t-131 -54.5t-108.5 36t-38.5 99.5z" />
<glyph unicode="&#xc0;" horiz-adv-x="1439" d="M63 70q53 23 97 133l442 1132q-29 70 -67 101q55 76 148 75.5t133 -46.5t81 -160l385 -1076q45 -121 119 -157q-47 -92 -176 -92q-72 0 -115 34.5t-78 124.5l-61 170h-510l-66 -174q-55 -156 -172 -155q-53 0 -98 25.5t-62 64.5zM522 479h385l-180 600zM651 1645l137 219 q53 88 101.5 126t120 38t108.5 -64q16 -33 16.5 -68.5t-16.5 -74.5q-20 6 -55 6t-86 -41l-176 -152q-37 -35 -82 -34.5t-68 45.5z" />
<glyph unicode="&#xc1;" horiz-adv-x="1439" d="M63 70q53 23 97 133l442 1132q-29 70 -67 101q55 76 148 75.5t133 -46.5t81 -160l385 -1076q45 -121 119 -157q-47 -92 -176 -92q-72 0 -115 34.5t-78 124.5l-61 170h-510l-66 -174q-55 -156 -172 -155q-53 0 -98 25.5t-62 64.5zM381 1880q0 35 16 66q35 68 106.5 67.5 t120 -35t103.5 -120.5l150 -213q-23 -45 -67 -45.5t-85 32.5l-184 144q-49 37 -84 36.5t-58 -8.5q-18 41 -18 76zM522 479h385l-180 600z" />
<glyph unicode="&#xc2;" horiz-adv-x="1439" d="M63 70q53 23 97 133l442 1132q-29 70 -67 101q55 76 148 75.5t133 -46.5t81 -160l385 -1076q45 -121 119 -157q-47 -92 -176 -92q-72 0 -115 34.5t-78 124.5l-61 170h-510l-66 -174q-55 -156 -172 -155q-53 0 -98 25.5t-62 64.5zM393 1645l146 215q47 72 87 102.5 t102.5 30.5t102 -32t87.5 -101l145 -215q-18 -45 -67.5 -45.5t-86.5 34.5l-180 166l-182 -166q-37 -35 -86 -35t-68 46zM522 479h385l-180 600z" />
<glyph unicode="&#xc3;" horiz-adv-x="1439" d="M63 70q53 23 97 133l442 1132q-29 70 -67 101q55 76 148 75.5t133 -46.5t81 -160l385 -1076q45 -121 119 -157q-47 -92 -176 -92q-72 0 -115 34.5t-78 124.5l-61 170h-510l-66 -174q-55 -156 -172 -155q-53 0 -98 25.5t-62 64.5zM385 1759q0 82 64.5 142.5t148.5 60.5 t177 -56.5t141.5 -56.5t80 31t33.5 86q78 -10 78 -100t-67.5 -149.5t-149.5 -59.5t-180.5 57.5t-139.5 57.5t-73.5 -31t-34.5 -86q-31 2 -54.5 27.5t-23.5 76.5zM522 479h385l-180 600z" />
<glyph unicode="&#xc4;" horiz-adv-x="1439" d="M63 70q53 23 97 133l442 1132q-29 70 -67 101q55 76 148 75.5t133 -46.5t81 -160l385 -1076q45 -121 119 -157q-47 -92 -176 -92q-72 0 -115 34.5t-78 124.5l-61 170h-510l-66 -174q-55 -156 -172 -155q-53 0 -98 25.5t-62 64.5zM393 1773.5q0 59.5 53.5 111.5t112.5 52 t94 -34.5t35 -95t-52 -113t-113.5 -52.5t-95.5 36t-34 95.5zM522 479h385l-180 600zM770 1773.5q0 59.5 53.5 111.5t113.5 52t94 -34.5t34 -95t-52 -113t-112.5 -52.5t-95.5 36t-35 95.5z" />
<glyph unicode="&#xc5;" horiz-adv-x="1439" d="M63 70q53 23 97 133l442 1132q-29 70 -67 101q55 76 148 75.5t133 -46.5t81 -160l385 -1076q45 -121 119 -157q-47 -92 -176 -92q-72 0 -115 34.5t-78 124.5l-61 170h-510l-66 -174q-55 -156 -172 -155q-53 0 -98 25.5t-62 64.5zM504 1804q0 90 64.5 140.5t160.5 50.5 t160.5 -50.5t64.5 -140.5t-64.5 -139t-160.5 -49t-160.5 49t-64.5 139zM522 479h385l-180 600zM643 1835q0 -147 96 -147q76 0 76 90q0 12 -2 26q-12 119 -94 119q-76 0 -76 -88z" />
<glyph unicode="&#xc6;" horiz-adv-x="2111" d="M31 82q33 14 57.5 42t52.5 87l566 1110q47 90 107 131t163 41h745q266 0 267 -145q0 -74 -66 -115q-84 43 -225 43h-496v-381h340q145 0 204.5 -27.5t59.5 -100.5t-59 -114q-66 27 -225 27h-320v-358q0 -55 27 -81t86 -26h383q135 0 225 84q66 -45 66 -125t-62.5 -127 t-187.5 -47h-451q-352 0 -352 283v57h-451l-102 -209q-70 -143 -176 -143q-55 0 -103.5 26.5t-72.5 67.5zM590 557h346v709z" />
<glyph unicode="&#xc7;" horiz-adv-x="1464" d="M129 725q0 356 196.5 571t516.5 215q199 0 339 -81.5t140 -198.5q0 -76 -52 -114t-128 -38t-129 31q4 27 4 51q0 76 -46 132.5t-161 56.5q-162 0 -280.5 -156t-118.5 -434.5t119.5 -410.5t328.5 -132q123 0 232.5 55.5t175.5 130.5q27 -6 43 -38.5t16 -65.5 q0 -102 -150.5 -206.5t-359.5 -112.5l-41 -111h12q111 0 178.5 -45t67.5 -136t-99 -154.5t-246.5 -63.5t-240 53t-92.5 123q0 45 39 69q86 -119 248 -118.5t162 94.5q0 88 -129 88h-39q-49 0 -49 37q0 16 8 39l51 137q-242 45 -379 237.5t-137 495.5z" />
<glyph unicode="&#xc8;" horiz-adv-x="1406" d="M172 1409q68 84 178 84h670q264 0 264 -145q0 -74 -63 -115q-84 43 -226 43h-495v-381h340q145 0 204.5 -27.5t59.5 -100.5t-60 -114q-66 27 -225 27h-319v-322q0 -76 31.5 -109.5t101.5 -33.5h362q135 0 226 84q63 -43 63 -124t-61.5 -128t-186.5 -47h-438 q-186 0 -274 78t-88 252v960q0 88 -64 119zM659 1645l138 219q53 88 101 126t120 38t108 -64q16 -33 16.5 -68.5t-16.5 -74.5q-20 6 -55 6t-86 -41l-176 -152q-37 -35 -82 -34.5t-68 45.5z" />
<glyph unicode="&#xc9;" horiz-adv-x="1406" d="M172 1409q68 84 178 84h670q264 0 264 -145q0 -74 -63 -115q-84 43 -226 43h-495v-381h340q145 0 204.5 -27.5t59.5 -100.5t-60 -114q-66 27 -225 27h-319v-322q0 -76 31.5 -109.5t101.5 -33.5h362q135 0 226 84q63 -43 63 -124t-61.5 -128t-186.5 -47h-438 q-186 0 -274 78t-88 252v960q0 88 -64 119zM389.5 1880q-0.5 35 16.5 66q35 68 106.5 67.5t119.5 -35t103 -120.5l150 -213q-23 -45 -67 -45.5t-85 32.5l-184 144q-49 37 -84 36.5t-57 -8.5q-18 41 -18.5 76z" />
<glyph unicode="&#xca;" horiz-adv-x="1406" d="M172 1409q68 84 178 84h670q264 0 264 -145q0 -74 -63 -115q-84 43 -226 43h-495v-381h340q145 0 204.5 -27.5t59.5 -100.5t-60 -114q-66 27 -225 27h-319v-322q0 -76 31.5 -109.5t101.5 -33.5h362q135 0 226 84q63 -43 63 -124t-61.5 -128t-186.5 -47h-438 q-186 0 -274 78t-88 252v960q0 88 -64 119zM403 1645l146 215q47 72 87 102.5t102.5 30.5t102.5 -32t87 -101l145 -215q-18 -45 -67.5 -45.5t-85.5 34.5l-181 166l-182 -166q-37 -35 -86 -35t-68 46z" />
<glyph unicode="&#xcb;" horiz-adv-x="1406" d="M172 1409q68 84 178 84h670q264 0 264 -145q0 -74 -63 -115q-84 43 -226 43h-495v-381h340q145 0 204.5 -27.5t59.5 -100.5t-60 -114q-66 27 -225 27h-319v-322q0 -76 31.5 -109.5t101.5 -33.5h362q135 0 226 84q63 -43 63 -124t-61.5 -128t-186.5 -47h-438 q-186 0 -274 78t-88 252v960q0 88 -64 119zM403 1773.5q0 59.5 53.5 111.5t113 52t94 -34.5t34.5 -95t-52 -113t-113.5 -52.5t-95.5 36t-34 95.5zM780 1773.5q0 59.5 53.5 111.5t114 52t94 -34.5t33.5 -95t-52 -113t-112.5 -52.5t-95.5 36t-35 95.5z" />
<glyph unicode="&#xcc;" horiz-adv-x="696" d="M154 1432q59 80 155 79q170 1 170 -202v-1131q0 -90 62 -119q-63 -80 -158 -79q-168 0 -168 204v1131q0 90 -61 117zM270 1645l138 219q53 88 101 126t119.5 38t108.5 -64q16 -33 16.5 -68.5t-16.5 -74.5q-20 6 -55 6t-86 -41l-176 -152q-37 -35 -78 -35q-49 0 -72 46z " />
<glyph unicode="&#xcd;" horiz-adv-x="696" d="M0 1880q0 35 16 66q35 68 107 67.5t120 -35t103 -120.5l150 -213q-23 -45 -67 -45.5t-85 32.5l-184 144q-49 37 -84 36.5t-58 -8.5q-18 41 -18 76zM154 1432q59 80 155 79q170 1 170 -202v-1131q0 -90 62 -119q-63 -80 -158 -79q-168 0 -168 204v1131q0 90 -61 117z" />
<glyph unicode="&#xce;" horiz-adv-x="696" d="M12 1645l146 215q47 72 87 102.5t102.5 30.5t102 -32t87.5 -101l145 -215q-18 -45 -67.5 -45.5t-86.5 34.5l-180 166l-182 -166q-37 -35 -86 -35t-68 46zM154 1432q59 80 155 79q170 1 170 -202v-1131q0 -90 62 -119q-63 -80 -158 -79q-168 0 -168 204v1131q0 90 -61 117 z" />
<glyph unicode="&#xcf;" horiz-adv-x="696" d="M12 1773.5q0 59.5 53.5 111.5t113 52t94 -34.5t34.5 -95t-52 -113t-113.5 -52.5t-95.5 36t-34 95.5zM154 1432q59 80 155 79q170 1 170 -202v-1131q0 -90 62 -119q-63 -80 -158 -79q-168 0 -168 204v1131q0 90 -61 117zM389 1773.5q0 59.5 53.5 111.5t113.5 52t94 -34.5 t34 -95t-52 -113t-112.5 -52.5t-95.5 36t-35 95.5z" />
<glyph unicode="&#xd0;" horiz-adv-x="1650" d="M10 713q0 113 172 112h27v410q0 113 -47 184q264 92 526 92q342 0 564.5 -199.5t222.5 -568.5q0 -246 -107 -421q-209 -342 -680 -342q-260 0 -370.5 77.5t-110.5 247.5v369h-189q-8 12 -8 39zM473 291q0 -66 43 -96.5t172 -30.5q227 0 368.5 154.5t141.5 426t-141.5 427 t-368.5 155.5q-102 0 -213 -35v-467h389q8 -8 8 -34q0 -117 -172 -117h-227v-383z" />
<glyph unicode="&#xd1;" horiz-adv-x="1685" d="M162 1432q63 80 180 79q154 0 256 -163l616 -1004v971q0 90 -61 117q59 80 158 79q170 0 170 -202v-1131q0 -92 41 -139q-53 -59 -152.5 -59t-176.5 60t-165 202l-539 870v-934q0 -88 60 -119q-63 -80 -156 -79q-170 -1 -170 204v1131q0 90 -61 117zM500 1759 q0 82 64.5 142.5t148.5 60.5t177 -56.5t141 -56.5t80 31t34 86q78 -10 78 -100t-68 -149.5t-149.5 -59.5t-180 57.5t-139.5 57.5t-73.5 -31t-34.5 -86q-31 2 -54.5 27.5t-23.5 76.5z" />
<glyph unicode="&#xd2;" horiz-adv-x="1605" d="M139 746.5q0 343.5 172 554t497 210.5t491.5 -208.5t166.5 -555t-168 -557t-492.5 -210.5t-495.5 211.5t-171 555zM410 821q0 -328 131 -510q112 -157 300.5 -157t280.5 168q76 139 76 348q0 328 -133 512q-111 158 -300.5 157.5t-279.5 -168.5q-76 -139 -75 -350z M727 1645l137 219q54 88 102 126t119.5 38t106.5 -64q18 -33 18 -68.5t-16 -74.5q-20 6 -55 6t-86 -41l-176 -152q-37 -35 -78 -35q-49 0 -72 46z" />
<glyph unicode="&#xd3;" horiz-adv-x="1605" d="M139 746.5q0 343.5 172 554t497 210.5t491.5 -208.5t166.5 -555t-168 -557t-492.5 -210.5t-495.5 211.5t-171 555zM410 821q0 -328 131 -510q112 -157 300.5 -157t280.5 168q76 139 76 348q0 328 -133 512q-111 158 -300.5 157.5t-279.5 -168.5q-76 -139 -75 -350z M455 1880q0 35 16 66q35 68 106.5 67.5t119.5 -35t104 -120.5l149 -213q-23 -45 -66.5 -45.5t-84.5 32.5l-185 144q-49 37 -83.5 36.5t-57.5 -8.5q-18 41 -18 76z" />
<glyph unicode="&#xd4;" horiz-adv-x="1605" d="M139 746.5q0 343.5 172 554t497 210.5t491.5 -208.5t166.5 -555t-168 -557t-492.5 -210.5t-495.5 211.5t-171 555zM410 821q0 -328 131 -510q112 -157 300.5 -157t280.5 168q76 139 76 348q0 328 -133 512q-111 158 -300.5 157.5t-279.5 -168.5q-76 -139 -75 -350z M469 1645l145 215q47 72 87 102.5t102.5 30.5t102.5 -32t87 -101l146 -215q-18 -45 -67.5 -45.5t-86.5 34.5l-180 166l-182 -166q-37 -35 -86.5 -35t-67.5 46z" />
<glyph unicode="&#xd5;" horiz-adv-x="1605" d="M139 746.5q0 343.5 172 554t497 210.5t491.5 -208.5t166.5 -555t-168 -557t-492.5 -210.5t-495.5 211.5t-171 555zM410 821q0 -328 131 -510q112 -157 300.5 -157t280.5 168q76 139 76 348q0 328 -133 512q-111 158 -300.5 157.5t-279.5 -168.5q-76 -139 -75 -350z M461 1759q0 82 64.5 142.5t148.5 60.5t177 -56.5t141 -56.5t80 31t34 86q78 -10 78 -100t-67.5 -149.5t-149.5 -59.5t-180.5 57.5t-139.5 57.5t-73.5 -31t-34.5 -86q-31 2 -54.5 27.5t-23.5 76.5z" />
<glyph unicode="&#xd6;" horiz-adv-x="1605" d="M139 746.5q0 343.5 172 554t497 210.5t491.5 -208.5t166.5 -555t-168 -557t-492.5 -210.5t-495.5 211.5t-171 555zM410 821q0 -328 131 -510q112 -157 300.5 -157t280.5 168q76 139 76 348q0 328 -133 512q-111 158 -300.5 157.5t-279.5 -168.5q-76 -139 -75 -350z M469 1773.5q0 59.5 53 111.5t112.5 52t94.5 -34.5t35 -95t-52.5 -113t-113.5 -52.5t-95 36t-34 95.5zM846 1773.5q0 59.5 53 111.5t113.5 52t94.5 -34.5t34 -95t-52.5 -113t-113 -52.5t-95 36t-34.5 95.5z" />
<glyph unicode="&#xd7;" horiz-adv-x="1472" d="M174 1313q23 45 65 68.5t82.5 23.5t84 -25.5t63.5 -46t57 -63.5l244 -275l287 330q74 80 127 80t84 -51l-406 -467l434 -496q-20 -43 -61 -66.5t-82 -23.5q-88 0 -207 135l-237 273l-291 -334q-68 -80 -124 -80t-85 55l405 465z" />
<glyph unicode="&#xd8;" horiz-adv-x="1658" d="M98 45q63 33 142 121l49 55q-150 201 -150 536t172 545.5t482.5 210.5t482.5 -182l90 101q68 80 133.5 79.5t77.5 -63.5q-57 -31 -143 -121l-84 -94q116 -188 116 -483q0 -346 -168 -557t-493 -211q-262 0 -432 149l-64 -72q-72 -80 -134 -79.5t-77 65.5zM410 823 q0 -229 67 -391l623 701q-117 208 -336 208q-188 0 -279 -167q-76 -139 -75 -351zM539 317q113 -162 302 -161.5t281 168.5q76 139 76 348q0 188 -47 336z" />
<glyph unicode="&#xd9;" horiz-adv-x="1509" d="M135 1432q63 80 156 79q172 0 172 -202v-811q0 -154 85 -234t238.5 -80t238.5 79t85 235v817q0 90 -63 117q63 80 157 79q170 0 170 -202v-774q0 -260 -144.5 -407.5t-442.5 -147.5t-443 147.5t-145 407.5v780q0 90 -64 117zM709 1645l137 219q53 88 101 126t120 38 t109 -64q16 -33 16 -68.5t-16 -74.5q-20 6 -55.5 6t-86.5 -41l-176 -152q-37 -35 -78 -35q-49 0 -71 46z" />
<glyph unicode="&#xda;" horiz-adv-x="1509" d="M135 1432q63 80 156 79q172 0 172 -202v-811q0 -154 85 -234t238.5 -80t238.5 79t85 235v817q0 90 -63 117q63 80 157 79q170 0 170 -202v-774q0 -260 -144.5 -407.5t-442.5 -147.5t-443 147.5t-145 407.5v780q0 90 -64 117zM436.5 1880q-0.5 35 16.5 66 q35 68 106.5 67.5t119.5 -35t103 -120.5l150 -213q-23 -45 -67 -45.5t-85 32.5l-184 144q-49 37 -84 36.5t-57 -8.5q-18 41 -18.5 76z" />
<glyph unicode="&#xdb;" horiz-adv-x="1509" d="M135 1432q63 80 156 79q172 0 172 -202v-811q0 -154 85 -234t238.5 -80t238.5 79t85 235v817q0 90 -63 117q63 80 157 79q170 0 170 -202v-774q0 -260 -144.5 -407.5t-442.5 -147.5t-443 147t-145 408v780q0 90 -64 117zM451 1645l145 215q47 72 87 102.5t102.5 30.5 t102.5 -32t87 -101l145 -215q-18 -45 -67 -45.5t-86 34.5l-181 166l-182 -166q-37 -35 -86 -35t-67 46z" />
<glyph unicode="&#xdc;" horiz-adv-x="1509" d="M135 1432q63 80 156 79q172 0 172 -202v-811q0 -154 85 -234t238.5 -80t238.5 79t85 235v817q0 90 -63 117q63 80 157 79q170 0 170 -202v-774q0 -260 -144.5 -407.5t-442.5 -147.5t-443 147.5t-145 407.5v780q0 90 -64 117zM451 1773.5q0 59.5 53 111.5t112.5 52 t94 -34.5t34.5 -95t-52 -113t-113.5 -52.5t-95 36t-33.5 95.5zM827 1773.5q0 59.5 53.5 111.5t114 52t94 -34.5t33.5 -95t-52 -113t-112.5 -52.5t-95.5 36t-35 95.5z" />
<glyph unicode="&#xdd;" horiz-adv-x="1296" d="M20 1372q43 139 177 139q66 0 114.5 -42t96.5 -121l266 -453l268 377q47 57 47 107.5t-41 93.5q82 39 155 38.5t118 -37t45 -102t-60 -147.5l-422 -570l-2 -487q0 -93 37 -150q-66 -33 -140.5 -32.5t-116.5 52.5t-42 157l2 456l-377 637q-51 78 -125 84zM313.5 1880 q-0.5 35 16.5 66q35 68 106.5 67.5t119.5 -35t103 -120.5l150 -213q-23 -45 -67 -45.5t-85 32.5l-184 144q-49 37 -84 36.5t-57 -8.5q-18 41 -18.5 76z" />
<glyph unicode="&#xde;" horiz-adv-x="1351" d="M154 1432q59 80 155 79q170 1 170 -202v-105q141 57 299 58q219 0 372 -126t153 -330t-153 -330t-372 -126q-158 0 -299 58v-230q0 -90 62 -119q-63 -80 -158 -79q-168 0 -168 204v1131q0 90 -61 117zM479 571q123 -43 252 -43t214 76t85 203t-85 201.5t-215 74.5 t-251 -45v-467z" />
<glyph unicode="&#xdf;" horiz-adv-x="1277" d="M137 184v908q0 190 124 292.5t323.5 102.5t319.5 -102.5t120 -249.5q0 -178 -184 -297l100 -72q252 -172 252 -389q0 -174 -105.5 -285.5t-273.5 -111.5q-115 0 -174 50t-59 117q0 25 12 54q57 -41 142 -41t134.5 47t49.5 124t-34 133t-122 128q-168 145 -184.5 166.5 t-16.5 36t30 43t64.5 61.5t64.5 95.5t30 144.5t-49.5 135t-124 53t-125 -57.5t-50.5 -177.5v-914q0 -88 62 -119q-63 -80 -158 -79q-168 0 -168 204z" />
<glyph unicode="&#xe0;" d="M92 244q0 154 160 248t455 98v168q0 178 -142 178q-63 0 -100 -33t-37 -81t31 -81q-63 -59 -147.5 -59t-127.5 41t-43 106q0 106 129 178t306.5 72t286 -87t108.5 -265v-496q0 -121 106 -147q-68 -104 -192 -104q-145 0 -172 145q-123 -145 -318 -145q-135 0 -219 69.5 t-84 194.5zM379 272q0 -117 133 -116q111 0 195 102v217q-172 -10 -250 -65.5t-78 -137.5zM500 1210l137 220q53 88 101 125.5t120 37.5t109 -63q16 -33 16 -69t-16 -75q-20 6 -55 6.5t-87 -40.5l-176 -152q-37 -35 -81.5 -35t-67.5 45z" />
<glyph unicode="&#xe1;" d="M92 244q0 154 160 248t455 98v168q0 178 -142 178q-63 0 -100 -33t-37 -81t31 -81q-63 -59 -147.5 -59t-127.5 41t-43 106q0 106 129 178t306.5 72t286 -87t108.5 -265v-496q0 -121 106 -147q-68 -104 -192 -104q-145 0 -172 145q-123 -145 -318 -145q-135 0 -219 69.5 t-84 194.5zM229.5 1446q-0.5 35 16.5 65q35 68 106.5 68t119.5 -35t103 -121l150 -213q-23 -45 -67 -45t-85 33l-184 143q-49 37 -84 37t-57 -8q-18 41 -18.5 76zM379 272q0 -117 133 -116q111 0 195 102v217q-172 -10 -250 -65.5t-78 -137.5z" />
<glyph unicode="&#xe2;" d="M92 244q0 154 160 248t455 98v168q0 178 -142 178q-63 0 -100 -33t-37 -81t31 -81q-63 -59 -147.5 -59t-127.5 41t-43 106q0 106 129 178t306.5 72t286 -87t108.5 -265v-496q0 -121 106 -147q-68 -104 -192 -104q-145 0 -172 145q-123 -145 -318 -145q-135 0 -219 69.5 t-84 194.5zM244 1210l145 215q47 72 87 103t102.5 31t102.5 -32t87 -102l145 -215q-18 -45 -67 -45t-86 35l-180 166l-183 -166q-37 -35 -86 -35t-67 45zM379 272q0 -117 133 -116q111 0 195 102v217q-172 -10 -250 -65.5t-78 -137.5z" />
<glyph unicode="&#xe3;" d="M92 244q0 154 160 248t455 98v168q0 178 -142 178q-63 0 -100 -33t-37 -81t31 -81q-63 -59 -147.5 -59t-127.5 41t-43 106q0 106 129 178t306.5 72t286 -87t108.5 -265v-496q0 -121 106 -147q-68 -104 -192 -104q-145 0 -172 145q-123 -145 -318 -145q-135 0 -219 69.5 t-84 194.5zM236 1325q0 82 64.5 142.5t148 60.5t177 -56.5t141.5 -56.5t80 31t34 86q78 -10 77.5 -100.5t-68 -149.5t-149.5 -59t-180 57t-139 57t-74 -30.5t-35 -85.5q-31 2 -54 27.5t-23 76.5zM379 272q0 -117 133 -116q111 0 195 102v217q-172 -10 -250 -65.5t-78 -137.5 z" />
<glyph unicode="&#xe4;" d="M92 244q0 154 160 248t455 98v168q0 178 -142 178q-63 0 -100 -33t-37 -81t31 -81q-63 -59 -147.5 -59t-127.5 41t-43 106q0 106 129 178t306.5 72t286 -87t108.5 -265v-496q0 -121 106 -147q-68 -104 -192 -104q-145 0 -172 145q-123 -145 -318 -145q-135 0 -219 69.5 t-84 194.5zM242 1339.5q0 59.5 53 111.5t112.5 52t94.5 -34.5t35 -95t-52.5 -113t-114 -52.5t-95 36t-33.5 95.5zM379 272q0 -117 133 -116q111 0 195 102v217q-172 -10 -250 -65.5t-78 -137.5zM618 1339.5q0 59.5 53.5 111.5t114 52t94 -34.5t33.5 -95t-52 -113 t-112.5 -52.5t-95.5 36t-35 95.5z" />
<glyph unicode="&#xe5;" d="M92 244q0 154 160 248t455 98v168q0 178 -142 178q-63 0 -100 -33t-37 -81t31 -81q-63 -59 -147.5 -59t-127.5 41t-43 106q0 106 129 178t306.5 72t286 -87t108.5 -265v-496q0 -121 106 -147q-68 -104 -192 -104q-145 0 -172 145q-123 -145 -318 -145q-135 0 -219 69.5 t-84 194.5zM352 1370q0 90 64.5 140.5t161 50.5t161 -50.5t64.5 -140.5t-64.5 -139t-161 -49t-161 49t-64.5 139zM379 272q0 -117 133 -116q111 0 195 102v217q-172 -10 -250 -65.5t-78 -137.5zM492 1401q0 -147 96 -148q76 0 76 90q0 12 -2 27q-12 119 -95 119 q-75 0 -75 -88z" />
<glyph unicode="&#xe6;" horiz-adv-x="1665" d="M92 244q0 154 160 248t455 98v168q0 178 -142 178q-63 0 -100 -33t-37 -81t31 -81q-63 -59 -147.5 -59t-127.5 41t-43 106q0 106 127 178t287 72q229 0 330 -141q141 141 319 141t286.5 -109.5t108.5 -250.5q0 -106 -54 -154.5t-179 -50.5l-393 -12q8 -332 280 -332 q168 0 283 121q39 -18 39 -74q0 -86 -108.5 -161.5t-256.5 -75.5q-279 0 -409 182q-152 -182 -369 -182q-154 0 -247 69.5t-93 194.5zM379 272q0 -117 131 -116.5t227 127.5q-31 86 -30 192q-172 -10 -250 -65.5t-78 -137.5zM979 633l268 26q39 5 58.5 25.5t19.5 80.5 t-36 112.5t-105.5 52.5t-128 -77t-76.5 -220z" />
<glyph unicode="&#xe7;" horiz-adv-x="1046" d="M100 485q0 248 155 421t388 173q135 0 228.5 -62.5t93.5 -162.5q0 -66 -41 -102.5t-103.5 -36.5t-111.5 35q6 25 6 65.5t-29 73.5t-84 33q-98 0 -172 -111t-74 -285t79 -264t200 -90q172 0 285 121q39 -18 38 -76q0 -88 -104 -160.5t-250 -76.5l-41 -111h12 q111 0 178.5 -45t67.5 -136t-99 -154.5t-246.5 -63.5t-240 53t-92.5 123q0 45 39 69q86 -119 248 -118.5t162 94.5q0 88 -129 88h-39q-51 0 -51 37q0 16 10 39l53 143q-156 43 -246 170t-90 317z" />
<glyph unicode="&#xe8;" horiz-adv-x="1058" d="M100 491.5q0 245.5 148.5 416.5t363.5 171q166 0 273.5 -109.5t107.5 -250.5q0 -106 -53 -154.5t-178 -50.5l-395 -12q8 -332 282 -332q168 0 283 121q39 -20 39 -74q0 -86 -109.5 -161.5t-259.5 -75.5q-231 0 -366.5 133t-135.5 378.5zM373 633l276 26q41 5 59.5 25.5 t18.5 81.5t-39 112.5t-109.5 51.5t-129 -77t-76.5 -220zM518 1210l137 220q53 88 101.5 125.5t120 37.5t106.5 -63q18 -33 18 -69t-16 -75q-20 6 -55 6.5t-86 -40.5l-176 -152q-37 -35 -82 -35t-68 45z" />
<glyph unicode="&#xe9;" horiz-adv-x="1058" d="M100 491.5q0 245.5 148.5 416.5t363.5 171q166 0 273.5 -109.5t107.5 -250.5q0 -106 -53 -154.5t-178 -50.5l-395 -12q8 -332 282 -332q168 0 283 121q39 -20 39 -74q0 -86 -109.5 -161.5t-259.5 -75.5q-231 0 -366.5 133t-135.5 378.5zM248 1446q0 35 16 65 q35 68 106.5 68t120 -35t103.5 -121l149 -213q-23 -45 -66.5 -45t-84.5 33l-184 143q-49 37 -84 37t-58 -8q-18 41 -18 76zM373 633l276 26q41 5 59.5 25.5t18.5 81.5t-39 112.5t-109.5 51.5t-129 -77t-76.5 -220z" />
<glyph unicode="&#xea;" horiz-adv-x="1058" d="M100 491.5q0 245.5 148.5 416.5t363.5 171q166 0 273.5 -109.5t107.5 -250.5q0 -106 -53 -154.5t-178 -50.5l-395 -12q8 -332 282 -332q168 0 283 121q39 -20 39 -74q0 -86 -109.5 -161.5t-259.5 -75.5q-231 0 -366.5 133t-135.5 378.5zM262 1210l146 215q47 72 87 103 t102 31t102 -32t87 -102l146 -215q-18 -45 -67.5 -45t-86.5 35l-180 166l-182 -166q-37 -35 -86 -35t-68 45zM373 633l276 26q41 5 59.5 25.5t18.5 81.5t-39 112.5t-109.5 51.5t-129 -77t-76.5 -220z" />
<glyph unicode="&#xeb;" horiz-adv-x="1058" d="M100 491.5q0 245.5 148.5 416.5t363.5 171q166 0 273.5 -109.5t107.5 -250.5q0 -106 -53 -154.5t-178 -50.5l-395 -12q8 -332 282 -332q168 0 283 121q39 -20 39 -74q0 -86 -109.5 -161.5t-259.5 -75.5q-231 0 -366.5 133t-135.5 378.5zM260 1339.5q0 59.5 53.5 111.5 t112.5 52t94 -34.5t35 -95t-52 -113t-113.5 -52.5t-95.5 36t-34 95.5zM373 633l276 26q41 5 59.5 25.5t18.5 81.5t-39 112.5t-109.5 51.5t-129 -77t-76.5 -220zM637 1339.5q0 59.5 53 111.5t113.5 52t94.5 -34.5t34 -95t-52.5 -113t-112.5 -52.5t-95 36t-35 95.5z" />
<glyph unicode="&#xec;" horiz-adv-x="595" d="M109 1001q59 78 155 78q170 0 170 -205v-696q0 -88 62 -119q-63 -80 -158 -79q-168 0 -168 204v697q0 90 -61 120zM221 1210l137 220q54 88 102 125.5t119.5 37.5t108.5 -63q16 -33 16.5 -69t-16.5 -75q-20 6 -55 6.5t-86 -40.5l-176 -152q-37 -35 -78 -35q-49 0 -72 45z " />
<glyph unicode="&#xed;" horiz-adv-x="595" d="M-47 1446q0 35 16 65q35 68 106.5 68t120 -35t103.5 -121l150 -213q-23 -45 -67 -45t-85 33l-184 143q-49 37 -84 37t-58 -8q-18 41 -18 76zM111 1001q59 78 155 78q170 0 170 -205v-696q0 -88 62 -119q-63 -80 -158 -79q-168 0 -168 204v697q0 90 -61 120z" />
<glyph unicode="&#xee;" horiz-adv-x="595" d="M-35 1210l146 215q47 72 87 103t102 31t102 -32t87 -102l146 -215q-18 -45 -67.5 -45t-86.5 35l-180 166l-182 -166q-37 -35 -86 -35t-68 45zM109 1001q59 78 155 78q170 0 170 -205v-696q0 -88 62 -119q-63 -80 -158 -79q-168 0 -168 204v697q0 90 -61 120z" />
<glyph unicode="&#xef;" horiz-adv-x="595" d="M-37 1339.5q0 59.5 53.5 111.5t112.5 52t94 -34.5t35 -95t-52 -113t-113.5 -52.5t-95.5 36t-34 95.5zM109 1001q59 78 155 78q170 0 170 -205v-696q0 -88 62 -119q-63 -80 -158 -79q-168 0 -168 204v697q0 90 -61 120zM340 1339.5q0 59.5 53 111.5t113.5 52t94.5 -34.5 t34 -95t-52.5 -113t-112.5 -52.5t-95 36t-35 95.5z" />
<glyph unicode="&#xf0;" horiz-adv-x="1222" d="M100 530.5q0 264.5 143.5 406.5t368.5 142q88 0 168 -43q-47 119 -116 221l-277 -86q-25 33 -25 61t33 58.5t117 57.5l68 20q-84 96 -162 162q29 51 80 51q115 0 264 -160l268 80q18 -10 19 -33q12 -45 -25 -75q-41 -35 -79 -47.5t-49 -16.5t-46 -14 q119 -160 195.5 -363.5t76.5 -379t-47 -293t-125 -181.5q-152 -119 -338 -118q-223 0 -367.5 143t-144.5 407.5zM369 612q0 -39 2 -82q28 -411 268 -411q215 0 215 330q0 39 -2 81q-31 410 -268 410q-215 0 -215 -328z" />
<glyph unicode="&#xf1;" horiz-adv-x="1269" d="M109 1001q59 78 155 78q170 0 170 -205v-22q53 106 151.5 166.5t228.5 60.5t213 -92t83 -270v-539q0 -88 61 -119q-63 -80 -157 -79q-168 0 -168 204v500q0 180 -156 180q-80 0 -153.5 -69.5t-102.5 -194.5v-422q0 -88 62 -119q-63 -80 -158 -79q-168 0 -168 204v697 q0 90 -61 120zM301 1325q0 82 64.5 142.5t148.5 60.5t177 -56.5t141.5 -56.5t80 31t33.5 86q78 -10 78 -100.5t-67.5 -149.5t-149.5 -59t-180.5 57t-139.5 57t-73.5 -30.5t-34.5 -85.5q-31 2 -54.5 27.5t-23.5 76.5z" />
<glyph unicode="&#xf2;" horiz-adv-x="1222" d="M100 530.5q0 264.5 143.5 406.5t368 142t367.5 -143t143 -406.5t-143 -406.5t-366.5 -143t-368 143t-144.5 407.5zM367 596q0 -31 2 -66q23 -412 266 -411q219 0 219 340q0 33 -2 71q-22 410 -262 410q-223 0 -223 -344zM532 1210l138 220q53 88 101 125.5t120 37.5 t108 -63q16 -33 16.5 -69t-16.5 -75q-20 6 -55 6.5t-86 -40.5l-176 -152q-37 -35 -78 -35q-49 0 -72 45z" />
<glyph unicode="&#xf3;" horiz-adv-x="1222" d="M100 530.5q0 264.5 143.5 406.5t368 142t367.5 -143t143 -406.5t-143 -406.5t-366.5 -143t-368 143t-144.5 407.5zM262.5 1446q-0.5 35 16.5 65q35 68 106.5 68t119.5 -35t103 -121l150 -213q-23 -45 -67 -45t-85 33l-184 143q-49 37 -84 37t-57 -8q-18 41 -18.5 76z M367 596q0 -31 2 -66q23 -412 266 -411q219 0 219 340q0 33 -2 71q-22 410 -262 410q-223 0 -223 -344z" />
<glyph unicode="&#xf4;" horiz-adv-x="1222" d="M100 530.5q0 264.5 143.5 406.5t368 142t367.5 -143t143 -406.5t-143 -406.5t-366.5 -143t-368 143t-144.5 407.5zM276 1210l146 215q47 72 87 103t102.5 31t102.5 -32t87 -102l145 -215q-18 -45 -67.5 -45t-85.5 35l-181 166l-182 -166q-37 -35 -86 -35t-68 45zM367 596 q0 -31 2 -66q22 -411 266 -411q219 0 219 340q0 33 -2 71q-23 410 -262 410q-223 0 -223 -344z" />
<glyph unicode="&#xf5;" horiz-adv-x="1222" d="M100 530.5q0 264.5 143.5 406.5t368 142t367.5 -143t143 -406.5t-143 -406.5t-366.5 -143t-368 143t-144.5 407.5zM268 1325q0 82 64.5 142.5t148.5 60.5t177.5 -56.5t141.5 -56.5t79.5 31t33.5 86q78 -10 78 -100.5t-67.5 -149.5t-149.5 -59t-180 57t-139 57t-74 -30.5 t-35 -85.5q-31 2 -54.5 27.5t-23.5 76.5zM367 596q0 -31 2 -66q23 -412 266 -411q219 0 219 340q0 33 -2 71q-22 410 -262 410q-223 0 -223 -344z" />
<glyph unicode="&#xf6;" horiz-adv-x="1222" d="M100 530.5q0 264.5 143.5 406.5t368 142t367.5 -143t143 -406.5t-143 -406.5t-366.5 -143t-368 143t-144.5 407.5zM274 1339.5q0 59.5 53.5 111.5t113 52t94 -34.5t34.5 -95t-52 -113t-113.5 -52.5t-95.5 36t-34 95.5zM367 596q0 -31 2 -66q23 -412 266 -411 q219 0 219 340q0 33 -2 71q-22 410 -262 410q-223 0 -223 -344zM651 1339.5q0 59.5 53.5 111.5t114 52t94 -34.5t33.5 -95t-52 -113t-112.5 -52.5t-95.5 36t-35 95.5z" />
<glyph unicode="&#xf7;" horiz-adv-x="1411" d="M98 786q0 164 244 164h963q10 -16 10 -51q0 -172 -244 -172h-958q-14 29 -15 59zM541 404.5q0 70.5 61.5 131t131 60.5t110.5 -41t41 -111.5t-60.5 -131t-132 -60.5t-111.5 41t-40 111.5zM541 1240q0 71 61.5 131.5t131 60.5t110.5 -41t41 -112t-60.5 -131.5t-132 -60.5 t-111.5 41t-40 112z" />
<glyph unicode="&#xf8;" horiz-adv-x="1374" d="M72 39q49 29 141 121q-113 141 -113 388t143.5 389t368.5 142q186 0 316 -98l16 18q68 80 134.5 80t76.5 -59q-57 -31 -143 -121q111 -143 110.5 -388t-143.5 -388t-367 -143q-182 0 -315 96l-14 -17q-72 -80 -136.5 -79.5t-74.5 59.5zM367 596q0 -143 24 -231l395 452 q-67 123 -196 123q-223 0 -223 -344zM438 238q68 -119 197 -119q219 0 219 340q0 133 -23 233z" />
<glyph unicode="&#xf9;" horiz-adv-x="1269" d="M109 1001q59 78 155 78q170 0 170 -205v-507q0 -180 180 -181q164 0 232 179v516q0 90 -62 120q63 78 156 78q170 0 170 -205v-696q0 -88 61 -119q-63 -80 -157 -79q-158 0 -166 172q-109 -172 -309 -172q-174 0 -271.5 91t-97.5 271v539q0 90 -61 120zM557 1210l137 220 q53 88 101.5 125.5t120 37.5t108.5 -63q16 -33 16 -69t-16 -75q-20 6 -55 6.5t-86 -40.5l-176 -152q-37 -35 -82 -35t-68 45z" />
<glyph unicode="&#xfa;" horiz-adv-x="1269" d="M109 1001q59 78 155 78q170 0 170 -205v-507q0 -180 180 -181q164 0 232 179v516q0 90 -62 120q63 78 156 78q170 0 170 -205v-696q0 -88 61 -119q-63 -80 -157 -79q-158 0 -166 172q-109 -172 -309 -172q-174 0 -271.5 91t-97.5 271v539q0 90 -61 120zM287 1446 q0 35 16 65q35 68 106.5 68t120 -35t103.5 -121l149 -213q-23 -45 -66.5 -45t-84.5 33l-185 143q-49 37 -83.5 37t-57.5 -8q-18 41 -18 76z" />
<glyph unicode="&#xfb;" horiz-adv-x="1269" d="M109 1001q59 78 155 78q170 0 170 -205v-507q0 -180 180 -181q164 0 232 179v516q0 90 -62 120q63 78 156 78q170 0 170 -205v-696q0 -88 61 -119q-63 -80 -157 -79q-158 0 -166 172q-109 -172 -309 -172q-174 0 -271.5 91t-97.5 271v539q0 90 -61 120zM301 1210l145 215 q47 72 87 103t102.5 31t102.5 -32t87 -102l146 -215q-18 -45 -67.5 -45t-86.5 35l-180 166l-182 -166q-37 -35 -86.5 -35t-67.5 45z" />
<glyph unicode="&#xfc;" horiz-adv-x="1269" d="M109 1001q59 78 155 78q170 0 170 -205v-507q0 -180 180 -181q164 0 232 179v516q0 90 -62 120q63 78 156 78q170 0 170 -205v-696q0 -88 61 -119q-63 -80 -157 -79q-158 0 -166 172q-109 -172 -309 -172q-174 0 -271.5 91t-97.5 271v539q0 90 -61 120zM299 1339.5 q0 59.5 53.5 111.5t112.5 52t94 -34.5t35 -95t-52.5 -113t-113.5 -52.5t-95 36t-34 95.5zM676 1339.5q0 59.5 53 111.5t113.5 52t94.5 -34.5t34 -95t-52.5 -113t-113 -52.5t-95 36t-34.5 95.5z" />
<glyph unicode="&#xfd;" horiz-adv-x="1200" d="M57 1006q70 74 153 73.5t127 -46.5t73 -146l223 -750l254 733q20 51 20 96.5t-24 80.5q53 33 131 32.5t125 -71.5q23 -35 22.5 -83t-24.5 -110l-404 -1077q-102 -272 -305 -273q-86 0 -139 45.5t-53 110t34 109.5q47 -43 107 -43q98 0 141 120l60 173h-11 q-63 0 -118.5 49t-81.5 137l-230 696q-33 109 -80 144zM258 1446q0 35 16 65q35 68 107 68t120 -35t103 -121l150 -213q-23 -45 -67 -45t-85 33l-184 143q-49 37 -84 37t-58 -8q-18 41 -18 76z" />
<glyph unicode="&#xfe;" horiz-adv-x="1251" d="M109 1507q59 80 155 80q170 0 170 -205v-442q109 139 292 139t309 -143t126 -403.5t-144.5 -406.5t-332.5 -146q-141 0 -250 90v-400q0 -90 62 -121q-63 -80 -158 -79q-168 0 -168 204v1715q0 88 -61 118zM434 260q82 -113 217 -113q98 0 171 105.5t73 276.5t-71.5 266.5 t-172.5 95.5q-143 0 -217 -148v-483z" />
<glyph unicode="&#xff;" horiz-adv-x="1200" d="M57 1006q70 74 153 73.5t127 -46.5t73 -146l223 -750l254 733q20 51 20 96.5t-24 80.5q53 33 131 32.5t125 -71.5q23 -35 22.5 -83t-24.5 -110l-404 -1077q-102 -272 -305 -273q-86 0 -139 45.5t-53 110t34 109.5q47 -43 107 -43q98 0 141 120l60 173h-11 q-63 0 -118.5 49t-81.5 137l-230 696q-33 109 -80 144zM270 1339.5q0 59.5 53.5 111.5t113 52t94 -34.5t34.5 -95t-52 -113t-113.5 -52.5t-95.5 36t-34 95.5zM647 1339.5q0 59.5 53.5 111.5t113.5 52t94 -34.5t34 -95t-52 -113t-112.5 -52.5t-95.5 36t-35 95.5z" />
<glyph unicode="&#x152;" horiz-adv-x="2279" d="M139 740q0 343 191.5 548t539.5 205h1020q266 0 267 -145q0 -76 -66 -115q-80 43 -225 43h-496v-381h340q145 0 205.5 -27.5t60.5 -100.5t-61 -114q-68 27 -225 27h-320v-322q0 -143 135 -143h361q135 0 225 84q66 -43 66 -124t-62.5 -128t-187.5 -47h-1028 q-383 0 -561.5 198.5t-178.5 541.5zM428 780q0 -293 125 -465q102 -145 289 -145q150 0 262 51v1055q-107 43 -244 43q-211 0 -330 -168q-102 -143 -102 -371z" />
<glyph unicode="&#x153;" horiz-adv-x="1814" d="M100 530.5q0 264.5 143.5 406.5t382 142t378.5 -178q145 178 364 178q166 0 274.5 -109.5t108.5 -250.5q0 -106 -54.5 -154.5t-178.5 -50.5l-396 -14q13 -330 283 -330q168 0 283 121q39 -20 38 -74q0 -86 -109.5 -161.5t-256.5 -75.5q-248 0 -381 151 q-139 -152 -364.5 -151.5t-370 143.5t-144.5 407.5zM369 612q0 -39 2 -82q28 -411 268 -411q215 0 215 330q0 39 -2 81q-31 410 -268 410q-215 0 -215 -328zM1128 633l279 26q78 10 78 89t-40 130.5t-111.5 51.5t-130 -77t-75.5 -220z" />
<glyph unicode="&#x178;" horiz-adv-x="1296" d="M20 1372q43 139 177 139q66 0 114.5 -42t96.5 -121l266 -453l268 377q47 57 47 107.5t-41 93.5q82 39 155 38.5t118 -37t45 -102t-60 -147.5l-422 -570l-2 -487q0 -93 37 -150q-66 -33 -140.5 -32.5t-116.5 52.5t-42 157l2 456l-377 637q-51 78 -125 84zM326 1773.5 q0 59.5 53 111.5t112.5 52t94.5 -34.5t35 -95t-52.5 -113t-114 -52.5t-95 36t-33.5 95.5zM702 1773.5q0 59.5 53.5 111.5t114 52t94 -34.5t33.5 -95t-52 -113t-112.5 -52.5t-95.5 36t-35 95.5z" />
<glyph unicode="&#x2c6;" horiz-adv-x="718" d="M25 1210l145 215q47 72 87 103t102.5 31t102.5 -32t87 -102l145 -215q-18 -45 -67 -45t-86 35l-181 166l-182 -166q-37 -35 -86 -35t-67 45z" />
<glyph unicode="&#x2dc;" horiz-adv-x="788" d="M33 1325q0 82 64.5 142.5t148.5 60.5t177 -56.5t141 -56.5t80 31t34 86q78 -10 78 -100.5t-67.5 -149.5t-149.5 -59t-180.5 57t-139.5 57t-73.5 -30.5t-34.5 -85.5q-31 2 -54.5 27.5t-23.5 76.5z" />
<glyph unicode="&#x2000;" horiz-adv-x="1044" />
<glyph unicode="&#x2001;" horiz-adv-x="2089" />
<glyph unicode="&#x2002;" horiz-adv-x="1044" />
<glyph unicode="&#x2003;" horiz-adv-x="2089" />
<glyph unicode="&#x2004;" horiz-adv-x="696" />
<glyph unicode="&#x2005;" horiz-adv-x="522" />
<glyph unicode="&#x2006;" horiz-adv-x="348" />
<glyph unicode="&#x2007;" horiz-adv-x="348" />
<glyph unicode="&#x2008;" horiz-adv-x="261" />
<glyph unicode="&#x2009;" horiz-adv-x="417" />
<glyph unicode="&#x200a;" horiz-adv-x="116" />
<glyph unicode="&#x2010;" horiz-adv-x="1138" d="M123 659q0 164 244 164h639q10 -20 10 -53q0 -172 -244 -172h-635q-14 29 -14 61z" />
<glyph unicode="&#x2011;" horiz-adv-x="1138" d="M123 659q0 164 244 164h639q10 -20 10 -53q0 -172 -244 -172h-635q-14 29 -14 61z" />
<glyph unicode="&#x2012;" horiz-adv-x="1138" d="M123 659q0 164 244 164h639q10 -20 10 -53q0 -172 -244 -172h-635q-14 29 -14 61z" />
<glyph unicode="&#x2013;" horiz-adv-x="1517" d="M123 659q0 164 244 164h1017q10 -20 11 -53q0 -172 -242 -172h-1016q-14 29 -14 61z" />
<glyph unicode="&#x2014;" horiz-adv-x="2152" d="M123 659q0 164 244 164h1652q10 -20 11 -53q0 -172 -242 -172h-1651q-14 29 -14 61z" />
<glyph unicode="&#x2018;" horiz-adv-x="618" d="M123 1473q0 162 100.5 283.5t192.5 121.5q49 0 61 -53q-121 -88 -121 -238q0 -72 36 -131t102 -82q-12 -55 -57.5 -92t-123 -37t-134 64.5t-56.5 163.5z" />
<glyph unicode="&#x2019;" horiz-adv-x="618" d="M123 1759q14 53 59 91t123 38t133.5 -64.5t55.5 -162.5q0 -162 -100.5 -284t-190.5 -122q-51 0 -62 54q121 85 121 235q0 74 -36 133.5t-103 81.5z" />
<glyph unicode="&#x201a;" horiz-adv-x="1474" d="M162 145q16 61 64 104.5t125 43.5t134.5 -77t57.5 -198q0 -170 -101.5 -304t-205.5 -134q-55 0 -70 58q137 104 137 270t-141 237z" />
<glyph unicode="&#x201c;" horiz-adv-x="1079" d="M254 1473q0 162 100.5 283.5t192.5 121.5q53 0 61 -53q-86 -63 -112 -164q45 94 118.5 155.5t128 61.5t66.5 -53q-121 -86 -121 -238q0 -72 36 -131t101 -82q-12 -55 -58 -92t-106.5 -37t-107.5 27q-43 -27 -98 -27q-88 0 -144.5 64.5t-56.5 163.5z" />
<glyph unicode="&#x201d;" horiz-adv-x="1079" d="M123 1749q14 53 59 91t122 38t133.5 -65.5t56.5 -163.5q0 -162 -100.5 -283t-190.5 -121q-49 0 -62 51q121 91 121 238q0 74 -36 133t-103 82zM586 1749q14 53 59 91t122 38t133 -65.5t56 -163.5q0 -162 -100 -283t-190 -121q-51 0 -64 51q121 88 121 238q0 74 -36 132 t-101 83z" />
<glyph unicode="&#x201e;" horiz-adv-x="1474" d="M162 145q16 61 64 104.5t125 43.5t134.5 -77t57.5 -198q0 -170 -101.5 -304t-205.5 -134q-55 0 -70 58q137 104 137 270t-141 237z" />
<glyph unicode="&#x2022;" horiz-adv-x="999" d="M207 808q0 116 104.5 218t221 102t183 -69.5t66.5 -187t-100 -218t-220 -100.5t-187.5 69.5t-67.5 185.5z" />
<glyph unicode="&#x2026;" horiz-adv-x="1998" d="M170 136.5q0 70.5 62.5 131t133 60.5t109.5 -41t39 -111t-60.5 -131t-131 -61t-111.5 41t-41 111.5zM827 136.5q0 70.5 62.5 131t132.5 60.5t109.5 -41t39.5 -111t-60 -131t-132 -61t-112 41t-40 111.5zM1483 136.5q0 70.5 62.5 131t132 60.5t109.5 -41t40 -111 t-60.5 -131t-131 -61t-111.5 41t-41 111.5z" />
<glyph unicode="&#x202f;" horiz-adv-x="417" />
<glyph unicode="&#x2039;" horiz-adv-x="741" d="M106 827q0 74 90.5 199t202 220t164.5 95t72 -43q-150 -188 -207 -287.5t-57 -183.5t58 -184t206 -285q-18 -43 -66 -43q-92 0 -277.5 201t-185.5 311z" />
<glyph unicode="&#x203a;" horiz-adv-x="741" d="M106 358q147 182 205 283.5t58 185.5t-57.5 184.5t-205.5 286.5q4 14 22.5 28.5t43.5 14.5q59 0 171 -95t202 -220t90 -199q0 -111 -185.5 -311.5t-277.5 -200.5q-25 0 -43 15.5t-23 27.5z" />
<glyph unicode="&#x205f;" horiz-adv-x="522" />
<glyph unicode="&#x20ac;" horiz-adv-x="1527" d="M90 559q0 111 172 111h19q-2 18 -2 54t4 101h-183q-10 14 -10 41q0 113 172 113h45q59 250 234.5 391t429.5 141q203 0 342 -72.5t139 -183.5q0 -72 -53 -107.5t-128 -35.5t-128 31q2 16 2 33q0 68 -46 121t-164 53t-219.5 -97.5t-142.5 -273.5h471q8 -10 9 -35 q0 -119 -172 -119h-330q-2 -23 -2 -60.5t4 -94.5h491q8 -10 9 -35q0 -119 -172 -119h-303q84 -307 395 -307q121 0 234.5 59.5t181.5 134.5q27 -6 43 -38.5t16 -65.5q0 -106 -159 -212.5t-390 -106.5t-393 141t-209 395h-197q-10 14 -10 43z" />
<glyph unicode="&#x2122;" horiz-adv-x="2082" d="M37 1454q0 41 29 74q45 -23 133 -23h446q111 0 111 -92q0 -39 -31 -74q-47 25 -129 25h-109v-647q0 -53 37 -74q-33 -47 -112 -47q-111 0 -111 123v645h-156q-109 0 -108 90zM823 637q33 29 35 84l55 661v35t-22 56q68 41 159 40.5t130 -37t67 -124.5l160 -424l149 411 q37 104 85.5 139t131 35t136.5 -26q-18 -27 -18.5 -56.5t-0.5 -39.5l43 -666q4 -78 27 -104q-45 -21 -90 -21q-119 0 -127 109l-41 630l-252 -680q-18 -47 -60 -46t-55.5 12.5t-19.5 36.5l-250 661l-41 -608q-8 -119 -94 -119q-66 0 -107 41z" />
<glyph unicode="&#x25fc;" horiz-adv-x="1075" d="M0 0v1075h1075v-1075h-1075z" />
</font>
</defs>
</svg>
