<?xml version="1.0" standalone="no"?>
<!DOCTYPE svg PUBLIC "-//W3C//DTD SVG 1.1//EN" "http://www.w3.org/Graphics/SVG/1.1/DTD/svg11.dtd" >
<svg xmlns="http://www.w3.org/2000/svg">
<metadata></metadata>
<defs>
<font id="lailamedium" horiz-adv-x="1241" >
<font-face units-per-em="2048" ascent="1638" descent="-410" />
<missing-glyph horiz-adv-x="561" />
<glyph unicode="&#xfb01;" horiz-adv-x="1239" d="M63 -391q102 0 142.5 45t40.5 151v1096q-180 14 -180 88q0 43 32 68q66 -8 135 -8h13v127q0 201 125 298t305 97t288.5 -60.5t108.5 -148.5q0 -61 -61 -94q-33 -18 -70 -18.5t-72 10.5q-57 160 -200 159q-209 0 -209 -235v-135h473q131 0 131 -172v-725q0 -74 55 -99 q-51 -72 -129 -71q-139 0 -139 172v747l-391 -2v-1137q0 -141 -60.5 -211.5t-154.5 -70.5q-131 0 -183 129z" />
<glyph unicode="&#xfb02;" horiz-adv-x="1286" d="M63 -391q102 0 142.5 45t40.5 151v1010q-180 10 -180 88q0 41 32 70q66 -8 135 -8h13v252q0 172 111.5 263t301 91t298 -59.5t108.5 -159.5v-1200q0 -74 55 -99q-51 -72 -129 -71q-139 0 -139 172v1241q-72 33 -170 32.5t-159.5 -52.5t-61.5 -156v-254h223q12 -12 12 -47 t-60.5 -70t-170.5 -35h-4v-1051q0 -141 -60.5 -211.5t-154.5 -70.5q-131 0 -183 129z" />
<glyph horiz-adv-x="0" />
<glyph horiz-adv-x="682" />
<glyph horiz-adv-x="0" />
<glyph horiz-adv-x="0" />
<glyph unicode="&#xd;" horiz-adv-x="681" />
<glyph unicode=" "  horiz-adv-x="561" />
<glyph unicode="&#x09;" horiz-adv-x="561" />
<glyph unicode="&#xa0;" horiz-adv-x="561" />
<glyph unicode="!" horiz-adv-x="739" d="M197 1405q0 78 33.5 133t98 55t97.5 -53t33 -123q0 -25 -2 -49l-56 -719q-6 -57 -6 -114.5t13 -102.5q-27 -31 -62 -31q-86 0 -102 152l-45 815q-2 18 -2 37zM203 101.5q0 56.5 50 104.5t105.5 48t87 -32t31.5 -88t-48 -105t-105.5 -49t-89 32.5t-31.5 89z" />
<glyph unicode="&#x22;" horiz-adv-x="765" d="M102.5 1707q0.5 161 102.5 161q109 0 108.5 -162t-34 -324.5t-71.5 -162.5t-72 163.5t-33.5 324.5zM453 1708q0 160 105.5 160t105.5 -163t-33 -324.5t-71 -161.5t-72.5 164.5t-34.5 324.5z" />
<glyph unicode="#" horiz-adv-x="1662" d="M119 412q0 104 196 104h58l131 445h-197q-12 23 -12 49q0 51 51 78.5t143 27.5h62l61 211q49 170 179 170q78 0 106 -72q-61 -25 -84 -96l-63 -213h368l62 211q29 88 69.5 129t114.5 41t102 -72q-63 -25 -86 -96l-61 -213h213q12 -23 12 -49q1 -106 -196 -106h-76 l-129 -445h215q12 -29 12 -47q0 -106 -196 -107h-76l-62 -208q-53 -172 -188 -172q-68 0 -96 71q57 23 84 99l61 210h-371l-61 -208q-49 -172 -184 -172q-66 0 -99 71q61 23 84 99l62 210h-197q-12 29 -12 50zM571 516h371l131 445h-368z" />
<glyph unicode="$" horiz-adv-x="1298" d="M145 326q0 72 44 115.5t113 43.5t116 -53q-47 -41 -47 -115.5t83 -130t226 -55.5t242.5 69.5t99.5 163t-87 161t-210 117.5t-247 107.5t-211 149.5t-87 211q0 154 121 258.5t299 128.5v117q0 74 -55 98q49 72 131 72q139 0 139 -170v-119q172 -20 274.5 -100t102.5 -185 q0 -63 -36 -100t-89 -37t-111 29q12 37 13 67q0 70 -74 128.5t-206 58.5t-212 -54.5t-80 -138.5t62.5 -145.5t156 -102.5t202 -93t201.5 -102t155.5 -130t62.5 -176q0 -172 -138 -290t-345 -138v-115q0 -72 55 -98q-51 -72 -131 -72q-139 0 -139 172v119q-176 29 -285 119 t-109 215z" />
<glyph unicode="%" horiz-adv-x="1798" d="M154 1064q0 167 94 300t239.5 133t226.5 -111.5t81 -277.5t-99.5 -299t-243 -133t-221 110.5t-77.5 277.5zM301 33q33 20 74 82l913 1298q66 84 121 84t90 -51q-23 -8 -74 -80l-915 -1298q-63 -88 -120.5 -88t-88.5 53zM317 1086.5q0 -109.5 42 -186.5t110 -77t112 76 t44 185.5t-40 186.5t-109.5 77t-114 -76t-44.5 -185.5zM1001 369q0 166 95.5 301t241 135t225 -111.5t79.5 -278.5t-98 -300t-242.5 -133t-222.5 110.5t-78 276.5zM1165 392.5q0 -109.5 43 -186.5t110.5 -77t111 73.5t43.5 185.5t-40 188.5t-109 76.5t-114 -75.5t-45 -185z " />
<glyph unicode="&#x26;" horiz-adv-x="1521" d="M139 418q0 223 230 358q-180 80 -181 303q0 182 127 301t273.5 119t230.5 -57.5t84 -133t-59 -108.5q-33 -20 -69 -20t-68 10q-6 96 -46 140t-116 44t-126 -59.5t-50 -162.5t75.5 -168.5t210.5 -65.5q23 -27 23 -53.5t-19 -57.5q-39 -59 -141 -59q-27 0 -39 2 q-137 -100 -137 -271q0 -141 104.5 -223t273.5 -82t285.5 87t116.5 226q0 106 -50 167t-154 61q-16 29 -16.5 52.5t13.5 43.5q31 41 121 41q162 0 213 57q37 39 37 107q0 29 -6 59q55 25 99 25t79 -23q68 -43 68 -138t-82 -154.5t-246 -59.5q57 -102 57 -236 q0 -213 -160.5 -360t-405.5 -147t-397.5 121.5t-152.5 314.5z" />
<glyph unicode="'" horiz-adv-x="413" d="M98 1608q0 197 107 196q110 0 110 -168q0 -135 -34.5 -276t-72.5 -141t-74 143t-36 246z" />
<glyph unicode="(" horiz-adv-x="970" d="M219 572.5q0 183.5 47 364.5t119 319.5t155 249t159.5 169t134 58.5t75.5 -41q-469 -477 -469 -1119.5t469 -1111.5q-18 -43 -74.5 -43t-132 56.5t-159.5 165t-157 246t-120 320.5t-47 366.5z" />
<glyph unicode=")" horiz-adv-x="970" d="M80 -539q471 471 471 1114q0 399 -158 691q-131 244 -313 426q23 41 85 41t164.5 -94.5t201 -245t169 -372.5t70.5 -448.5t-71.5 -449.5t-171 -371.5t-200 -241t-163 -92.5t-84.5 43z" />
<glyph unicode="*" horiz-adv-x="1187" d="M152 1576q0 58 34.5 85t81.5 27t125 -40t142 -92q-49 135 -50 218q1 161 105 161q115 0 115 -159q0 -82 -56 -224q178 139 277 140q45 0 77.5 -29t32.5 -88t-86 -96q-135 -59 -264 -33q86 -53 154.5 -126t68.5 -124t-33.5 -82t-74.5 -31q-70 0 -125 91.5t-84 205.5 q-27 -113 -82 -206t-127 -93q-43 0 -72.5 34t-29.5 83t68.5 122t150.5 126q-33 -6 -105.5 -4t-157.5 39t-85 95z" />
<glyph unicode="+" horiz-adv-x="1413" d="M131 795q0 129 184 129q72 0 308 -6q-8 238 -9 296q0 180 131 181q18 0 50 -13l-7 -464l484 6q8 -16 8 -43q0 -135 -186 -136l-306 9q6 -246 7 -312q0 -186 -136 -186q-25 0 -41 8l9 490l-484 -9q-12 20 -12 50z" />
<glyph unicode="," horiz-adv-x="598" d="M150 141q8 53 50 92t99 39q84 0 134 -73.5t50 -180.5q0 -158 -84 -277.5t-174 -119.5q-49 0 -61 51q125 88 125 250q0 78 -37 136.5t-102 82.5z" />
<glyph unicode="-" horiz-adv-x="1081" d="M123 666q-1 133 196 133h631q8 -14 8 -45q0 -137 -196 -138h-627q-12 20 -12 50z" />
<glyph unicode="." horiz-adv-x="751" d="M225 124.5q0 61.5 54.5 115t116 53.5t96 -36t34.5 -97.5t-53 -115.5t-114.5 -54t-97.5 36.5t-36 98z" />
<glyph unicode="/" horiz-adv-x="1191" d="M59 -242q27 27 58 113l700 2007q47 137 131 137q51 0 92 -33q-29 -20 -59 -110l-700 -2011q-41 -137 -136 -137q-45 0 -86 34z" />
<glyph unicode="0" horiz-adv-x="1357" d="M113 744.5q0 334.5 153.5 543.5t412.5 209t412.5 -209t153.5 -542.5t-154.5 -548.5t-411.5 -215t-411.5 214t-154.5 548.5zM338 780q0 -315 106.5 -481t257 -166t240.5 178q78 156 78 385q0 33 -2 66q-8 270 -109.5 428t-251 158t-239.5 -179q-80 -158 -80 -389z" />
<glyph unicode="1" horiz-adv-x="743" d="M53 1323q0 57 85 115.5t182.5 58.5t143.5 -52t46 -142v-1151q0 -74 57 -99q-53 -72 -131 -71q-141 0 -141 172v1099q0 70 -65.5 70t-143.5 -51q-33 12 -33 51z" />
<glyph unicode="2" horiz-adv-x="1185" d="M92 131q0 18 4 37q346 270 523.5 480t177.5 415q0 141 -70 218t-169 77t-162.5 -53.5t-63.5 -136.5t76 -126q-49 -66 -128 -65.5t-130.5 48.5t-51.5 128q0 145 137.5 244.5t338 99.5t327.5 -124t127 -318q0 -412 -709 -883l519 25q151 2 223 61q47 -43 47 -108.5 t-62.5 -107.5t-189.5 -42h-608q-82 0 -119 40t-37 91z" />
<glyph unicode="3" horiz-adv-x="1150" d="M88 262q0 61 39 97t82 42q49 -123 150.5 -194.5t224.5 -71.5t200.5 69.5t77.5 170.5q0 139 -118.5 230t-288.5 91q-59 0 -109 -12q-27 18 -27 57t70 83t153 79t152.5 100.5t69.5 148.5t-63.5 131t-159.5 48q-170 0 -312 -112q-45 14 -45 61q0 68 128 142.5t288 74.5 t266.5 -85t106.5 -212t-86 -218t-215 -132q156 -23 260 -136.5t104 -277.5q0 -203 -154.5 -328.5t-375.5 -125.5q-156 0 -287 78.5t-131 201.5z" />
<glyph unicode="4" d="M106 483q0 141 130.5 386t306.5 436.5t290.5 191.5t114.5 -162v-829h82q102 0 144 37q27 -31 26.5 -81t-53.5 -82t-141 -32h-58v-196q0 -74 56 -99q-47 -72 -130 -71q-139 0 -139 172v194h-463q-166 0 -166 135zM274 553q0 -27 14.5 -37t49.5 -10h397v702q0 35 -24 35 q-39 0 -145.5 -133t-199 -302t-92.5 -255z" />
<glyph unicode="5" horiz-adv-x="1148" d="M133 252q0 61 45 99t92 38q39 -113 125 -172t202 -59t190.5 75.5t74.5 190.5q0 156 -113.5 245t-273.5 89q-111 0 -217 -39q-33 0 -57.5 24.5t-24.5 80t94 489.5q18 92 86 130t185 38h227q106 0 158 39q35 -35 35 -88q0 -150 -248 -150h-293l-86 -403q125 55 258 55 q188 0 314 -126t126 -322.5t-146.5 -350t-363.5 -153.5q-152 0 -270.5 74.5t-118.5 195.5z" />
<glyph unicode="6" horiz-adv-x="1255" d="M127 631q0 346 226.5 606t531.5 260q43 0 75.5 -18.5t32.5 -55.5q0 -12 -2 -16q-272 -27 -456.5 -229.5t-184.5 -522.5q0 -238 96.5 -384t260.5 -146q102 0 170.5 69.5t68.5 194.5q0 160 -111.5 259.5t-285.5 99.5h-29q2 74 57.5 115.5t135.5 41.5q190 0 311 -130 t121 -304q0 -225 -140.5 -357t-342.5 -132q-252 0 -393.5 184t-141.5 465z" />
<glyph unicode="7" horiz-adv-x="1011" d="M45 1330.5q0 78.5 70 114.5t164 36h643q18 -23 18 -78t-74.5 -190.5t-165 -280t-165 -338t-74.5 -334.5t90 -170q-6 -33 -40 -70.5t-106.5 -37.5t-122 60t-49.5 145t29 179.5t63.5 175.5t103.5 203.5t110 188t121.5 196t103.5 164.5q-61 -14 -170 -14h-346 q-102 0 -158 -57q-45 29 -45 107.5z" />
<glyph unicode="8" horiz-adv-x="1224" d="M123 397q0 125 67.5 226.5t167.5 156.5q-98 70 -150 147t-52 185q0 147 126 266t311 119t328.5 -111.5t143.5 -293.5q0 -227 -207 -359q244 -152 244 -354q0 -166 -140.5 -281.5t-329 -115.5t-349 113.5t-160.5 301.5zM324 430q0 -127 92 -224t246 -97q96 0 169.5 57 t73.5 156q0 115 -102 194q-86 66 -200 125t-152 82q-127 -123 -127 -293zM346 1163q0 -127 137 -217q61 -43 156.5 -92.5t126.5 -67.5q98 119 98 256.5t-81 235.5t-208 98q-92 0 -160.5 -58t-68.5 -155z" />
<glyph unicode="9" horiz-adv-x="1189" d="M76 1024q0 217 134 345t335 128q254 0 400.5 -186t146.5 -471q0 -215 -94.5 -413t-262.5 -321.5t-364 -123.5q-45 0 -77 18t-32 55q0 12 2 19q264 27 436 229.5t172 499.5q0 229 -98 389t-268 160q-100 0 -170 -66.5t-70 -179.5q0 -168 123 -270.5t295 -102.5h33 q-2 -74 -57.5 -117t-135.5 -43q-197 0 -322.5 139.5t-125.5 311.5z" />
<glyph unicode=":" horiz-adv-x="698" d="M203 130q0 60 55 114.5t115.5 54.5t96.5 -36t36 -98.5t-53.5 -114.5t-116 -52t-98 36t-35.5 96zM203 896q0 60 54 114.5t116.5 54.5t97.5 -36t35 -98.5t-53.5 -114.5t-115 -52t-98 36t-36.5 96z" />
<glyph unicode=";" horiz-adv-x="698" d="M190 160q10 55 52.5 93t99.5 38q88 0 134 -73t46 -171q0 -154 -82 -290t-172 -136q-49 0 -61 51q125 88 125 262q0 78 -38 138.5t-104 87.5zM203 896q0 60 54 114.5t116.5 54.5t97.5 -36t35 -98.5t-53.5 -114.5t-115 -52t-98 36t-36.5 96z" />
<glyph unicode="&#x3c;" horiz-adv-x="1421" d="M92 825q0 80 219 213t456 230.5t308 97.5q35 0 64.5 -19.5t29.5 -64.5q-203 -68 -513 -213.5t-310 -202.5q0 -43 305 -182t525 -199q0 -78 -42 -122t-117 -44t-300 91.5t-425 216.5t-200 198z" />
<glyph unicode="=" horiz-adv-x="1482" d="M164 530q-1 134 194 134h953q8 -16 8 -43q0 -139 -197 -140h-948q-10 27 -10 49zM164 1047q-1 131 194 131h953q8 -10 8 -41q0 -139 -197 -140h-948q-10 27 -10 50z" />
<glyph unicode="&#x3e;" horiz-adv-x="1394" d="M217 485q219 59 525.5 198.5t306.5 182.5q0 57 -311.5 201.5t-514.5 214.5q0 43 30 63.5t64 20.5q70 0 307.5 -97.5t456.5 -230.5t219 -213q0 -74 -199.5 -198.5t-424.5 -216t-301 -91.5t-117 44.5t-41 121.5z" />
<glyph unicode="?" horiz-adv-x="1081" d="M121 1260q0 133 127 222t302 89t288.5 -92.5t113.5 -227.5q0 -170 -121 -293q-49 -53 -100 -101t-86 -103.5t-35 -106.5t29 -84t78 -39q-4 -45 -40 -74.5t-98.5 -29.5t-115.5 52t-53 130t33.5 143.5t80.5 116.5t94 105q115 129 115 274q0 86 -58.5 150.5t-148.5 64.5 t-142 -42t-52 -107.5t33.5 -111.5t91.5 -69q-2 -25 -45 -53.5t-95 -28.5q-88 0 -142 60.5t-54 155.5zM408 104.5q0 55.5 53 103.5t113.5 48t94 -31.5t33.5 -88t-52 -105.5t-113.5 -49t-95 33.5t-33.5 89z" />
<glyph unicode="@" horiz-adv-x="1835" d="M133 500q0 385 247 627.5t621 242.5q301 0 494 -183t193 -449.5t-135.5 -420t-307.5 -153.5q-74 0 -123 34.5t-61 96.5q-115 -129 -301 -129q-119 0 -187.5 55t-68.5 146q0 139 149.5 218t423.5 87l6 121v18q0 78 -31.5 119t-107.5 41t-118 -33t-42 -72t23 -67 q-53 -35 -112.5 -35t-90.5 26.5t-31 67.5q0 92 115 151.5t268.5 59.5t238.5 -69.5t85 -190.5v-23l-25 -426v-12q0 -68 62 -67q92 0 175 111.5t83 318.5q0 254 -163 406.5t-419 152.5q-342 0 -544.5 -212t-202.5 -558q0 -147 45 -259t123 -178q156 -129 377 -129t403 86 q14 -14 14 -37.5t-53 -60.5q-139 -86 -383 -88q-254 0 -438 156q-92 78 -146.5 209t-54.5 301zM717 391q0 -96 125 -96t219 100l10 193q-176 -10 -264 -60q-90 -53 -90 -137z" />
<glyph unicode="A" horiz-adv-x="1370" d="M53 59q49 20 86 113l463 1178q-25 61 -61 90q53 57 122.5 57t103.5 -38t67 -128l401 -1149q35 -98 96 -131q-39 -69 -137 -69q-61 0 -98 30.5t-66 108.5l-72 209h-548l-78 -201q-55 -147 -152 -147q-43 0 -77.5 22.5t-49.5 54.5zM463 475h442l-207 666z" />
<glyph unicode="B" horiz-adv-x="1480" d="M166 1415q231 82 515 82t431.5 -112.5t147.5 -292.5q0 -119 -69 -199t-192 -115q154 -37 255.5 -131t101.5 -246q0 -190 -168 -304.5t-452.5 -114.5t-408.5 73.5t-124 229.5l2 983q0 98 -39 147zM420 276q0 -141 305 -141q193 0 298 73t105 197.5t-105 198.5t-300 74 h-303v-402zM420 827h289q156 0 240.5 70t84.5 185.5t-90 186t-251 70.5t-269 -30z" />
<glyph unicode="C" horiz-adv-x="1423" d="M131 722q0 345 197.5 560t505.5 215q186 0 315 -76.5t129 -185.5q0 -63 -42 -96t-101.5 -33t-102.5 22q2 18 2 37q0 74 -54 130.5t-181 56.5q-176 0 -306.5 -159t-130.5 -444.5t124 -429t343 -143.5q121 0 228.5 52.5t173.5 123.5q49 -14 49 -84q0 -90 -150.5 -188 t-357.5 -98q-287 0 -464 197.5t-177 542.5z" />
<glyph unicode="D" horiz-adv-x="1525" d="M166 1415q231 82 487 82q315 0 541 -184q111 -90 174.5 -238.5t63.5 -337t-63.5 -336t-174.5 -237.5q-223 -182 -541 -182q-254 0 -352 69.5t-98 216.5l2 1000q0 98 -39 147zM420 262q0 -70 43 -98.5t190 -28.5q238 0 394.5 158t156.5 444.5t-156.5 445t-394.5 158.5 q-117 0 -229 -34z" />
<glyph unicode="E" horiz-adv-x="1355" d="M172 1401q57 80 170 80h657q233 0 234 -125q0 -70 -62 -101q-66 49 -196 50h-531v-445h390q127 0 180 -23t53 -84t-55 -96q-63 29 -197 29h-371v-371q0 -76 33 -108.5t107 -32.5h391q125 0 196 84q62 -31 62 -105q1 -72 -57 -112q-58 -41 -179 -41h-434q-172 0 -253 70.5 t-81 228.5v1004q0 74 -57 98z" />
<glyph unicode="F" horiz-adv-x="1282" d="M172 1401q57 80 170 80h666q225 0 225 -115q0 -70 -62 -100q-66 47 -196 47h-531v-463h390q127 0 180 -22t53 -77t-55 -89q-55 26 -187 26h-10h-371v-536q0 -76 56 -99q-52 -71 -129 -71h-2q-139 0 -140 172v1149q0 74 -57 98z" />
<glyph unicode="G" horiz-adv-x="1509" d="M131 670q0 367 213 597t565 230q201 0 330 -81t129 -191q0 -55 -43 -90t-100.5 -35t-100.5 22q2 12 2 27q0 84 -65.5 143.5t-198.5 59.5q-227 0 -361 -169q-135 -170 -135 -454q0 -277 114 -423q114 -148 319 -148q238 0 340 213l2 245h-105q-111 0 -233 -8 q-27 37 -27 78q0 55 72 77.5t240.5 22.5t218 -35.5t49.5 -129.5l-4 -658q0 -74 55 -98q-47 -72 -131 -72q-139 0 -139 170v195q-59 -76 -159.5 -126t-225.5 -50q-256 0 -438.5 184t-182.5 504z" />
<glyph unicode="H" horiz-adv-x="1593" d="M150 1425q47 72 129 72q141 0 141 -170v-508h749v510q0 72 -55 96q47 72 129 72q141 0 141 -170v-1175q0 -76 56 -99q-52 -71 -129 -71h-2q-139 0 -140 172v514h-749v-516q0 -74 55 -99q-48 -71 -129 -71h-2q-139 0 -139 172v1175q0 72 -55 96z" />
<glyph unicode="I" horiz-adv-x="630" d="M150 1425q47 72 129 72q141 0 141 -170v-1175q0 -74 55 -99q-48 -71 -129 -71h-2q-139 0 -139 172v1175q0 72 -55 96z" />
<glyph unicode="J" horiz-adv-x="854" d="M51 141.5q0 61.5 31 91.5q99 -75 224 -75h3q172 0 172 166v1005q0 74 -55 96q49 72 131 72q139 0 139 -170v-995q0 -170 -96 -260t-242.5 -90t-226.5 49t-80 110.5z" />
<glyph unicode="K" horiz-adv-x="1392" d="M150 1425q47 72 129 72q141 0 141 -170v-506l498 539q72 78 119.5 107.5t105 29.5t95.5 -38t50 -93q-76 -16 -155 -92l-525 -510l537 -553q78 -84 164 -92q-13 -60 -55 -98.5t-99 -38.5t-109.5 37.5t-146.5 136.5l-479 501v-505q0 -74 55 -99q-48 -71 -129 -71h-2 q-139 0 -139 172v1175q0 72 -55 96z" />
<glyph unicode="L" horiz-adv-x="1187" d="M158 1425q51 72 131 72q141 0 141 -170v-1022q0 -76 33 -108.5t106 -32.5h301q121 0 183 84q55 -23 55 -91.5t-57.5 -112.5t-176.5 -44h-335q-172 0 -249 65.5t-77 223.5v1040q0 72 -55 96z" />
<glyph unicode="M" horiz-adv-x="1966" d="M129 35q41 35 47 125l86 1155v22q0 68 -33 107q88 53 184.5 53t149.5 -53t90 -168l330 -891l340 887q41 127 103.5 176t148.5 49t160 -37q-33 -45 -33 -112v-23l80 -1161q4 -107 35 -146q-54 -35 -115 -35q-1 1 -2 1q-62 0 -95.5 36.5t-41.5 122.5l-72 1096l-434 -1159 q-23 -66 -90.5 -66t-89.5 66l-428 1159l-72 -1089q-6 -88 -35 -128t-94.5 -40t-118.5 53z" />
<glyph unicode="N" horiz-adv-x="1626" d="M166 1425q53 72 135 72t133 -35t103 -114l661 -1059v1040q0 72 -55 96q49 72 131 72q141 0 141 -170v-1175q0 -74 43 -111q-45 -59 -127 -59t-144.5 50t-133.5 163l-615 968v-1011q0 -76 56 -99q-52 -71 -130 -71h-2q-139 0 -139 172v1175q0 72 -57 96z" />
<glyph unicode="O" horiz-adv-x="1589" d="M143 739q0 344 173 551t480.5 207t477.5 -205t170 -550t-171 -552.5t-477.5 -207.5t-479.5 206.5t-173 550.5zM360 811q0 -340 152 -526q127 -156 323.5 -156t303.5 176q90 145 90 363q0 45 -4 94q-18 276 -145.5 433t-325 157t-303.5 -176q-90 -147 -91 -365z" />
<glyph unicode="P" horiz-adv-x="1277" d="M141 1401q57 80 170 80h346q242 0 395.5 -124t153.5 -341t-153.5 -341t-395.5 -124h-245v-399q0 -74 57 -99q-52 -71 -131 -71h-2q-139 0 -139 172v1149q0 74 -56 98zM412 698h221q162 0 248 87t86 229.5t-86 229.5t-248 87h-221v-633z" />
<glyph unicode="Q" horiz-adv-x="1628" d="M166 760q0 315 192.5 526t476 211t464 -182t180.5 -481q0 -340 -193.5 -562.5t-515.5 -302.5q92 -92 221 -142t260 -50t224 78q33 -36 33 -86q0 -51 -26 -98q-26 -46 -94.5 -79.5t-189.5 -33.5t-270.5 77.5t-239.5 179t-90 177.5q0 29 29.5 50t117.5 50q233 82 367.5 259 t134.5 437.5t-128 410t-317.5 149.5t-300 -143.5t-110.5 -367t97.5 -342t263.5 -126.5q-14 -61 -60.5 -102.5t-113.5 -41.5q-162 0 -287 155t-125 380z" />
<glyph unicode="R" horiz-adv-x="1318" d="M141 1401q57 80 170 80h330q242 0 396.5 -118t154.5 -327q0 -166 -100.5 -274.5t-268.5 -147.5l307 -419q59 -82 142 -99q-56 -114 -158 -114q-70 0 -116 33.5t-109 127.5l-309 451h-168v-442q0 -74 57 -99q-52 -71 -131 -71h-2q-139 0 -139 172v1149q0 74 -56 98z M412 756h221q164 0 249 72.5t85 205.5t-85 208t-249 75h-221v-561z" />
<glyph unicode="S" horiz-adv-x="1353" d="M145 326q0 72 44 115.5t113 43.5t116 -53q-47 -41 -47 -115.5t83 -130t226 -55.5t242.5 69.5t99.5 163t-87 161t-210 117.5t-247 107.5t-211 149.5t-87 211q0 174 153.5 283.5t367.5 109.5t352.5 -85t138.5 -208q0 -63 -36 -100t-89 -37t-111 29q12 37 13 67 q0 70 -74 128.5t-206 58.5t-212 -54.5t-80 -138.5t62.5 -145.5t156 -102.5t202 -93t201.5 -102t155.5 -130t62.5 -176q0 -186 -163 -309t-393 -123t-383 97t-153 247z" />
<glyph unicode="T" horiz-adv-x="1183" d="M35 1423q0 49 37 86q59 -28 168 -28h772q139 0 139 -111q0 -49 -39 -88q-61 31 -166 31h-248v-1161q0 -74 56 -99q-48 -71 -127 -71h-2q-141 0 -142 172v1159h-311q-137 0 -137 110z" />
<glyph unicode="U" horiz-adv-x="1472" d="M145 1425q53 72 131 72q139 0 140 -170v-825q0 -348 349 -348t349 348v827q0 72 -57 96q49 72 131 72q139 0 139 -170v-797q0 -258 -137 -403t-423 -145t-425 146t-139 402v799q0 72 -58 96z" />
<glyph unicode="V" horiz-adv-x="1368" d="M12 1423q63 74 148 74q55 0 92 -36t67 -120l396 -1134l391 1069q24 70 24 119t-24 78q52 29 110 29h2q60 0 95 -33t35 -86.5t-23 -106.5l-453 -1133q-39 -96 -72.5 -128.5t-103 -32.5t-101.5 32.5t-67 128.5l-430 1162q-35 90 -86 118z" />
<glyph unicode="W" horiz-adv-x="2037" d="M35 1417q51 80 145 80q61 0 100 -40t60 -138l264 -1110l305 1159q20 72 58.5 100.5t99.5 28.5q127 0 158 -129l291 -1165l262 1081q8 37 8 68q0 66 -43 100q49 45 117 45q135 0 135 -133q0 -23 -13 -88l-303 -1129q-41 -166 -176 -166l-1 1q-136 0 -173 165l-276 1043 l-281 -1043q-20 -90 -63 -127.5t-115 -37.5t-112 35.5t-62 129.5l-299 1141q-27 102 -86 129z" />
<glyph unicode="X" horiz-adv-x="1316" d="M37 1370q16 57 58 92t97.5 35t95.5 -26.5t83 -92.5l323 -493l305 422q39 53 39 93t-37 66q66 35 128.5 35t97.5 -32.5t35 -90t-56 -133.5l-401 -532l330 -504q61 -96 143 -103q-16 -55 -56 -89.5t-94.5 -34.5t-93.5 26.5t-84 91.5l-291 447l-319 -449q-83 -116 -174 -116 h-2q-53 0 -87 34.5t-34 92.5v12q70 0 119 69l387 527l-363 553q-63 96 -149 100z" />
<glyph unicode="Y" horiz-adv-x="1255" d="M27 1378q35 119 143.5 119t183.5 -133l295 -516l301 450q39 53 39 94.5t-31 73.5q57 31 122 31t99.5 -29.5t34.5 -83t-45 -120.5l-430 -609l-2 -512q0 -80 35 -125q-51 -34 -117 -34q-133 0 -133 180l2 487l-374 647q-51 78 -123 80z" />
<glyph unicode="Z" horiz-adv-x="1288" d="M92 169q0 77 94 177l797 967q-313 -39 -588.5 -39t-275.5 143q0 53 39 92q81 -28 221 -28h10h600q88 0 143.5 -47.5t55.5 -122t-94 -181.5l-793 -966l627 31q145 6 221 53q41 -42 41 -105q0 -143 -281 -143h-616q-90 0 -145.5 46t-55.5 123z" />
<glyph unicode="[" horiz-adv-x="837" d="M135 -182v2035h434q156 0 156 -110q0 -23 -8 -39h-367v-1952h219q156 0 156 -108q0 -25 -8 -37h-375q-104 0 -154 45q-53 51 -53 166z" />
<glyph unicode="\" horiz-adv-x="1191" d="M131 2001q39 31 90 31q84 0 131 -138q137 -379 377 -1075t324 -930q33 -92 59 -112q-39 -35 -88 -35q-88 0 -135 139q-61 174 -259 745.5t-442 1263.5q-31 90 -57 111z" />
<glyph unicode="]" horiz-adv-x="837" d="M137 -285q0 4 8 37h367v1954h-217q-158 0 -158 109q0 6 8 38h375q104 0 152 -45q55 -51 55 -168v-2033h-432q-158 0 -158 108z" />
<glyph unicode="^" horiz-adv-x="1265" d="M131 611.5q0 60.5 47 146.5l318 569q51 92 117.5 92t107.5 -90l414 -819q-45 -37 -88 -37q-80 0 -146 135l-283 561l-356 -684q-53 0 -92 33t-39 93.5z" />
<glyph unicode="_" horiz-adv-x="1206" d="M-2 -295q0 133 195 133h1007q6 -16 6 -43q0 -139 -194 -139h-1004q-10 25 -10 49z" />
<glyph unicode="`" horiz-adv-x="503" d="M25 1202l157 244q45 74 85 103.5t101.5 29.5t92.5 -51q18 -29 18 -60.5t-10 -62.5q-18 6 -52 6t-77 -39l-186 -174q-39 -35 -72 -35q-39 0 -57 39z" />
<glyph unicode="a" horiz-adv-x="1103" d="M102 244q0 152 156 245t455 101v143q0 111 -40 163t-123 52t-126 -35.5t-43 -86t29 -81.5q-51 -45 -119 -45t-106 34t-38 93q0 102 119 172t288 70t271.5 -88t102.5 -254v-520q0 -115 102 -135q-51 -90 -158 -90q-137 0 -157 153q-118 -153 -315 -153h-3 q-131 0 -213 69.5t-82 192.5zM334 266q0 -131 143.5 -131t235.5 121v231q-195 -10 -287 -70.5t-92 -150.5z" />
<glyph unicode="b" horiz-adv-x="1200" d="M117 1501q51 70 133 70q139 0 139 -172v-481q111 152 295 152h1q185 0 314 -135.5t129 -387.5t-152.5 -407.5t-383.5 -157.5q-420 0 -420 346l2 1073q0 74 -57 100zM387 328q0 -201 213 -201q143 0 226 110.5t83 292t-78.5 278.5t-193.5 97q-164 0 -250 -172v-405z" />
<glyph unicode="c" horiz-adv-x="1024" d="M100 489.5q0 241.5 154 410.5t381 169q131 0 216 -60.5t85 -150.5q0 -57 -35 -89t-87 -32t-87 25q6 20 6 62t-33.5 75t-101.5 33q-111 0 -198 -112.5t-87 -298t85 -280t212 -94.5q172 0 285 113q31 -16 31 -65q0 -78 -105.5 -145.5t-245.5 -67.5q-205 0 -340 133 t-135 374.5z" />
<glyph unicode="d" horiz-adv-x="1189" d="M86 503q0 245 142.5 405.5t355.5 160.5q119 0 221 -51v383q0 72 -57 100q49 70 131 70q141 0 141 -172v-1247q0 -74 55 -99q-52 -71 -129 -71h-2q-129 0 -139 145q-92 -145 -275.5 -145t-313.5 138t-130 383zM311 517.5q0 -191.5 74 -287t193 -95.5q176 0 227 178v537 q-78 78 -200 78t-208 -109.5t-86 -301z" />
<glyph unicode="e" horiz-adv-x="1028" d="M100 489.5q0 243.5 147.5 411.5t350.5 168q160 0 260 -107.5t100 -244.5q0 -100 -52 -147.5t-173 -49.5l-414 -14q3 -187 85.5 -276t235.5 -89t267 115q35 -18 35 -63q0 -76 -104.5 -143.5t-245.5 -67.5q-221 0 -356.5 132t-135.5 375.5zM326 614l333 31q80 6 80 92 t-46 142.5t-130 56.5t-152.5 -84t-84.5 -238z" />
<glyph unicode="f" horiz-adv-x="749" d="M63 -391q102 0 142.5 45t40.5 151v1010q-180 10 -180 88q0 41 32 70q66 -8 135 -8h13v270q0 162 91 249t220 87t199.5 -51.5t70.5 -114t-43 -74.5q-78 88 -176 88q-147 0 -147 -180v-274h301q12 -16 12 -39q0 -45 -65.5 -79t-216.5 -34h-31v-1051q0 -141 -60.5 -211.5 t-154.5 -70.5q-131 0 -183 129z" />
<glyph unicode="g" horiz-adv-x="1146" d="M59 -254q0 66 41 105.5t101 46.5q10 -248 358 -248q164 0 253 46t89 122q0 88 -131 88h-281q-150 0 -247 56t-97 178t148 188q-162 117 -162 317.5t124 312t294 111.5q121 0 221 -59q12 106 71.5 170.5t132.5 64.5t112.5 -38t39.5 -101.5t-49 -91.5q-47 35 -100 35 q-94 0 -123 -105q111 -115 111 -294t-124 -290.5t-292 -111.5q-78 0 -152 24q-75 -23 -75 -78q0 -48 44 -68t142 -20h248q150 0 228.5 -68.5t78.5 -187.5q0 -158 -154.5 -263t-382 -105t-347.5 79t-120 185zM346 702q0 -172 65.5 -259t151.5 -87t136.5 74t50.5 193 q0 168 -67 251.5t-152 83.5t-135 -72.5t-50 -183.5z" />
<glyph unicode="h" d="M123 1501q49 70 131 70q139 0 139 -172v-572q53 111 151.5 176.5t229.5 65.5t214 -90t83 -268v-559q0 -74 57 -99q-52 -71 -129 -71h-2q-139 0 -139 172v536q0 199 -174 199q-92 0 -175 -78t-116 -211v-448q0 -74 58 -99q-52 -71 -130 -71h-2q-139 0 -139 172v1247 q0 72 -57 100z" />
<glyph unicode="i" horiz-adv-x="567" d="M123 997q53 72 131 72q139 0 139 -174v-743q0 -74 58 -99q-52 -71 -130 -71h-2q-139 0 -139 172v743q0 72 -57 100zM125 1377.5q0 62.5 55.5 106.5t114.5 44t99 -36t40 -95.5t-51 -107.5t-115.5 -48t-103.5 37t-39 99.5z" />
<glyph unicode="j" horiz-adv-x="567" d="M-4 -391q106 0 145 45t39 151v1092q0 72 -57 100q53 72 131 72q139 0 139 -174v-1133q0 -141 -60.5 -211.5t-152.5 -70.5q-131 0 -184 129zM125 1377.5q0 62.5 55.5 106.5t114.5 44t99 -36t40 -95.5t-51 -107.5t-115.5 -48t-103.5 37t-39 99.5z" />
<glyph unicode="k" horiz-adv-x="1159" d="M123 1501q49 70 131 70q139 0 139 -172v-774q428 190 428 444q88 0 142.5 -41t54.5 -108q0 -106 -122 -197.5t-337 -159.5q229 -270 334 -334q59 -39 98 -49t94 -10q0 -84 -42 -136t-115 -52q-100 0 -203.5 105.5t-331.5 424.5v-360q0 -74 58 -99q-52 -71 -130 -71h-2 q-139 0 -139 172v1247q0 72 -57 100z" />
<glyph unicode="l" horiz-adv-x="573" d="M123 1501q49 70 131 70q139 0 139 -172v-1247q0 -74 58 -99q-52 -71 -130 -71h-2q-139 0 -139 172v1247q0 72 -57 100z" />
<glyph unicode="m" horiz-adv-x="1923" d="M123 997q53 72 131 72q139 0 139 -174v-68q53 111 151.5 176.5t218.5 65.5t198.5 -65.5t101.5 -192.5q49 117 151.5 187.5t235.5 70.5t216 -91t83 -267v-559q0 -74 55 -99q-46 -71 -127 -71h-2q-141 0 -141 172v536q0 199 -172 199q-92 0 -175 -78t-116 -211v-448 q0 -74 57 -99q-52 -71 -129 -71h-2q-139 0 -139 172v536q0 199 -174 199q-92 0 -175 -78t-116 -211v-448q0 -74 58 -99q-52 -71 -130 -71h-2q-139 0 -139 172v743q0 72 -57 100z" />
<glyph unicode="n" d="M123 997q53 72 131 72q139 0 139 -174v-68q53 111 151.5 176.5t229.5 65.5t214 -90t83 -268v-559q0 -74 57 -99q-52 -71 -129 -71h-2q-139 0 -139 172v536q0 199 -174 199q-92 0 -175 -78t-116 -211v-448q0 -74 58 -99q-52 -71 -130 -71h-2q-139 0 -139 172v743 q0 72 -57 100z" />
<glyph unicode="o" horiz-adv-x="1198" d="M100 525q0 259 143.5 401.5t355.5 142.5t355.5 -143.5t143.5 -401.5t-143.5 -400t-354.5 -142t-355.5 142t-144.5 401zM317 578q0 -252 88.5 -362t215.5 -110t193.5 96.5t66.5 270.5q0 254 -86 361.5t-214 107.5t-196 -94t-68 -270z" />
<glyph unicode="p" horiz-adv-x="1208" d="M123 997q53 72 131 72q127 0 139 -147q109 147 293 147t313 -142.5t129 -400.5t-141 -401t-330 -143q-154 0 -264 106v-436q0 -74 58 -98q-53 -74 -132 -74q-139 0 -139 174v1243q0 72 -57 100zM393 264q88 -131 244 -131q113 0 192.5 106.5t79.5 284.5t-78.5 279.5 t-193.5 101.5q-162 0 -244 -162v-479z" />
<glyph unicode="q" horiz-adv-x="1167" d="M86 502.5q0 240.5 140.5 403.5t351.5 163q141 0 239 -102q33 102 146 102h57v-1417q0 -74 55 -98q-53 -74 -131 -74q-139 0 -139 174v436q-104 -109 -272 -109q-1 0 -1 1q-170 0 -308 140t-138 380.5zM311 518.5q0 -190.5 79 -289t204 -98.5t211 121v453 q0 104 -57.5 163.5t-143.5 59.5q-125 0 -209 -109.5t-84 -300z" />
<glyph unicode="r" horiz-adv-x="905" d="M123 997q53 72 131 72q139 0 139 -174v-41q82 215 281 215q98 0 153.5 -51t55.5 -126t-38 -115t-100 -40q-2 0 -51 6q6 31 6 67t-27.5 63.5t-82.5 27.5t-113.5 -60.5t-83.5 -189.5v-499q0 -74 58 -99q-52 -71 -130 -71h-2q-139 0 -139 172v743q0 72 -57 100z" />
<glyph unicode="s" horiz-adv-x="1042" d="M100 225q0 68 41 106t101.5 38t99.5 -45q-31 -37 -31 -90.5t52.5 -88t149.5 -34.5t156.5 41t59.5 102t-60.5 107.5t-145.5 83t-171 77.5t-146.5 104.5t-60.5 143.5q0 125 114 212t273.5 87t273.5 -60.5t114 -156.5q0 -51 -35 -81t-89.5 -30t-97.5 31q11 21 11 62 q0 40 -43 73t-126 33t-132.5 -37t-49.5 -91t60.5 -98t146.5 -82t173 -81t147.5 -110.5t60.5 -149.5q0 -131 -122 -220t-305 -89t-300 68.5t-119 174.5z" />
<glyph unicode="t" horiz-adv-x="835" d="M23 993q0 41 30 64q57 -8 109 -8h22v135q0 74 -57 98q49 72 129 72q143 0 143 -172v-133h332q12 -18 12 -37q0 -113 -319 -113h-25v-620q0 -74 28 -106t91 -32q125 0 230 105q45 -8 45 -74t-93.5 -128t-229.5 -62t-211 70.5t-75 209.5v637q-84 2 -122.5 27.5t-38.5 66.5z " />
<glyph unicode="u" d="M123 997q53 72 131 72q139 0 139 -174v-541q0 -198 197 -198h2q90 0 159.5 52t106.5 150v539q0 72 -57 100q57 72 131 72q139 0 139 -174v-743q0 -74 57 -99q-52 -71 -129 -71h-2q-139 0 -139 172v14q-111 -186 -321 -186q-170 0 -263.5 89t-93.5 267v559q0 72 -57 100z " />
<glyph unicode="v" horiz-adv-x="1087" d="M35 967q8 45 48 73.5t89 28.5q125 0 166 -156l215 -786l260 721q21 54 21 103q0 47 -29 81q53 37 110.5 37t91 -32.5t33.5 -81t-26 -119.5l-271 -678q-37 -96 -77.5 -135t-116.5 -39t-119 38.5t-74 135.5l-235 712q-29 82 -86 97z" />
<glyph unicode="w" horiz-adv-x="1642" d="M35 967q33 102 143 102q127 0 162 -170l166 -752l194 768q23 84 63 119t109.5 35t111.5 -35t60 -119l183 -780l168 742q10 47 10 92t-25 71q51 29 115 29t92 -61q15 -32 15 -73q0 -38 -13 -81l-192 -696q-27 -96 -69 -136t-120 -40t-122 42t-66 134l-162 637l-158 -637 q-25 -94 -69.5 -135t-126.5 -41t-126 39.5t-69 136.5l-186 702q-23 92 -88 107z" />
<glyph unicode="x" horiz-adv-x="1058" d="M45 88q57 12 109 82l245 342l-243 346q-63 94 -111 105q8 49 43 77.5t84 28.5q92 0 172 -111l197 -282l198 291q68 102 158 102q47 0 84 -29.5t43 -76.5q-63 -18 -111 -84l-262 -365l240 -344q45 -68 115 -94q-14 -43 -52.5 -68.5t-89.5 -25.5q-94 0 -176 118l-176 252 l-174 -260q-71 -110 -166 -110h-2q-45 0 -81 29.5t-44 76.5z" />
<glyph unicode="y" horiz-adv-x="1144" d="M66 1004q53 66 121 66h1q70 -1 107 -40t59 -123l254 -796l273 766q16 45 16 87t-25 72q45 33 113 33t109 -63q18 -31 18 -73t-20 -95l-416 -1094q-100 -264 -289 -264q-76 0 -120 38t-44 95t33 96q39 -43 102 -43q94 0 138 127l67 189h-6q-53 0 -97 36.5t-67 106.5 l-256 762q-31 94 -71 117z" />
<glyph unicode="z" horiz-adv-x="1034" d="M119 151.5q0 67.5 78 145.5l557 600q-240 -31 -381 -31q-246 0 -246 125q0 49 33 82q75 -24 195 -24h10h397q84 0 130 -42t46 -110t-78 -147l-549 -598l385 16q131 2 203 55q35 -34 35 -102q0 -121 -246 -121h-393q-84 0 -130 42t-46 109.5z" />
<glyph unicode="{" horiz-adv-x="909" d="M170 727q0 18 23.5 38.5t51 41t51 75t23.5 131.5t-21.5 257t-21.5 254q0 193 89.5 291t197 98t150.5 -60q-102 -14 -165 -85.5t-63 -190.5q0 -63 21.5 -277.5t21.5 -279t-18 -115.5t-45 -82.5t-55 -56.5q-53 -41 -78 -41q33 -6 106 -66q37 -33 63.5 -92t26.5 -130.5 t-21.5 -292t-21.5 -285.5q0 -119 62.5 -189.5t165.5 -87.5q-43 -59 -150.5 -59t-197 97t-89.5 290q0 78 21.5 264t21.5 264t-23.5 131.5t-51 75t-51 43t-23.5 39.5z" />
<glyph unicode="|" horiz-adv-x="630" d="M150 1812q45 70 129 70q141 0 141 -170v-1927q0 -74 55 -98q-49 -72 -131 -72q-139 0 -139 172v1927q0 72 -55 98z" />
<glyph unicode="}" horiz-adv-x="909" d="M170 -418q100 16 162.5 87t62.5 190q0 66 -20.5 286t-20.5 291.5t27 131t65 91.5q72 59 105 66q-25 0 -66 33t-67 65q-63 74 -64 195q0 68 20.5 281.5t20.5 277.5q0 119 -62.5 190.5t-162.5 85.5q43 59 150.5 59.5t195.5 -97.5t88 -291q0 -74 -21.5 -254t-21.5 -257 t23.5 -131.5t52.5 -75t52.5 -41t23.5 -38.5t-23.5 -39.5t-52.5 -43t-52.5 -75t-23.5 -131.5t21.5 -264t21.5 -264q0 -193 -89 -290t-195.5 -97t-149.5 59z" />
<glyph unicode="~" horiz-adv-x="1413" d="M193 775q0 83 63 138.5t154.5 55.5t300 -61.5t276.5 -61.5q121 0 131 112q61 -27 61.5 -106.5t-63 -134.5t-157 -55t-300 61t-268 61t-96.5 -29.5t-39 -80.5q-63 18 -63 101z" />
<glyph unicode="&#xa1;" horiz-adv-x="684" d="M205 -332q0 18 2 39l43 815q14 150 102 150q39 0 64 -29q-12 -47 -12.5 -103.5t6.5 -113.5l55 -719q2 -25 2 -72t-34 -100t-98.5 -53t-97 54t-32.5 132zM211 941q0 56 49 105.5t105.5 49.5t88 -33t31.5 -90.5t-49 -104.5t-104.5 -47t-88 32t-32.5 88z" />
<glyph unicode="&#xa2;" horiz-adv-x="1024" d="M100 487.5q0 194.5 103.5 347t269.5 207.5v136q0 74 -57 98q53 72 131 72q141 0 141 -172v-109q111 -12 179.5 -69.5t68.5 -127t-35 -101.5t-87 -32t-87 25q6 20 6 62t-33.5 75t-101.5 33q-111 0 -198 -112.5t-87 -298t85 -280t212 -94.5q172 0 285 113q31 -16 31 -74.5 t-83 -121t-202 -78.5v-115q0 -72 55 -98q-53 -72 -131 -72q-141 0 -141 172v129q-147 45 -235.5 168t-88.5 317.5z" />
<glyph unicode="&#xa3;" horiz-adv-x="1275" d="M84 727q0 102 152 102h141q-6 166 -6 209q0 205 134 332t291.5 127t238.5 -66.5t81 -152.5q0 -59 -40 -99t-105 -49q-18 90 -71.5 157t-134.5 67t-123 -70t-42 -176.5t8 -278.5h363q6 -10 6 -32q0 -106 -152 -107h-211v-92q0 -94 -26.5 -203.5t-89.5 -150.5 q63 -6 234 -40t287 -34t204 76q18 -29 18 -74q0 -74 -67.5 -132t-184.5 -58t-322.5 35.5t-321.5 35.5t-202 -69q-20 29 -20 81t48 103t132 70q27 25 41 49q43 68 43 213t-4 190h-291q-8 25 -8 37z" />
<glyph unicode="&#xa4;" horiz-adv-x="1345" d="M133 356l170 166q-66 104 -65.5 243.5t57.5 238.5l-162 159q16 55 72 66q23 12 45 12q53 0 117 -63l47 -48q113 72 259 72t259 -72l45 48q63 63 119 63q23 0 45 -12q51 -10 71 -66l-161 -162q55 -98 55 -236t-66 -243l172 -166q-16 -53 -71 -63q-23 -12 -47 -12 q-53 0 -115 61l-61 59q-102 -63 -242.5 -63t-249.5 65l-61 -61q-63 -59 -117 -59q-23 0 -43 10q-55 10 -72 63zM422 819q0 -23 2 -49q22 -313 272 -313q115 0 172.5 69.5t57.5 192.5q0 199 -81 281.5t-194 82.5q-229 0 -229 -264z" />
<glyph unicode="&#xa5;" horiz-adv-x="1310" d="M27 1378q35 119 143.5 119t183.5 -133l295 -516l301 450q39 53 39 94.5t-31 73.5q57 31 122 31t99.5 -29.5t34.5 -83t-45 -120.5l-329 -467h288q8 -16 9 -33q0 -106 -162 -107h-234l-2 -2v-155h389q8 -16 9 -35q0 -104 -162 -105h-238v-217q0 -80 35 -125 q-51 -35 -117 -34q-133 0 -133 180v196h-375q-8 12 -8 35q0 104 162 105h223v151l-4 6h-373q-8 12 -8 37q0 102 162 103h139l-290 501q-51 78 -123 80z" />
<glyph unicode="&#xa6;" horiz-adv-x="630" d="M152 590q49 72 131 72q139 0 139 -170v-510q0 -74 55 -99q-49 -72 -129 -71q-139 0 -139 172v510q0 72 -57 96zM152 1686q51 72 131 71q139 0 139 -172v-508q0 -74 55 -100q-49 -70 -129 -70q-139 0 -139 170v510q0 74 -57 99z" />
<glyph unicode="&#xa7;" horiz-adv-x="1353" d="M195 -473q0 72 45 116t112.5 44t104.5 -54q-41 -53 -41 -122.5t71.5 -124t199.5 -54.5t216 70t88 159t-78.5 152.5t-190.5 114.5t-223.5 109.5t-190.5 154.5t-79 223t72 207t172 80q49 0 98 -22q-147 -61 -147 -213q0 -94 79 -167t190.5 -125t223 -108.5t190.5 -146.5 t79 -207q0 -186 -147.5 -309t-355.5 -123t-348 97t-140 249zM229 1104q0 174 138.5 283.5t333 109.5t319.5 -85t125 -208q0 -63 -33 -99t-91 -36t-99 29q10 37 10 65q0 72 -67.5 129.5t-186.5 57.5t-186.5 -51.5t-67.5 -138.5t79 -154.5t190.5 -122t223 -114.5t190.5 -154.5 t79 -215t-81 -204.5t-177 -84q-57 0 -107 24q80 27 125 89.5t45 143.5t-78.5 150.5t-190.5 120.5t-223.5 107.5t-190.5 147.5t-79 210z" />
<glyph unicode="&#xa8;" horiz-adv-x="645" d="M25 1324q0 52 46 97t97 45t81 -30.5t30 -83t-45.5 -97.5t-97.5 -45t-81.5 31t-29.5 83zM367 1324q0 52 46 97t97 45t81 -30.5t30 -83t-45.5 -97.5t-97.5 -45t-81.5 31t-29.5 83z" />
<glyph unicode="&#xa9;" horiz-adv-x="1779" d="M147 735q0 332 211 548t531.5 216t531.5 -216t211 -548t-211 -542.5t-531.5 -210.5t-531.5 210.5t-211 542.5zM258 736.5q0 -283.5 172 -474t458 -190.5t459 190.5t173 474t-172 477t-458 193.5t-459 -193.5t-173 -477zM469 718q0 208 134 365.5t333 157.5 q121 0 205 -58.5t84 -146.5q0 -47 -32 -75.5t-78 -28.5t-79 20q4 20 4 35q0 53 -35.5 91t-99.5 38q-113 0 -180.5 -108.5t-67.5 -270.5t77 -248t196 -86q156 0 260 127q31 -12 31 -57q0 -74 -98.5 -144.5t-233.5 -70.5q-186 0 -303 126t-117 334z" />
<glyph unicode="&#xaa;" horiz-adv-x="1103" d="M102 244q0 152 156 245t455 101v143q0 111 -40 163t-123 52t-126 -35.5t-43 -86t29 -81.5q-51 -45 -119 -45t-106 34t-38 93q0 102 119 172t288 70t271.5 -88t102.5 -254v-520q0 -115 102 -135q-51 -90 -158 -90q-137 0 -157 153q-119 -154 -318 -153q-131 0 -213 69.5 t-82 192.5zM334 266q0 -131 143.5 -131t235.5 121v231q-195 -10 -287 -70.5t-92 -150.5z" />
<glyph unicode="&#xab;" horiz-adv-x="1239" d="M135 828.5q0 72.5 88 198.5t193.5 221t153.5 95t67 -43q-145 -174 -204.5 -277t-59.5 -194.5t60.5 -197t203.5 -273.5q-18 -43 -66.5 -43t-154 95.5t-193.5 220.5t-88 197.5zM602 828.5q0 72.5 88 198.5t194.5 221t153.5 95t66 -43q-146 -176 -205 -278t-59 -193.5 t60.5 -196t203.5 -274.5q-18 -43 -65.5 -43t-154 95.5t-194.5 220.5t-88 197.5z" />
<glyph unicode="&#xac;" horiz-adv-x="1572" d="M113 870q0 111 170 111h934q94 0 134 -35t40 -115v-213q0 -74 55 -100q-49 -72 -131 -72q-139 0 -139 172v158q0 29 -13.5 38t-42.5 9h-995q-12 31 -12 47z" />
<glyph unicode="&#xad;" horiz-adv-x="1081" d="M123 666q-1 133 196 133h631q8 -14 8 -45q0 -137 -196 -138h-627q-12 20 -12 50z" />
<glyph unicode="&#xae;" horiz-adv-x="1384" d="M137 1114q0 250 157 405.5t397.5 155.5t397 -155.5t156.5 -405.5t-155.5 -404.5t-397 -154.5t-398.5 154.5t-157 404.5zM223 1114q0 -205 128 -345t340 -140t340 140t128 346t-127 345t-338 139t-341 -140t-130 -345zM453 1438q25 35 75 35h158q117 0 191.5 -56.5 t74.5 -141.5t-48 -137.5t-132 -70.5l146 -195q24 -37 63 -47q-23 -51 -86.5 -51t-110.5 74l-145 211h-43v-205q0 -35 27 -47q-29 -33 -74 -33q-74 0 -74 80v539q0 29 -22 45zM598 1145h78q147 0 147 120.5t-147 120.5h-78v-241z" />
<glyph unicode="&#xaf;" horiz-adv-x="772" d="M25 1293q0 32 32.5 55.5t87.5 23.5h590q12 -16 12.5 -47t-33.5 -55.5t-87 -24.5h-590q-12 16 -12 48z" />
<glyph unicode="&#xb0;" horiz-adv-x="1302" d="M137 1430.5q0 140.5 93.5 228.5t236.5 88t234.5 -87t91.5 -227.5t-93.5 -229.5t-235.5 -89t-234.5 88t-92.5 228.5zM291 1432.5q0 -78.5 49 -130t126 -51.5t124 50.5t47 129t-48 130t-125 51.5t-125 -50.5t-48 -129z" />
<glyph unicode="&#xb1;" horiz-adv-x="1470" d="M152 197q-1 131 194 131h967q8 -14 8 -43q0 -137 -195 -138h-962q-12 31 -12 50zM162 928q0 131 184 131l307 -8q-6 168 -10 231q0 180 133 180q18 0 49 -12l-6 -399l481 8q10 -16 11 -45q0 -133 -187 -133q-72 0 -305 6q6 -190 6 -248q0 -186 -135 -186q-25 0 -41 8 l8 426l-483 -6q-12 16 -12 47z" />
<glyph unicode="&#xb2;" horiz-adv-x="804" d="M76 704.5q0 20.5 2 32.5q227 172 331.5 288t104.5 232q0 154 -141 154q-59 0 -94 -27.5t-35 -73.5t55 -73q-35 -45 -92 -45t-93 30.5t-36 80.5q0 80 88 140t217 60t213 -70.5t84 -187.5t-108.5 -235.5t-338.5 -261.5q137 14 315.5 14t178.5 -88q0 -27 -31 -58 q-51 17 -153 17h-361q-57 0 -81.5 25.5t-24.5 46z" />
<glyph unicode="&#xb3;" horiz-adv-x="798" d="M84 791q0 37 25.5 62.5t52.5 29.5q63 -133 246 -133q68 0 109.5 31.5t41.5 100t-64.5 114.5t-179.5 46q-31 0 -75 -8q-16 8 -16.5 33t43.5 50.5t97.5 43t97.5 49t44 75.5t-41 69.5t-116 25.5t-159 -55q-14 2 -24 17.5t-10 31.5q0 41 79.5 82t185 41t177.5 -49t72 -121 t-60.5 -125t-150.5 -76q111 -16 183.5 -80.5t72.5 -166t-106.5 -177t-228.5 -75.5t-209 47t-87 117z" />
<glyph unicode="&#xb4;" horiz-adv-x="522" d="M25 1439.5q0 30.5 14 57.5q29 57 89 57t101 -25.5t90 -94.5l179 -230q-16 -39 -53 -39t-76 29l-201 158q-43 33 -76 32.5t-55 -10.5q-12 35 -12 65.5z" />
<glyph unicode="&#xb5;" horiz-adv-x="1247" d="M123 997q53 72 131 72q139 0 139 -174v-541q0 -199 199 -198q90 0 159.5 52t106.5 150v539q0 72 -57 100q57 72 131 72q139 0 139 -174v-743q0 -74 57 -99q-53 -72 -131 -71q-139 0 -139 172v14q-111 -186 -309 -186q-90 0 -156 38v-215q0 -74 58 -100q-53 -72 -132 -72 q-139 0 -139 172v1092q0 72 -57 100z" />
<glyph unicode="&#xb6;" horiz-adv-x="1382" d="M113 1023q0 202 108.5 330t296.5 128h590q-23 -90 -23 -236v-1245q-33 -8 -53 -8q-106 0 -106 121v1077q0 68 10 139h-115q-78 0 -78 -84v-1245q-37 -8 -55 -8q-104 0 -104 121v452h-66q-188 0 -296.5 128t-108.5 330z" />
<glyph unicode="&#xb7;" horiz-adv-x="851" d="M276 789.5q0 60.5 55.5 114.5t117 54t96.5 -36.5t35 -98t-53.5 -115t-116 -53.5t-98.5 37t-36 97.5z" />
<glyph unicode="&#xb8;" horiz-adv-x="704" d="M31 -350q0 39 32 61q90 -113 251 -112.5t161 98.5q0 84 -129 84h-37q-51 0 -51 37q0 16 8 39l72 190h143l-65 -182h20q102 0 168 -43t66 -129t-91.5 -148.5t-230.5 -62.5t-228 52t-89 116z" />
<glyph unicode="&#xb9;" horiz-adv-x="411" d="M35 1401q0 29 54 62.5t118.5 33.5t95.5 -30t31 -81v-669q0 -45 35 -58q-35 -41 -86 -41q-90 0 -90 101v639q0 39 -42 39t-96 -29q-20 4 -20 33z" />
<glyph unicode="&#xba;" horiz-adv-x="825" d="M88 1183.5q0 149.5 94 231.5t232.5 82t229.5 -82t91 -232.5t-92 -232.5t-229.5 -82t-231.5 83t-94 232.5zM252 1221q0 -18 2 -39q16 -219 174 -219q147 0 147 180q0 18 -2 39q-16 223 -176 223q-145 0 -145 -184z" />
<glyph unicode="&#xbb;" horiz-adv-x="1239" d="M135 358q141 168 201.5 273.5t60.5 197t-59 194.5t-203 277q4 14 21.5 28.5t40.5 14.5q51 0 157.5 -95t194.5 -221t88 -198.5t-88 -197.5t-194.5 -220.5t-157.5 -95.5q-23 0 -40.5 14.5t-21.5 28.5zM602 358q141 166 201.5 272.5t60.5 198t-59.5 195.5t-202.5 276 q4 12 22.5 27.5t41.5 15.5q51 0 156.5 -95t193.5 -221t88 -198.5t-88 -197.5t-193.5 -220.5t-156.5 -95.5q-23 0 -41.5 15.5t-22.5 27.5z" />
<glyph unicode="&#xbc;" horiz-adv-x="1374" d="M69.5 1402q0.5 28 51.5 61.5t115.5 33.5t96.5 -30.5t32 -82.5v-671q0 -41 36 -58q-33 -43 -86 -43q-94 1 -94 103v639q0 41 -45 41q-35 0 -84 -31q-23 10 -22.5 38zM158 20q20 20 43 62l803 1354q45 61 79.5 61t57.5 -37q-6 -2 -43 -61l-803 -1350q-39 -66 -77 -65.5 t-60 36.5zM668 289q0 78 78.5 219t186 256t177.5 115q86 0 86 -95v-485h37q59 0 86 23q23 -18 22.5 -48t-29 -50.5t-75.5 -20.5h-41v-113q0 -45 39 -59q-37 -41 -90 -41q-94 0 -94 100v113h-267q-117 0 -116 86zM793 328q0 -29 41 -29h217v385q0 20 -15 21q-37 0 -140 -153 t-103 -224z" />
<glyph unicode="&#xbd;" horiz-adv-x="1513" d="M59 1402q0 28 52.5 61.5t117 33.5t96 -30.5t31.5 -82.5v-671q0 -41 37 -58q-33 -43 -86 -43q-96 1 -96 103v639q0 41 -45 41q-35 0 -84 -31q-23 10 -23 38zM133 20q18 14 43 62l805 1354q39 61 76 61t59 -37q-6 -4 -43 -61l-803 -1350q-39 -66 -75.5 -65.5t-61.5 36.5z M791 71.5q0 20.5 2 32.5q227 172 332.5 288t105.5 233q0 76 -39 115.5t-101.5 39.5t-96 -28.5t-33.5 -73.5t53 -76q-33 -43 -91.5 -43t-94 29.5t-35.5 79.5q0 82 88 142t217 60t214 -71.5t85 -187t-113 -236.5t-342 -262q190 16 309 16q190 0 191 -88q0 -29 -29 -57 q-66 16 -156 16h-358q-57 0 -82.5 25.5t-25.5 46z" />
<glyph unicode="&#xbe;" horiz-adv-x="1533" d="M84 791q0 37 25.5 62.5t52.5 29.5q68 -139 246 -140q68 0 109.5 35t41.5 103.5t-64.5 114.5t-179.5 46q-31 0 -75 -8q-16 8 -16.5 30.5t43.5 45.5t97.5 41t97.5 52t44 80t-42 73.5t-116 27.5t-158 -55q-35 6 -34.5 46t80 81t185 41t177.5 -49t72 -121t-60.5 -125 t-150.5 -76q110 -16 183 -80.5t73 -166t-106.5 -177t-228.5 -75.5t-209 47t-87 117zM324 23q25 14 53 59l840 1352q43 63 82.5 63t64.5 -39q-23 -8 -53 -59l-842 -1350q-39 -66 -80 -65.5t-65 39.5zM834 289q0 115 170 352.5t270 237.5q88 0 88 -95v-485h35q63 0 88 23 q20 -16 20 -47t-28.5 -51.5t-75.5 -20.5h-39v-113q0 -45 37 -59q-35 -41 -86 -41q-98 0 -99 100v113h-266q-115 0 -114 86zM958 328q0 -29 39 -29h217v385q0 20 -14 21q-37 0 -139.5 -151t-102.5 -226z" />
<glyph unicode="&#xbf;" horiz-adv-x="1077" d="M152 -199q0 168 131 295q53 53 108 100.5t93 103.5t38 107.5t-28.5 83t-77.5 37.5q4 47 38.5 76t97 29t117 -52.5t54.5 -130t-36 -142t-87 -117t-102 -105.5q-123 -125 -123 -272q0 -88 56 -152.5t145.5 -64.5t135.5 40.5t46 107.5t-34 114t-91 69q2 23 45 51.5t96 28.5 q88 0 142.5 -59.5t54.5 -155.5q0 -135 -121 -223t-296 -88t-288.5 92t-113.5 227zM397 918.5q0 56.5 52.5 105.5t112 49t94 -33.5t34.5 -89t-53 -104.5t-112.5 -49t-93.5 32.5t-34 89z" />
<glyph unicode="&#xc0;" horiz-adv-x="1370" d="M53 59q49 20 86 113l463 1178q-25 61 -61 90q53 57 122.5 57t103.5 -38t67 -128l401 -1149q35 -98 96 -131q-39 -69 -137 -69q-61 0 -98 30.5t-66 108.5l-72 209h-548l-78 -201q-55 -147 -152 -147q-43 0 -77.5 22.5t-49.5 54.5zM463 475h442l-207 666zM631 1634l157 244 q45 74 85 103.5t101.5 29.5t92.5 -51q18 -29 18 -60.5t-10 -62.5q-18 6 -52 6t-77 -39l-186 -174q-39 -35 -75 -35t-54 39z" />
<glyph unicode="&#xc1;" horiz-adv-x="1370" d="M53 59q49 20 86 113l463 1178q-25 61 -61 90q53 57 122.5 57t103.5 -38t67 -128l401 -1149q35 -98 96 -131q-39 -69 -137 -69q-61 0 -98 30.5t-66 108.5l-72 209h-548l-78 -201q-55 -147 -152 -147q-43 0 -77.5 22.5t-49.5 54.5zM362.5 1872q-0.5 31 14.5 57 q29 57 89 57.5t101 -25.5t90 -95l179 -230q-16 -39 -53.5 -39t-75.5 29l-201 158q-43 33 -76 33t-55 -11q-12 35 -12.5 66zM463 475h442l-207 666z" />
<glyph unicode="&#xc2;" horiz-adv-x="1370" d="M53 59q49 20 86 113l463 1178q-25 61 -61 90q53 57 122.5 57t103.5 -38t67 -128l401 -1149q35 -98 96 -131q-39 -69 -137 -69q-61 0 -98 30.5t-66 108.5l-72 209h-548l-78 -201q-55 -147 -152 -147q-43 0 -77.5 22.5t-49.5 54.5zM395 1634l142 213q39 59 74.5 87t90 28 t89 -27.5t73.5 -87.5l142 -213q-14 -37 -57.5 -37t-78.5 33l-170 166l-172 -166q-33 -33 -75.5 -33t-57.5 37zM463 475h442l-207 666z" />
<glyph unicode="&#xc3;" horiz-adv-x="1370" d="M53 59q49 20 86 113l463 1178q-25 61 -61 90q53 57 122.5 57t103.5 -38t67 -128l401 -1149q35 -98 96 -131q-39 -69 -137 -69q-61 0 -98 30.5t-66 108.5l-72 209h-548l-78 -201q-55 -147 -152 -147q-43 0 -77.5 22.5t-49.5 54.5zM383 1732.5q0 79.5 59.5 134t138 54.5 t167 -55.5t133.5 -55.5t75.5 30t34.5 83q63 -14 63.5 -92t-60 -132t-136.5 -54t-168 56t-133 56t-73.5 -29.5t-34.5 -82.5q-66 8 -66 87.5zM463 475h442l-207 666z" />
<glyph unicode="&#xc4;" horiz-adv-x="1370" d="M53 59q49 20 86 113l463 1178q-25 61 -61 90q53 57 122.5 57t103.5 -38t67 -128l401 -1149q35 -98 96 -131q-39 -69 -137 -69q-61 0 -98 30.5t-66 108.5l-72 209h-548l-78 -201q-55 -147 -152 -147q-43 0 -77.5 22.5t-49.5 54.5zM403 1756q0 52 46.5 97t97.5 45 t80.5 -30.5t29.5 -82.5t-45 -97.5t-97 -45.5t-82 31t-30 83zM463 475h442l-207 666zM745 1756q0 52 46.5 97t97.5 45t80.5 -30.5t29.5 -82.5t-45 -97.5t-97 -45.5t-82 31t-30 83z" />
<glyph unicode="&#xc5;" horiz-adv-x="1370" d="M53 59q49 20 86 113l463 1178q-25 61 -61 90q53 57 122.5 57t103.5 -38t67 -128l401 -1149q35 -98 96 -131q-39 -69 -137 -69q-61 0 -98 30.5t-66 108.5l-72 209h-548l-78 -201q-55 -147 -152 -147q-43 0 -77.5 22.5t-49.5 54.5zM463 475h442l-207 666zM483 1783 q0 89 63.5 137t156 48t155 -49t62.5 -137t-62.5 -136.5t-156 -48.5t-156 48.5t-62.5 137.5zM616 1812q0 -147 93 -147q77 0 77 88q0 147 -94 148q-39 0 -57.5 -26t-18.5 -63z" />
<glyph unicode="&#xc6;" horiz-adv-x="2031" d="M35 70q55 18 102 110l588 1161q72 139 217 140h733q233 0 234 -125q0 -70 -64 -101q-66 49 -196 50h-531v-445h389q127 0 181.5 -23.5t54.5 -83t-55 -96.5q-66 29 -197 29h-373v-393q0 -63 28.5 -91t98.5 -28h404q127 0 196 84q63 -31 63.5 -103.5t-58 -113.5t-179.5 -41 h-440q-168 0 -248 66.5t-80 205.5v72h-463l-114 -233q-59 -121 -150.5 -121t-140.5 80zM526 520h377v770z" />
<glyph unicode="&#xc7;" horiz-adv-x="1423" d="M131 711q0 356 197.5 571t505.5 215q186 0 315 -77t129 -185q0 -63 -42 -96t-101.5 -33t-102.5 22q2 18 2 37q0 74 -54 130.5t-181 56.5q-176 0 -306.5 -159t-130.5 -444.5t124 -429t343 -143.5q121 0 228.5 52.5t173.5 123.5q49 -14 49 -84q0 -88 -144.5 -185 t-344.5 -101l-43 -117h20q102 0 167.5 -43t65.5 -129t-91 -148.5t-230 -62.5t-228.5 52t-89.5 116q0 39 33 61q90 -113 251 -112.5t161 98.5q0 84 -129 84h-37q-51 0 -51 37q0 16 8 39l51 135q-238 43 -378 233.5t-140 485.5z" />
<glyph unicode="&#xc8;" horiz-adv-x="1355" d="M172 1401q57 80 170 80h657q233 0 234 -125q0 -70 -62 -101q-66 49 -196 50h-531v-445h390q127 0 180 -22.5t53 -84t-55 -96.5q-63 29 -197 29h-371v-371q0 -76 33 -108.5t107 -32.5h391q125 0 196 84q61 -31 61.5 -103.5t-57 -113.5t-178.5 -41h-434q-172 0 -253 70.5 t-81 228.5v1004q0 74 -57 98zM627 1634l157 244q45 74 85 103.5t101.5 29.5t92.5 -51q18 -29 18 -60.5t-10 -62.5q-18 6 -52 6t-77 -39l-186 -174q-39 -35 -75 -35t-54 39z" />
<glyph unicode="&#xc9;" horiz-adv-x="1355" d="M172 1401q57 80 170 80h657q233 0 234 -125q0 -70 -62 -101q-66 49 -196 50h-531v-445h390q127 0 180 -22.5t53 -84t-55 -96.5q-63 29 -197 29h-371v-371q0 -76 33 -108.5t107 -32.5h391q125 0 196 84q61 -31 61.5 -103.5t-57 -113.5t-178.5 -41h-434q-172 0 -253 70.5 t-81 228.5v1004q0 74 -57 98zM358.5 1872q-0.5 31 14.5 57q29 57 89 57.5t101 -25.5t90 -95l178 -230q-16 -39 -53 -39t-76 29l-200 158q-43 33 -76 33t-55 -11q-12 35 -12.5 66z" />
<glyph unicode="&#xca;" horiz-adv-x="1355" d="M172 1401q57 80 170 80h657q233 0 234 -125q0 -70 -62 -101q-66 49 -196 50h-531v-445h390q127 0 180 -22.5t53 -84t-55 -96.5q-63 29 -197 29h-371v-371q0 -76 33 -108.5t107 -32.5h391q125 0 196 84q61 -31 61.5 -103.5t-57 -113.5t-178.5 -41h-434q-172 0 -253 70.5 t-81 228.5v1004q0 74 -57 98zM391 1634l141 213q39 59 75 87t89.5 28t89 -27.5t74.5 -87.5l141 -213q-14 -37 -57 -37t-78 33l-170 166l-172 -166q-33 -33 -75.5 -33t-57.5 37z" />
<glyph unicode="&#xcb;" horiz-adv-x="1355" d="M172 1401q57 80 170 80h657q233 0 234 -125q0 -70 -62 -101q-66 49 -196 50h-531v-445h390q127 0 180 -22.5t53 -84t-55 -96.5q-63 29 -197 29h-371v-371q0 -76 33 -108.5t107 -32.5h391q125 0 196 84q61 -31 61.5 -103.5t-57 -113.5t-178.5 -41h-434q-172 0 -253 70.5 t-81 228.5v1004q0 74 -57 98zM399 1756q0 52 46.5 97t97.5 45t80.5 -30.5t29.5 -82.5t-45 -97.5t-97 -45.5t-82 31t-30 83zM741 1756q0 52 46.5 97t97.5 45t80.5 -30.5t29.5 -82.5t-45 -97.5t-97 -45.5t-82 31t-30 83z" />
<glyph unicode="&#xcc;" horiz-adv-x="630" d="M150 1425q47 72 129 72q141 0 141 -170v-1175q0 -74 55 -99q-49 -72 -131 -71q-139 0 -139 172v1175q0 72 -55 96zM246 1634l157 244q46 74 85.5 103.5t101 29.5t92.5 -51q18 -29 18 -60.5t-10 -62.5q-18 6 -52 6t-77 -39l-186 -174q-39 -35 -72 -35q-39 0 -57 39z" />
<glyph unicode="&#xcd;" horiz-adv-x="630" d="M-24.5 1872q-0.5 31 12.5 57q31 57 91 57.5t101 -25.5t90 -95l179 -230q-16 -39 -53.5 -39t-76.5 29l-200 158q-43 33 -76 33t-55 -11q-12 35 -12.5 66zM150 1425q47 72 129 72q141 0 141 -170v-1175q0 -74 55 -99q-49 -72 -131 -71q-139 0 -139 172v1175q0 72 -55 96z " />
<glyph unicode="&#xce;" horiz-adv-x="630" d="M8 1634l142 213q39 59 73.5 87t90 28t90 -27.5t73.5 -87.5l141 -213q-14 -37 -57 -37t-78 33l-170 166l-172 -166q-33 -33 -75.5 -33t-57.5 37zM150 1425q47 72 129 72q141 0 141 -170v-1175q0 -74 55 -99q-49 -72 -131 -71q-139 0 -139 172v1175q0 72 -55 96z" />
<glyph unicode="&#xcf;" horiz-adv-x="630" d="M16 1756q0 52 46.5 97t97.5 45t80.5 -30.5t29.5 -82.5t-45 -97.5t-97 -45.5t-82 31t-30 83zM150 1425q47 72 129 72q141 0 141 -170v-1175q0 -74 55 -99q-49 -72 -131 -71q-139 0 -139 172v1175q0 72 -55 96zM358 1756q0 52 46.5 97t97.5 45t80.5 -30.5t29.5 -82.5 t-45 -97.5t-97 -45.5t-82 31t-30 83z" />
<glyph unicode="&#xd0;" horiz-adv-x="1591" d="M27 709q0 104 161 104h17v455q0 98 -39 147q231 82 487 82q315 0 541 -184q111 -90 174.5 -238.5t63.5 -337t-63.5 -336t-174.5 -237.5q-223 -182 -541 -182q-254 0 -352 69.5t-98 216.5v406h-168q-8 12 -8 35zM420 262q0 -70 43 -98.5t190 -28.5q238 0 394.5 158 t156.5 444.5t-156.5 445t-394.5 158.5q-117 0 -229 -34l-2 -494h407q6 -10 7 -35q0 -104 -160 -104h-254z" />
<glyph unicode="&#xd1;" horiz-adv-x="1626" d="M166 1425q53 72 135 72t133 -35t103 -114l661 -1059v1040q0 72 -55 96q49 72 131 72q141 0 141 -170v-1175q0 -74 43 -111q-45 -59 -127 -59t-144.5 50t-133.5 163l-615 968v-1011q0 -76 56 -99q-53 -72 -132 -71q-139 0 -139 172v1175q0 72 -57 96zM495.5 1732.5 q0.5 79.5 59.5 134t138 54.5t167 -55.5t133 -55.5t76 30t35 83q63 -14 63 -92t-60 -132t-136 -54t-168 56t-133 56t-74 -29.5t-35 -82.5q-66 8 -65.5 87.5z" />
<glyph unicode="&#xd2;" horiz-adv-x="1589" d="M143 739q0 344 173 551t480.5 207t477.5 -205t170 -550t-171 -552.5t-477.5 -207.5t-479.5 206.5t-173 550.5zM360 811q0 -340 152 -526q127 -156 323.5 -156t303.5 176q90 145 90 363q0 45 -4 94q-18 276 -145.5 433t-325 157t-303.5 -176q-90 -147 -91 -365zM725 1634 l158 244q45 74 85 103.5t101 29.5t92 -51q18 -29 18.5 -60.5t-10.5 -62.5q-18 6 -52 6t-77 -39l-186 -174q-39 -35 -72 -35q-39 0 -57 39z" />
<glyph unicode="&#xd3;" horiz-adv-x="1589" d="M143 739q0 344 173 551t480.5 207t477.5 -205t170 -550t-171 -552.5t-477.5 -207.5t-479.5 206.5t-173 550.5zM360 811q0 -340 152 -526q127 -156 323.5 -156t303.5 176q90 145 90 363q0 45 -4 94q-18 276 -145.5 433t-325 157t-303.5 -176q-90 -147 -91 -365zM457 1872 q0 31 14 57q29 57 89.5 57.5t101 -25.5t90.5 -95l178 -230q-16 -39 -53 -39t-76 29l-201 158q-43 33 -75.5 33t-55.5 -11q-12 35 -12 66z" />
<glyph unicode="&#xd4;" horiz-adv-x="1589" d="M143 739q0 344 173 551t480.5 207t477.5 -205t170 -550t-171 -552.5t-477.5 -207.5t-479.5 206.5t-173 550.5zM360 811q0 -340 152 -526q127 -156 323.5 -156t303.5 176q90 145 90 363q0 45 -4 94q-18 276 -145.5 433t-325 157t-303.5 -176q-90 -147 -91 -365zM489 1634 l142 213q39 59 74.5 87t89 28t89.5 -27.5t74 -87.5l142 -213q-14 -37 -57.5 -37t-77.5 33l-170 166l-172 -166q-33 -33 -76 -33t-58 37z" />
<glyph unicode="&#xd5;" horiz-adv-x="1589" d="M143 739q0 344 173 551t480.5 207t477.5 -205t170 -550t-171 -552.5t-477.5 -207.5t-479.5 206.5t-173 550.5zM360 811q0 -340 152 -526q127 -156 323.5 -156t303.5 176q90 145 90 363q0 45 -4 94q-18 276 -145.5 433t-325 157t-303.5 -176q-90 -147 -91 -365z M477 1732.5q0 79.5 59.5 134t138.5 54.5t167 -55.5t133 -55.5t75.5 30t34.5 83q63 -14 63.5 -92t-60 -132t-136 -54t-168 56t-133.5 56t-73.5 -29.5t-34.5 -82.5q-66 8 -66 87.5z" />
<glyph unicode="&#xd6;" horiz-adv-x="1589" d="M143 739q0 344 173 551t480.5 207t477.5 -205t170 -550t-171 -552.5t-477.5 -207.5t-479.5 206.5t-173 550.5zM360 811q0 -340 152 -526q127 -156 323.5 -156t303.5 176q90 145 90 363q0 45 -4 94q-18 276 -145.5 433t-325 157t-303.5 -176q-90 -147 -91 -365zM498 1756 q0 52 46 97t97 45t81 -30.5t30 -82.5t-45 -97.5t-97.5 -45.5t-82 31t-29.5 83zM840 1756q0 52 46 97t97 45t81 -30.5t30 -82.5t-45 -97.5t-97.5 -45.5t-82 31t-29.5 83z" />
<glyph unicode="&#xd7;" horiz-adv-x="1390" d="M174 1278q20 37 56 57.5t61.5 20.5t41 -3t32.5 -14l24 -14q25 -14 59.5 -53t40.5 -45l234 -262l276 313q63 78 112.5 78t74.5 -41l-381 -441l409 -462q-33 -76 -117.5 -76t-191.5 129l-231 256l-281 -322q-61 -76 -111.5 -75.5t-74.5 45.5l385 442z" />
<glyph unicode="&#xd8;" horiz-adv-x="1617" d="M109 43q70 37 133 113l53 61q-152 203 -152 534.5t173 538.5t466 207t459 -170l82 96q66 74 126 74t73 -59q-66 -35 -133 -115l-74 -86q129 -190 129 -515t-171 -532.5t-476 -207.5q-258 0 -424 149l-66 -76q-63 -74 -123.5 -73.5t-74.5 61.5zM360 811q0 -246 84 -418 l658 772q-129 187 -350 187q-195 0 -301 -176q-90 -147 -91 -365zM508 291q125 -162 324.5 -162t306.5 176q90 145 90 363q0 227 -68 389z" />
<glyph unicode="&#xd9;" horiz-adv-x="1472" d="M145 1425q53 72 131 72q139 0 140 -170v-825q0 -348 349 -348t349 348v827q0 72 -57 96q49 72 131 72q139 0 139 -170v-797q0 -258 -137 -403t-423 -145t-425 146t-139 402v799q0 72 -58 96zM702 1634l158 244q45 74 85 103.5t101.5 29.5t92.5 -51q18 -29 18 -60.5 t-10 -62.5q-18 6 -52 6t-77 -39l-187 -174q-39 -35 -71 -35q-39 0 -58 39z" />
<glyph unicode="&#xda;" horiz-adv-x="1472" d="M145 1425q53 72 131 72q139 0 140 -170v-825q0 -348 349 -348t349 348v827q0 72 -57 96q49 72 131 72q139 0 139 -170v-797q0 -258 -137 -403t-423 -145t-425 146t-139 402v799q0 72 -58 96zM432 1872q0 31 14 57q29 57 89.5 57.5t101.5 -25.5t90 -95l178 -230 q-16 -39 -53 -39t-76 29l-201 158q-43 33 -75.5 33t-55.5 -11q-12 35 -12 66z" />
<glyph unicode="&#xdb;" horiz-adv-x="1472" d="M145 1425q53 72 131 72q139 0 140 -170v-825q0 -348 349 -348t349 348v827q0 72 -57 96q49 72 131 72q139 0 139 -170v-797q0 -258 -137 -403t-423 -145t-425 146t-139 402v799q0 72 -58 96zM467 1634l141 213q39 59 75 87t89 28t89 -27.5t75 -87.5l141 -213 q-14 -37 -57 -37t-78 33l-170 166l-172 -166q-33 -33 -76 -33t-57 37z" />
<glyph unicode="&#xdc;" horiz-adv-x="1472" d="M145 1425q53 72 131 72q139 0 140 -170v-825q0 -348 349 -348t349 348v827q0 72 -57 96q49 72 131 72q139 0 139 -170v-797q0 -258 -137 -403t-423 -145t-425 146t-139 402v799q0 72 -58 96zM473 1756q0 52 46 97t97.5 45t81 -30.5t29.5 -82.5t-45 -97.5t-97.5 -45.5 t-82 31t-29.5 83zM815 1756q0 52 46 97t97.5 45t81 -30.5t29.5 -82.5t-45 -97.5t-97.5 -45.5t-82 31t-29.5 83z" />
<glyph unicode="&#xdd;" horiz-adv-x="1255" d="M27 1378q35 119 143.5 119t183.5 -133l295 -516l301 450q39 53 39 94.5t-31 73.5q57 31 122 31t99.5 -29.5t34.5 -83t-45 -120.5l-430 -609l-2 -512q0 -80 35 -125q-51 -34 -117 -34q-133 0 -133 180l2 487l-374 647q-51 78 -123 80zM313.5 1872q-0.5 31 14.5 57 q29 57 89 57.5t101 -25.5t90 -95l178 -230q-16 -39 -53 -39t-76 29l-200 158q-43 33 -76 33t-55 -11q-12 35 -12.5 66z" />
<glyph unicode="&#xde;" horiz-adv-x="1316" d="M150 1425q47 72 129 72q141 0 141 -170v-141q158 61 311 61q215 0 365.5 -125t150.5 -329.5t-150.5 -329.5t-365.5 -125q-162 0 -311 61v-247q0 -74 55 -99q-49 -72 -131 -71q-139 0 -139 172v1175q0 72 -55 96zM420 539q135 -47 277.5 -47t233.5 81.5t91 219t-91 219.5 t-230.5 82t-280.5 -50v-505z" />
<glyph unicode="&#xdf;" horiz-adv-x="1212" d="M139 154v946q0 186 111.5 284.5t293 98.5t293 -97.5t111.5 -238.5q0 -195 -205 -313l93 -62q143 -92 211.5 -189.5t68.5 -220.5q0 -168 -103.5 -274t-258.5 -106q-106 0 -160.5 43t-54.5 100q0 23 10 43q57 -39 144 -39t143.5 57.5t56.5 145.5t-42 152.5t-144 142.5 q-23 18 -48.5 39.5t-41 34t-34 26.5t-27.5 23.5t-19 19.5q-14 16 -14.5 29.5t31.5 42t68.5 63.5t68.5 98.5t32 149.5t-53.5 144.5t-133 58.5t-131 -61.5t-51.5 -194.5v-948q0 -74 58 -99q-53 -72 -131 -71q-141 0 -142 172z" />
<glyph unicode="&#xe0;" horiz-adv-x="1103" d="M102 244q0 152 156 245t455 101v143q0 111 -40 163t-123 52t-126 -35.5t-43 -86t29 -81.5q-51 -45 -119 -45t-106 34t-38 93q0 102 119 172t288 70t271.5 -88t102.5 -254v-520q0 -115 102 -135q-51 -90 -158 -90q-137 0 -157 153q-119 -154 -318 -153q-131 0 -213 69.5 t-82 192.5zM334 266q0 -131 143.5 -131t235.5 121v231q-195 -10 -287 -70.5t-92 -150.5zM483 1202l158 244q45 74 85 103.5t101.5 29.5t92.5 -51q18 -29 18 -60.5t-10 -62.5q-18 6 -52 6t-77 -39l-187 -174q-39 -35 -75 -35t-54 39z" />
<glyph unicode="&#xe1;" horiz-adv-x="1103" d="M102 244q0 152 156 245t455 101v143q0 111 -40 163t-123 52t-126 -35.5t-43 -86t29 -81.5q-51 -45 -119 -45t-106 34t-38 93q0 102 119 172t288 70t271.5 -88t102.5 -254v-520q0 -115 102 -135q-51 -90 -158 -90q-137 0 -157 153q-119 -154 -318 -153q-131 0 -213 69.5 t-82 192.5zM215 1439.5q0 30.5 14 57.5q29 57 89.5 57t101.5 -25.5t90 -94.5l178 -230q-16 -39 -53 -39t-76 29l-201 158q-43 33 -75.5 32.5t-55.5 -10.5q-12 35 -12 65.5zM334 266q0 -131 143.5 -131t235.5 121v231q-195 -10 -287 -70.5t-92 -150.5z" />
<glyph unicode="&#xe2;" horiz-adv-x="1103" d="M102 244q0 152 156 245t455 101v143q0 111 -40 163t-123 52t-126 -35.5t-43 -86t29 -81.5q-51 -45 -119 -45t-106 34t-38 93q0 102 119 172t288 70t271.5 -88t102.5 -254v-520q0 -115 102 -135q-51 -90 -158 -90q-137 0 -157 153q-119 -154 -318 -153q-131 0 -213 69.5 t-82 192.5zM248 1202l141 213q39 59 75 87t89 28t89 -27.5t75 -87.5l141 -213q-14 -37 -57 -37t-78 33l-170 166l-172 -166q-33 -33 -76 -33t-57 37zM334 266q0 -131 143.5 -131t235.5 121v231q-195 -10 -287 -70.5t-92 -150.5z" />
<glyph unicode="&#xe3;" horiz-adv-x="1103" d="M102 244q0 152 156 245t455 101v143q0 111 -40 163t-123 52t-126 -35.5t-43 -86t29 -81.5q-51 -45 -119 -45t-106 34t-38 93q0 102 119 172t288 70t271.5 -88t102.5 -254v-520q0 -115 102 -135q-51 -90 -158 -90q-137 0 -157 153q-119 -154 -318 -153q-131 0 -213 69.5 t-82 192.5zM235.5 1300q0.5 80 59.5 134.5t138 54.5t167 -55.5t133 -55.5t76 30t35 83q63 -14 63 -92t-60.5 -132.5t-136 -54.5t-167.5 56.5t-133 56.5t-74 -30t-35 -83q-66 8 -65.5 88zM334 266q0 -131 143.5 -131t235.5 121v231q-195 -10 -287 -70.5t-92 -150.5z" />
<glyph unicode="&#xe4;" horiz-adv-x="1103" d="M102 244q0 152 156 245t455 101v143q0 111 -40 163t-123 52t-126 -35.5t-43 -86t29 -81.5q-51 -45 -119 -45t-106 34t-38 93q0 102 119 172t288 70t271.5 -88t102.5 -254v-520q0 -115 102 -135q-51 -90 -158 -90q-137 0 -157 153q-119 -154 -318 -153q-131 0 -213 69.5 t-82 192.5zM254 1324q0 52 46 97t97.5 45t81 -30.5t29.5 -83t-45 -97.5t-97.5 -45t-82 31t-29.5 83zM334 266q0 -131 143.5 -131t235.5 121v231q-195 -10 -287 -70.5t-92 -150.5zM596 1324q0 52 46 97t97.5 45t81 -30.5t29.5 -83t-45 -97.5t-97.5 -45t-82 31t-29.5 83z" />
<glyph unicode="&#xe5;" horiz-adv-x="1103" d="M102 244q0 152 156 245t455 101v143q0 111 -40 163t-123 52t-126 -35.5t-43 -86t29 -81.5q-51 -45 -119 -45t-106 34t-38 93q0 102 119 172t288 70t271.5 -88t102.5 -254v-520q0 -115 102 -135q-51 -90 -158 -90q-137 0 -157 153q-119 -154 -318 -153q-131 0 -213 69.5 t-82 192.5zM334 266q0 -131 143.5 -131t235.5 121v231q-195 -10 -287 -70.5t-92 -150.5zM336 1351q0 89 63.5 137t155.5 48t154.5 -49t62.5 -137t-62.5 -136.5t-155.5 -48.5t-155.5 48.5t-62.5 137.5zM469 1380q0 -147 92 -147q78 0 78 88q0 147 -94 147q-39 0 -57.5 -25.5 t-18.5 -62.5z" />
<glyph unicode="&#xe6;" horiz-adv-x="1640" d="M102 244q0 152 156 245t455 101v143q0 111 -40 163t-123 52t-126 -35.5t-43 -86t29 -81.5q-51 -45 -119 -45t-106 34t-38 93q0 102 118 172t276 70q242 0 327 -164q143 164 342 164q160 0 260.5 -107.5t100.5 -244.5q0 -100 -53.5 -147.5t-174.5 -49.5l-409 -12 q4 -367 317 -367q154 0 269 115q33 -14 32 -63q0 -76 -103 -143.5t-243 -67.5q-279 0 -411 196q-152 -197 -369 -196q-145 0 -234.5 68.5t-89.5 193.5zM334 266q0 -131 150.5 -131t256.5 152q-28 86 -28 192v8q-195 -10 -287 -70.5t-92 -150.5zM940 616l326 29q82 6 82 91 t-44 142.5t-127 57.5t-151 -84t-86 -236z" />
<glyph unicode="&#xe7;" horiz-adv-x="1024" d="M100 479q0 252 154 421t381 169q131 0 216 -60.5t85 -150.5q0 -57 -35 -89t-87 -32t-87 25q6 20 6 62t-33.5 75t-101.5 33q-111 0 -198 -112.5t-87 -298t85 -280t212 -94.5q172 0 285 113q31 -16 31 -65q0 -76 -100.5 -142.5t-235.5 -70.5l-43 -117h20q102 0 168 -43 t66 -129t-91.5 -148.5t-230.5 -62.5t-228 52t-89 116q0 39 33 61q90 -113 250.5 -112.5t160.5 98.5q0 84 -129 84h-37q-51 0 -51 37q0 16 8 39l54 139q-158 39 -254.5 164.5t-96.5 318.5z" />
<glyph unicode="&#xe8;" horiz-adv-x="1028" d="M100 489.5q0 243.5 147.5 411.5t350.5 168q160 0 260 -107.5t100 -244.5q0 -100 -52 -147.5t-173 -49.5l-414 -14q3 -187 85.5 -276t235.5 -89t267 115q35 -18 35 -63q0 -76 -104.5 -143.5t-245.5 -67.5q-221 0 -356.5 132t-135.5 375.5zM326 614l333 31q80 6 80 92 t-46 142.5t-130 56.5t-152.5 -84t-84.5 -238zM514 1202l158 244q45 74 85 103.5t101.5 29.5t91.5 -51q18 -29 18.5 -60.5t-10.5 -62.5q-18 6 -52 6t-77 -39l-186 -174q-39 -35 -72 -35q-39 0 -57 39z" />
<glyph unicode="&#xe9;" horiz-adv-x="1028" d="M100 489.5q0 243.5 147.5 411.5t350.5 168q160 0 260 -107.5t100 -244.5q0 -100 -52 -147.5t-173 -49.5l-414 -14q3 -187 85.5 -276t235.5 -89t267 115q35 -18 35 -63q0 -76 -104.5 -143.5t-245.5 -67.5q-221 0 -356.5 132t-135.5 375.5zM244 1439.5q0 30.5 14 57.5 q29 57 89.5 57t101 -25.5t90.5 -94.5l178 -230q-16 -39 -53 -39t-76 29l-201 158q-43 33 -75.5 32.5t-55.5 -10.5q-12 35 -12 65.5zM326 614l333 31q80 6 80 92t-46 142.5t-130 56.5t-152.5 -84t-84.5 -238z" />
<glyph unicode="&#xea;" horiz-adv-x="1028" d="M100 489.5q0 243.5 147.5 411.5t350.5 168q160 0 260 -107.5t100 -244.5q0 -100 -52 -147.5t-173 -49.5l-414 -14q3 -187 85.5 -276t235.5 -89t267 115q35 -18 35 -63q0 -76 -104.5 -143.5t-245.5 -67.5q-221 0 -356.5 132t-135.5 375.5zM279 1202l141 213q39 59 73.5 87 t90 28t90.5 -27.5t74 -87.5l141 -213q-14 -37 -57.5 -37t-77.5 33l-170 166l-172 -166q-33 -33 -76 -33t-57 37zM326 614l333 31q80 6 80 92t-46 142.5t-130 56.5t-152.5 -84t-84.5 -238z" />
<glyph unicode="&#xeb;" horiz-adv-x="1028" d="M100 489.5q0 243.5 147.5 411.5t350.5 168q160 0 260 -107.5t100 -244.5q0 -100 -52 -147.5t-173 -49.5l-414 -14q3 -187 85.5 -276t235.5 -89t267 115q35 -18 35 -63q0 -76 -104.5 -143.5t-245.5 -67.5q-221 0 -356.5 132t-135.5 375.5zM285 1324q0 52 46 97t97 45 t81 -30.5t30 -83t-45 -97.5t-97.5 -45t-82 31t-29.5 83zM326 614l333 31q80 6 80 92t-46 142.5t-130 56.5t-152.5 -84t-84.5 -238zM627 1324q0 52 46 97t97 45t81 -30.5t30 -83t-45 -97.5t-97.5 -45t-82 31t-29.5 83z" />
<glyph unicode="&#xec;" horiz-adv-x="567" d="M123 997q53 72 131 72q139 0 139 -174v-743q0 -74 58 -99q-53 -72 -132 -71q-139 0 -139 172v743q0 72 -57 100zM215 1202l158 244q45 74 85 103.5t101.5 29.5t91.5 -51q18 -29 18.5 -60.5t-10.5 -62.5q-18 6 -52 6t-77 -39l-186 -174q-39 -35 -72 -35q-39 0 -57 39z" />
<glyph unicode="&#xed;" horiz-adv-x="567" d="M-53 1439.5q0 30.5 12 57.5q31 57 91.5 57t101.5 -25.5t90 -94.5l178 -230q-16 -39 -53 -39t-76 29l-201 158q-43 33 -75.5 32.5t-55.5 -10.5q-12 35 -12 65.5zM123 997q53 72 131 72q139 0 139 -174v-743q0 -74 58 -99q-53 -72 -132 -71q-139 0 -139 172v743 q0 72 -57 100z" />
<glyph unicode="&#xee;" horiz-adv-x="567" d="M-20 1202l141 213q39 59 73.5 87t90 28t90.5 -27.5t74 -87.5l141 -213q-14 -37 -57.5 -37t-77.5 33l-170 166l-172 -166q-33 -33 -76 -33t-57 37zM123 997q53 72 131 72q139 0 139 -174v-743q0 -74 58 -99q-53 -72 -132 -71q-139 0 -139 172v743q0 72 -57 100z" />
<glyph unicode="&#xef;" horiz-adv-x="567" d="M-12 1324q0 52 46 97t97 45t81 -30.5t30 -83t-45 -97.5t-97.5 -45t-82 31t-29.5 83zM123 997q53 72 131 72q139 0 139 -174v-743q0 -74 58 -99q-53 -72 -132 -71q-139 0 -139 172v743q0 72 -57 100zM330 1324q0 52 46 97t97 45t81 -30.5t30 -83t-45 -97.5t-97.5 -45 t-82 31t-29.5 83z" />
<glyph unicode="&#xf0;" horiz-adv-x="1198" d="M100 525q0 259 143.5 401.5t356.5 142.5q111 0 201 -61q-57 133 -131 239l-281 -82q-18 25 -18 49q0 66 135 109l86 25q-80 94 -176 176q25 43 71 43q109 0 263 -174l266 75q16 -12 17 -25t1 -28.5t-26 -42.5q-41 -41 -150 -69l-31 -9q117 -164 193 -365.5t76 -368.5 t-45 -280.5t-121 -177.5q-145 -121 -343 -120.5t-342.5 142.5t-144.5 401zM322 596q0 -266 90 -378t217 -112t194 103q55 82 56 235q0 39 -5 80q-14 217 -95 317.5t-208 100.5t-188 -92t-61 -254z" />
<glyph unicode="&#xf1;" d="M123 997q53 72 131 72q139 0 139 -174v-68q53 111 151.5 176.5t229.5 65.5t214 -90t83 -268v-559q0 -74 57 -99q-53 -72 -131 -71q-139 0 -139 172v536q0 199 -174 199q-92 0 -175 -78t-116 -211v-448q0 -74 58 -99q-53 -72 -132 -71q-139 0 -139 172v743q0 72 -57 100z M309 1300q0 80 59.5 134.5t138.5 54.5t167 -55.5t133 -55.5t75.5 30t35.5 83q63 -14 63 -92t-60.5 -132.5t-136 -54.5t-168 56.5t-133.5 56.5t-73.5 -30t-34.5 -83q-66 8 -66 88z" />
<glyph unicode="&#xf2;" horiz-adv-x="1198" d="M100 525q0 259 143.5 401.5t355.5 142.5t355.5 -143.5t143.5 -401.5t-143.5 -400t-354.5 -142t-355.5 142t-144.5 401zM317 578q0 -252 88.5 -362t215.5 -110t193.5 96.5t66.5 270.5q0 254 -86 361.5t-214 107.5t-196 -94t-68 -270zM528 1202l158 244q45 74 85 103.5 t101.5 29.5t92.5 -51q18 -29 18 -60.5t-10 -62.5q-18 6 -52 6t-77 -39l-187 -174q-39 -35 -71 -35q-39 0 -58 39z" />
<glyph unicode="&#xf3;" horiz-adv-x="1198" d="M100 525q0 259 143.5 401.5t355.5 142.5t355.5 -143.5t143.5 -401.5t-143.5 -400t-354.5 -142t-355.5 142t-144.5 401zM258 1439.5q0 30.5 12 57.5q31 57 91.5 57t101.5 -25.5t90 -94.5l178 -230q-16 -39 -53 -39t-76 29l-201 158q-43 33 -75.5 32.5t-55.5 -10.5 q-12 35 -12 65.5zM317 578q0 -252 88.5 -362t215.5 -110t193.5 96.5t66.5 270.5q0 254 -86 361.5t-214 107.5t-196 -94t-68 -270z" />
<glyph unicode="&#xf4;" horiz-adv-x="1198" d="M100 525q0 259 143.5 401.5t355.5 142.5t355.5 -143.5t143.5 -401.5t-143.5 -400t-354.5 -142t-355.5 142t-144.5 401zM293 1202l141 213q39 59 75 87t89 28t89 -27.5t75 -87.5l141 -213q-14 -37 -57 -37t-78 33l-170 166l-172 -166q-33 -33 -76 -33t-57 37zM317 578 q0 -252 88.5 -362t215.5 -110t193.5 96.5t66.5 270.5q0 254 -86 361.5t-214 107.5t-196 -94t-68 -270z" />
<glyph unicode="&#xf5;" horiz-adv-x="1198" d="M100 525q0 259 143.5 401.5t355.5 142.5t355.5 -143.5t143.5 -401.5t-143.5 -400t-354.5 -142t-355.5 142t-144.5 401zM280.5 1300q0.5 80 59.5 134.5t138 54.5t167 -55.5t133 -55.5t76 30t35 83q63 -14 63 -92t-60.5 -132.5t-136 -54.5t-167.5 56.5t-133 56.5t-74 -29.5 t-35 -83.5q-66 8 -65.5 88zM317 578q0 -252 88.5 -362t215.5 -110t193.5 96.5t66.5 270.5q0 254 -86 361.5t-214 107.5t-196 -94t-68 -270z" />
<glyph unicode="&#xf6;" horiz-adv-x="1198" d="M100 525q0 259 143.5 401.5t355.5 142.5t355.5 -143.5t143.5 -401.5t-143.5 -400t-354.5 -142t-355.5 142t-144.5 401zM299 1324q0 52 46 97t97.5 45t81 -30.5t29.5 -83t-45 -97.5t-97.5 -45t-82 31t-29.5 83zM317 578q0 -252 88.5 -362t215.5 -110t193.5 96.5 t66.5 270.5q0 254 -86 361.5t-214 107.5t-196 -94t-68 -270zM641 1324q0 52 46 97t97.5 45t81 -30.5t29.5 -83t-45 -97.5t-97.5 -45t-82 31t-29.5 83z" />
<glyph unicode="&#xf7;" horiz-adv-x="1310" d="M88 791q0 133 197 133h932q8 -16 8 -41q0 -139 -197 -140h-928q-12 20 -12 48zM510 432.5q0 61.5 54 115.5t115.5 54t97.5 -36t36 -98t-53 -115.5t-115.5 -53.5t-98.5 36t-36 97.5zM510 1204.5q0 61.5 54 114.5t115.5 53t97.5 -34.5t36 -97t-53 -116t-115.5 -53.5 t-98.5 36t-36 97.5z" />
<glyph unicode="&#xf8;" horiz-adv-x="1286" d="M82 39q74 43 133 115l2 2q-117 143 -117 385.5t143.5 385t356.5 142.5q174 0 301 -96l19 20q63 76 124.5 76t73.5 -59q-57 -29 -135 -113l-2 -2q117 -147 117 -388t-143.5 -383t-354.5 -142q-172 0 -303 96l-18 -23q-61 -74 -124 -73.5t-73 57.5zM317 578q0 -150 37 -259 l437 521q-76 102 -207 102t-199 -94t-68 -270zM410 211q78 -104 208 -104.5t196.5 96t66.5 270.5q0 150 -37 258z" />
<glyph unicode="&#xf9;" d="M123 997q53 72 131 72q139 0 139 -174v-541q0 -199 199 -198q90 0 159.5 52t106.5 150v539q0 72 -57 100q57 72 131 72q139 0 139 -174v-743q0 -74 57 -99q-53 -72 -131 -71q-139 0 -139 172v14q-111 -186 -321 -186q-170 0 -263.5 89t-93.5 267v559q0 72 -57 100z M551 1202l158 244q45 74 85 103.5t101 29.5t92 -51q18 -29 18.5 -60.5t-10.5 -62.5q-18 6 -52 6t-77 -39l-186 -174q-39 -35 -75 -35t-54 39z" />
<glyph unicode="&#xfa;" d="M123 997q53 72 131 72q139 0 139 -174v-541q0 -199 199 -198q90 0 159.5 52t106.5 150v539q0 72 -57 100q57 72 131 72q139 0 139 -174v-743q0 -74 57 -99q-53 -72 -131 -71q-139 0 -139 172v14q-111 -186 -321 -186q-170 0 -263.5 89t-93.5 267v559q0 72 -57 100z M283 1439.5q0 30.5 12 57.5q31 57 91 57t101 -25.5t91 -94.5l178 -230q-16 -39 -53 -39t-76 29l-201 158q-43 33 -76 32.5t-55 -10.5q-12 35 -12 65.5z" />
<glyph unicode="&#xfb;" d="M123 997q53 72 131 72q139 0 139 -174v-541q0 -199 199 -198q90 0 159.5 52t106.5 150v539q0 72 -57 100q57 72 131 72q139 0 139 -174v-743q0 -74 57 -99q-53 -72 -131 -71q-139 0 -139 172v14q-111 -186 -321 -186q-170 0 -263.5 89t-93.5 267v559q0 72 -57 100z M315 1202l142 213q39 59 73.5 87t90 28t90 -27.5t73.5 -87.5l142 -213q-14 -37 -57.5 -37t-77.5 33l-170 166l-172 -166q-33 -33 -76 -33t-58 37z" />
<glyph unicode="&#xfc;" d="M123 997q53 72 131 72q139 0 139 -174v-541q0 -199 199 -198q90 0 159.5 52t106.5 150v539q0 72 -57 100q57 72 131 72q139 0 139 -174v-743q0 -74 57 -99q-53 -72 -131 -71q-139 0 -139 172v14q-111 -186 -321 -186q-170 0 -263.5 89t-93.5 267v559q0 72 -57 100z M324 1324q0 52 46 97t97 45t81 -30.5t30 -83t-45.5 -97.5t-97.5 -45t-81.5 31t-29.5 83zM666 1324q0 52 46 97t97 45t81 -30.5t30 -83t-45.5 -97.5t-97.5 -45t-81.5 31t-29.5 83z" />
<glyph unicode="&#xfd;" horiz-adv-x="1144" d="M66 1004q53 66 122.5 65.5t106.5 -39.5t59 -123l254 -796l273 766q16 45 16 87t-25 72q45 33 113 33t109 -63q18 -31 18 -73t-20 -95l-416 -1094q-100 -264 -289 -264q-76 0 -120 38t-44 95t33 96q39 -43 102 -43q94 0 138 127l67 189h-6q-53 0 -97 36.5t-67 106.5 l-256 762q-31 94 -71 117zM256 1439.5q0 30.5 14 57.5q29 57 89.5 57t101.5 -25.5t90 -94.5l178 -230q-16 -39 -53 -39t-76 29l-201 158q-43 33 -75.5 32.5t-55.5 -10.5q-12 35 -12 65.5z" />
<glyph unicode="&#xfe;" horiz-adv-x="1226" d="M123 1499q47 72 131 72q139 0 139 -172v-475q111 145 294 145t312 -142.5t129 -400.5t-141 -401t-330 -143q-154 0 -264 106v-434q0 -76 58 -100q-53 -72 -132 -72q-139 0 -139 172v1747q0 74 -57 98zM393 264q88 -131 244 -131q113 0 192.5 106.5t79.5 284.5 t-78.5 279.5t-193.5 101.5q-162 0 -244 -162v-479z" />
<glyph unicode="&#xff;" horiz-adv-x="1144" d="M66 1004q53 66 122.5 65.5t106.5 -39.5t59 -123l254 -796l273 766q16 45 16 87t-25 72q45 33 113 33t109 -63q18 -31 18 -73t-20 -95l-416 -1094q-100 -264 -289 -264q-76 0 -120 38t-44 95t33 96q39 -43 102 -43q94 0 138 127l67 189h-6q-53 0 -97 36.5t-67 106.5 l-256 762q-31 94 -71 117zM299 1324q0 52 46 97t97.5 45t81 -30.5t29.5 -83t-45 -97.5t-97.5 -45t-82 31t-29.5 83zM641 1324q0 52 46 97t97.5 45t81 -30.5t29.5 -83t-45 -97.5t-97.5 -45t-82 31t-29.5 83z" />
<glyph unicode="&#x152;" horiz-adv-x="2234" d="M143 734q0 347 192.5 547t547.5 200h993q236 0 235 -125q0 -70 -63 -101q-66 49 -197 50h-530v-445h389q127 0 181.5 -23.5t54.5 -84t-56 -95.5q-66 29 -198 29h-371v-371q0 -76 32.5 -108.5t108.5 -32.5h389q125 0 197 84q63 -33 63 -104.5t-58 -112.5t-179 -41h-1000 q-375 0 -553 193.5t-178 540.5zM371 784q0 -322 145 -497q123 -145 320 -146q147 0 268 47v1102q-123 41 -268 41q-229 0 -357 -170q-109 -143 -108 -377z" />
<glyph unicode="&#x153;" horiz-adv-x="1804" d="M100 525q0 259 143.5 401.5t356.5 142.5q125 0 229.5 -53t169.5 -154q70 96 169.5 151.5t205.5 55.5q160 0 261.5 -106.5t101.5 -245.5q0 -100 -53.5 -147.5t-174.5 -49.5l-411 -14q4 -365 317 -365q154 0 268 115q35 -16 35 -63q0 -76 -104.5 -143.5t-243.5 -67.5 q-260 0 -391 176q-135 -176 -379 -176q-211 0 -355.5 142t-144.5 401zM322 596q0 -266 90 -378t217 -112t194 103q55 82 56 235q0 39 -5 80q-14 217 -95 317.5t-208 100.5t-188 -92t-61 -254zM1104 614l332 31q82 6 82 91t-47.5 142.5t-131.5 57.5t-151.5 -84t-83.5 -238z " />
<glyph unicode="&#x178;" horiz-adv-x="1255" d="M27 1378q35 119 143.5 119t183.5 -133l295 -516l301 450q39 53 39 94.5t-31 73.5q57 31 122 31t99.5 -29.5t34.5 -83t-45 -120.5l-430 -609l-2 -512q0 -80 35 -125q-51 -34 -117 -34q-133 0 -133 180l2 487l-374 647q-51 78 -123 80zM354 1756q0 52 46 97t97.5 45 t81 -30.5t29.5 -82.5t-45 -97.5t-97 -45.5t-82 31t-30 83zM696 1756q0 52 46 97t97.5 45t81 -30.5t29.5 -82.5t-45 -97.5t-97 -45.5t-82 31t-30 83z" />
<glyph unicode="&#x2c6;" horiz-adv-x="659" d="M25 1202l141 213q39 59 73.5 87t90 28t90.5 -27.5t74 -87.5l141 -213q-14 -37 -57 -37t-78 33l-170 166l-172 -166q-33 -33 -76 -33t-57 37z" />
<glyph unicode="&#x2dc;" horiz-adv-x="749" d="M38.5 1300q0.5 80 60 134.5t138 54.5t167 -55.5t133.5 -55.5t75.5 30t34.5 83q63 -14 63.5 -92t-60 -132.5t-136.5 -54.5t-168 56.5t-133 56.5t-74 -29.5t-35 -83.5q-66 8 -65.5 88z" />
<glyph unicode="&#x2000;" horiz-adv-x="1016" />
<glyph unicode="&#x2001;" horiz-adv-x="2032" />
<glyph unicode="&#x2002;" horiz-adv-x="1016" />
<glyph unicode="&#x2003;" horiz-adv-x="2032" />
<glyph unicode="&#x2004;" horiz-adv-x="677" />
<glyph unicode="&#x2005;" horiz-adv-x="508" />
<glyph unicode="&#x2006;" horiz-adv-x="338" />
<glyph unicode="&#x2007;" horiz-adv-x="338" />
<glyph unicode="&#x2008;" horiz-adv-x="254" />
<glyph unicode="&#x2009;" horiz-adv-x="406" />
<glyph unicode="&#x200a;" horiz-adv-x="112" />
<glyph unicode="&#x2010;" horiz-adv-x="1081" d="M123 666q-1 133 196 133h631q8 -14 8 -45q0 -137 -196 -138h-627q-12 20 -12 50z" />
<glyph unicode="&#x2011;" horiz-adv-x="1081" d="M123 666q-1 133 196 133h631q8 -14 8 -45q0 -137 -196 -138h-627q-12 20 -12 50z" />
<glyph unicode="&#x2012;" horiz-adv-x="1081" d="M123 666q-1 133 196 133h631q8 -14 8 -45q0 -137 -196 -138h-627q-12 20 -12 50z" />
<glyph unicode="&#x2013;" horiz-adv-x="1423" d="M123 666q-1 133 196 133h973q8 -20 8 -43q0 -139 -194 -140h-971q-12 20 -12 50z" />
<glyph unicode="&#x2014;" horiz-adv-x="2177" d="M123 666q-1 133 196 133h1725q10 -16 10 -43q0 -139 -196 -140h-1723q-12 20 -12 50z" />
<glyph unicode="&#x2018;" horiz-adv-x="534" d="M102 1477q0 152 83 264t167 112q47 0 56 -45q-115 -84 -115 -231q0 -72 37 -130t100 -77q-6 -49 -46 -85t-110.5 -36t-121 66.5t-50.5 161.5z" />
<glyph unicode="&#x2019;" horiz-adv-x="534" d="M102 1753q6 49 47 85t111 36t120 -65.5t50 -159.5q0 -154 -83 -266.5t-165 -112.5q-47 0 -55 45q115 84 115 231q0 74 -37 131.5t-103 75.5z" />
<glyph unicode="&#x201a;" horiz-adv-x="1474" d="M150 141q8 53 50 92t99 39q84 0 134 -73.5t50 -180.5q0 -158 -84 -277.5t-174 -119.5q-49 0 -61 51q125 88 125 250q0 78 -37 136.5t-102 82.5z" />
<glyph unicode="&#x201c;" horiz-adv-x="968" d="M291 1477q0 152 84 264t166 112q8 0 24 -4q20 4 33 4q47 0 55 -45q-114 -81 -114 -231q0 -72 36.5 -130t102.5 -77q-8 -49 -49 -85t-101 -36q-18 0 -28 2q-8 -2 -27 -2q-82 0 -132 67.5t-50 160.5z" />
<glyph unicode="&#x201d;" horiz-adv-x="968" d="M102 1735q6 49 47 83.5t112 34.5t120 -66.5t49 -160.5q0 -152 -83 -264.5t-165 -112.5q-47 0 -55 47q115 82 115 232q0 72 -37 130t-103 77zM537 1735q8 49 48 83.5t111.5 34.5t120.5 -66.5t49 -160.5q0 -152 -83 -264.5t-165 -112.5q-49 0 -57 47q115 85 115 232 q0 72 -37 130t-102 77z" />
<glyph unicode="&#x201e;" horiz-adv-x="1474" d="M150 141q8 53 50 92t99 39q84 0 134 -73.5t50 -180.5q0 -158 -84 -277.5t-174 -119.5q-49 0 -61 51q125 88 125 250q0 78 -37 136.5t-102 82.5z" />
<glyph unicode="&#x2022;" horiz-adv-x="878" d="M182 802.5q0 102.5 91.5 190.5t193.5 88t160.5 -59t58.5 -161.5t-89 -191.5t-192.5 -89t-163 60t-59.5 162.5z" />
<glyph unicode="&#x2026;" horiz-adv-x="1869" d="M199 123.5q0 60.5 54 115t115.5 54.5t96.5 -36t35 -97.5t-53.5 -115.5t-116 -54t-97 36.5t-34.5 97zM784 123.5q0 60.5 54.5 115t116 54.5t96 -36t34.5 -97.5t-53 -115.5t-115.5 -54t-97.5 36.5t-35 97zM1370 123.5q0 60.5 54.5 115t116 54.5t96 -36t34.5 -97.5 t-53 -115.5t-115.5 -54t-97.5 36.5t-35 97z" />
<glyph unicode="&#x202f;" horiz-adv-x="406" />
<glyph unicode="&#x2039;" horiz-adv-x="770" d="M135 828.5q0 72.5 88 198.5t193.5 221t153.5 95t67 -43q-145 -174 -204.5 -277t-59.5 -194.5t60.5 -197t203.5 -273.5q-18 -43 -66.5 -43t-154 95.5t-193.5 220.5t-88 197.5z" />
<glyph unicode="&#x203a;" horiz-adv-x="770" d="M135 358q141 168 201.5 273.5t60.5 197t-59 194.5t-203 277q4 14 21.5 28.5t40.5 14.5q51 0 157.5 -95t194.5 -221t88 -198.5t-88 -197.5t-194.5 -220.5t-157.5 -95.5q-23 0 -40.5 14.5t-21.5 28.5z" />
<glyph unicode="&#x205f;" horiz-adv-x="508" />
<glyph unicode="&#x20ac;" horiz-adv-x="1468" d="M84 555q0 102 162 102h14q-2 18 -2 53t4 105h-170q-8 16 -8 37q0 102 162 102h39q61 254 238 398.5t423 144.5q188 0 317.5 -71.5t129.5 -176.5q0 -59 -43 -92t-101.5 -33t-101.5 23q2 14 2 29q0 68 -54.5 122t-185.5 54t-244.5 -103.5t-158.5 -294.5h502q8 -12 8 -32 q0 -106 -160 -107h-371q-2 -23 -2 -63.5t4 -94.5h521q8 -12 8 -32q0 -107 -160 -107h-348q43 -174 152.5 -261t252 -87t252 54.5t176.5 127.5q49 -14 50 -84q0 -90 -150.5 -188t-372 -98t-384 142t-210.5 394h-182q-8 16 -8 37z" />
<glyph unicode="&#x2122;" horiz-adv-x="1996" d="M47 1446q0 37 25 65q34 -20 106 -20h461q90 0 90 -76q0 -41 -27 -63q-45 23 -102 22h-133v-665q0 -47 33 -62q-25 -41 -94 -41q-94 0 -95 103v665h-176q-88 0 -88 72zM815 637q25 20 29 74l53 682v29.5t-18 45.5q53 33 118.5 33t95 -27.5t52.5 -91.5l205 -508l194 492 q31 80 69 107.5t102.5 27.5t103.5 -24q-16 -20 -16.5 -46t-0.5 -34l47 -682q5 -65 25 -88q-45 -20 -82 -20.5t-67.5 23t-32.5 72.5l-41 627l-265 -667q-16 -37 -57 -37t-53 39l-250 639l-41 -596q-6 -100 -82 -101q-57 0 -88 31z" />
<glyph unicode="&#x25fc;" horiz-adv-x="1064" d="M0 0v1065h1065v-1065h-1065z" />
</font>
</defs>
</svg>
